<svg width="96" height="96" viewBox="0 0 96 96" fill="none" xmlns="http://www.w3.org/2000/svg">
<circle cx="48" cy="48" r="48" fill="#E7EDF2"/>
<path d="M56.7656 47.6406C54.3594 50.0469 51.4375 51.25 48 51.25C44.5625 51.25 41.6406 50.0469 39.2344 47.6406C36.8281 45.2344 35.625 42.3125 35.625 38.875C35.625 35.4375 36.8281 32.5156 39.2344 30.1094C41.6406 27.7031 44.5625 26.5 48 26.5C51.4375 26.5 54.3594 27.7031 56.7656 30.1094C59.1719 32.5156 60.375 35.4375 60.375 38.875C60.375 42.3125 59.1719 45.2344 56.7656 47.6406ZM59 54C62.0365 54 64.6146 55.0885 66.7344 57.2656C68.9115 59.3854 70 61.9635 70 65V66.375C70 67.5208 69.599 68.4948 68.7969 69.2969C67.9948 70.099 67.0208 70.5 65.875 70.5H30.125C28.9792 70.5 28.0052 70.099 27.2031 69.2969C26.401 68.4948 26 67.5208 26 66.375V65C26 61.9635 27.0599 59.3854 29.1797 57.2656C31.3568 55.0885 33.9635 54 37 54H41.7266C43.7318 54.9167 45.8229 55.375 48 55.375C50.1771 55.375 52.2682 54.9167 54.2734 54H59Z" fill="#CDD4E0"/>
</svg>
