<svg width="96" height="96" viewBox="0 0 96 96" fill="none" xmlns="http://www.w3.org/2000/svg">
<circle cx="48" cy="48" r="48" fill="#E7EDF2"/>
<path d="M67.3984 28.1328C67.7995 30.0234 68 32.4297 68 35.3516C68 39.4766 67.026 43 65.0781 45.9219C63.1302 48.8438 60.4375 51.4219 57 53.6562V62.3359C57 63.0807 56.7708 63.8255 56.3125 64.5703C55.8542 65.2578 55.3099 65.7448 54.6797 66.0312L46.2578 70.3281C45.9714 70.4427 45.6562 70.5 45.3125 70.5C44.7396 70.5 44.2526 70.2995 43.8516 69.8984C43.4505 69.4974 43.25 69.0104 43.25 68.4375V60.4453L41.4453 61.3906C40.2422 61.9635 39.1823 61.7917 38.2656 60.875L33.625 56.2344C33.1094 55.7188 32.8516 55.0599 32.8516 54.2578C32.8516 53.8568 32.9375 53.4557 33.1094 53.0547L34.0547 51.25H26.0625C25.4896 51.25 25.0026 51.0495 24.6016 50.6484C24.2005 50.2474 24 49.7604 24 49.1875C24 48.8438 24.0859 48.5286 24.2578 48.2422L28.4688 39.7344C28.7552 39.1615 29.2708 38.6458 30.0156 38.1875C30.7604 37.7292 31.4766 37.5 32.1641 37.5H40.8438C43.0781 34.0052 45.6276 31.3125 48.4922 29.4219C51.4141 27.474 54.9661 26.5 59.1484 26.5C62.0703 26.5 64.4766 26.7005 66.3672 27.1016C66.9401 27.2161 67.2839 27.5599 67.3984 28.1328ZM54.8516 50.1328C58.0026 48.0703 60.2943 45.8932 61.7266 43.6016C63.1589 41.2526 63.875 38.5026 63.875 35.3516C63.875 33.4036 63.8177 31.8854 63.7031 30.7969C62.6146 30.6823 61.0964 30.625 59.1484 30.625C57.0286 30.625 55.1094 30.9401 53.3906 31.5703C51.6719 32.2005 50.0677 33.1745 48.5781 34.4922C47.1458 35.8099 45.7422 37.5286 44.3672 39.6484C43.4505 41.5391 41.0729 46.3229 37.2344 54L40.5 57.2656C47.7188 53.6562 52.5026 51.2786 54.8516 50.1328ZM53.1328 36.4688C53.8203 35.7812 54.651 35.4375 55.625 35.4375C56.599 35.4375 57.401 35.7812 58.0312 36.4688C58.7188 37.099 59.0625 37.901 59.0625 38.875C59.0625 39.849 58.7188 40.6797 58.0312 41.3672C57.401 41.9974 56.599 42.3125 55.625 42.3125C54.651 42.3125 53.8203 41.9974 53.1328 41.3672C52.5026 40.6797 52.1875 39.849 52.1875 38.875C52.1875 37.901 52.5026 37.099 53.1328 36.4688Z" fill="#CDD4E0"/>
</svg>
