<svg width="96" height="96" viewBox="0 0 96 96" fill="none" xmlns="http://www.w3.org/2000/svg">
<circle cx="48" cy="48" r="48" fill="#E7EDF2"/>
<path d="M37 67.75V33.375C37 32.2292 37.401 31.2552 38.2031 30.4531C39.0052 29.651 39.9792 29.25 41.125 29.25H54.875C56.0208 29.25 56.9948 29.651 57.7969 30.4531C58.599 31.2552 59 32.2292 59 33.375V67.75H37ZM42.5 34.75V37.5H53.5V34.75H42.5ZM70 41.625V63.625C70 64.7708 69.599 65.7448 68.7969 66.5469C67.9948 67.349 67.0208 67.75 65.875 67.75H61.75V37.5H65.875C67.0208 37.5 67.9948 37.901 68.7969 38.7031C69.599 39.5052 70 40.4792 70 41.625ZM34.25 67.75H30.125C28.9792 67.75 28.0052 67.349 27.2031 66.5469C26.401 65.7448 26 64.7708 26 63.625V41.625C26 40.4792 26.401 39.5052 27.2031 38.7031C28.0052 37.901 28.9792 37.5 30.125 37.5H34.25V67.75Z" fill="#CDD4E0"/>
</svg>
