<svg width="96" height="96" viewBox="0 0 96 96" fill="none" xmlns="http://www.w3.org/2000/svg">
<circle cx="48" cy="48" r="48" fill="#E7EDF2"/>
<path d="M65.875 32C67.0208 32 67.9948 32.401 68.7969 33.2031C69.599 34.0052 70 34.9792 70 36.125V60.875C70 62.0208 69.599 62.9948 68.7969 63.7969C67.9948 64.599 67.0208 65 65.875 65H30.125C28.9792 65 28.0052 64.599 27.2031 63.7969C26.401 62.9948 26 62.0208 26 60.875V36.125C26 34.9792 26.401 34.0052 27.2031 33.2031C28.0052 32.401 28.9792 32 30.125 32H65.875ZM65.3594 60.875C65.7031 60.875 65.875 60.7031 65.875 60.3594V36.6406C65.875 36.2969 65.7031 36.125 65.3594 36.125H30.6406C30.2969 36.125 30.125 36.2969 30.125 36.6406V60.3594C30.125 60.7031 30.2969 60.875 30.6406 60.875H65.3594ZM34.5078 40.5938C35.1953 39.9062 36.026 39.5625 37 39.5625C37.974 39.5625 38.776 39.9062 39.4062 40.5938C40.0938 41.224 40.4375 42.026 40.4375 43C40.4375 43.974 40.0938 44.8047 39.4062 45.4922C38.776 46.1224 37.974 46.4375 37 46.4375C36.026 46.4375 35.1953 46.1224 34.5078 45.4922C33.8776 44.8047 33.5625 43.974 33.5625 43C33.5625 42.026 33.8776 41.224 34.5078 40.5938ZM34.25 56.75V52.625L37.6875 49.1875C38.1458 48.7292 38.6042 48.7292 39.0625 49.1875L42.5 52.625L52.8125 42.3125C53.2708 41.8542 53.7292 41.8542 54.1875 42.3125L61.75 49.875V56.75H34.25Z" fill="#CDD4E0"/>
</svg>