<svg xmlns="http://www.w3.org/2000/svg" xmlns:xlink="http://www.w3.org/1999/xlink" viewBox="0 0 510.95 156.49"><defs><style>.cls-1{fill:none;}.cls-2{clip-path:url(#clip-path);}.cls-3{fill:#0b0e55;}.cls-4{fill:#fff;}</style><clipPath id="clip-path" transform="translate(0 0)"><rect class="cls-1" width="510.95" height="156.49"/></clipPath></defs><title>Asset 1</title><g id="Layer_2" data-name="Layer 2"><g id="Layer_1-2" data-name="Layer 1"><g class="cls-2"><path class="cls-3" d="M250.79,85.55h27V70.85h-27V63.67h25.66a4.12,4.12,0,0,0,4.09-4.15V48.93H235.71a4.12,4.12,0,0,0-4.09,4.15v54.47h45.55a4.12,4.12,0,0,0,4.09-4.15V92.86H250.79ZM203.6,64.49a13.67,13.67,0,0,1,7,2.14,19.41,19.41,0,0,1,2.22,1.54,5.81,5.81,0,0,0,8.12-.87l4.34-5.23a4.22,4.22,0,0,0-.6-5.94,34,34,0,0,0-8-4.85,33,33,0,0,0-13.29-2.92,33.54,33.54,0,0,0-16.13,3.84,28.27,28.27,0,0,0-11.17,10.62,29.39,29.39,0,0,0-4,15.31A30.68,30.68,0,0,0,176,93.63a28.32,28.32,0,0,0,10.93,10.82,31.89,31.89,0,0,0,29.17.76,37,37,0,0,0,8.65-5.56,4.18,4.18,0,0,0,.27-6l-4.39-4.76a5.77,5.77,0,0,0-7.53-1,21.08,21.08,0,0,1-2.74,1.65,15.08,15.08,0,0,1-6.72,1.8,11.19,11.19,0,0,1-6.14-1.75,11.8,11.8,0,0,1-4.29-4.86,15.48,15.48,0,0,1-1.53-6.94A13.87,13.87,0,0,1,195,68.26a11,11,0,0,1,8.58-3.78M328.07,74a77.38,77.38,0,0,0-10.37-3.43,45.37,45.37,0,0,1-7.07-2.31q-2.23-1-2.24-2.88,0-2.45,3.54-2.45A28.84,28.84,0,0,1,321.23,65q2.78,1,5.36,2.16a6.06,6.06,0,0,0,7.92-3L338,56.76a2.07,2.07,0,0,0-.8-2.68A44.49,44.49,0,0,0,327.09,50a49.93,49.93,0,0,0-13.49-1.88,33.59,33.59,0,0,0-13,2.35,19.45,19.45,0,0,0-8.66,6.66,17,17,0,0,0-3,10.06q0,5.92,3,9.47A18.21,18.21,0,0,0,299,81.88a75.48,75.48,0,0,0,10.23,3.18,46.47,46.47,0,0,1,7.31,2.31q2.27,1,2.27,3,0,3-4.63,3-4.43,0-11-2.72a49.69,49.69,0,0,1-5.67-2.74,6.06,6.06,0,0,0-8.41,2.7l-3.24,6.61a2.09,2.09,0,0,0,.63,2.62,43.4,43.4,0,0,0,12.11,5.86A51.27,51.27,0,0,0,314,108.13a35.33,35.33,0,0,0,12.3-2,19.12,19.12,0,0,0,8.78-6.25,16.69,16.69,0,0,0,3.24-10.49q0-6.2-3.08-9.92A19,19,0,0,0,328.07,74M444.4,54.42q-6.18-5.49-17.5-5.49h-21a6.18,6.18,0,0,0-6.14,6.22v52.4h13a6.18,6.18,0,0,0,6.14-6.22v-9h8q11.31,0,17.5-5.9t6.18-16.51q0-10-6.18-15.49M430.74,75.75a6.1,6.1,0,0,1-4.81,1.88h-7v-14h7a6.27,6.27,0,0,1,4.79,1.8,7.1,7.1,0,0,1,1.69,5.06,7.58,7.58,0,0,1-1.67,5.23m79.74,23.16-20-50H478a10.87,10.87,0,0,0-10,6.74l-21.6,51.89H466l3-8.29h21.66l2.9,8.29h11.18a6.27,6.27,0,0,0,5.73-8.64M474,85.39,480,68.24l6,17.15Zm-86.1-31q-6.18-5.49-17.49-5.49h-21a6.18,6.18,0,0,0-6.14,6.22v52.4h13a6.18,6.18,0,0,0,6.14-6.22v-9h8q11.31,0,17.49-5.9T394,69.92q0-10-6.18-15.49M374.21,75.75a6.1,6.1,0,0,1-4.81,1.88h-7v-14h7a6.26,6.26,0,0,1,4.79,1.8,7.1,7.1,0,0,1,1.69,5.06,7.59,7.59,0,0,1-1.67,5.23" transform="translate(0 0)"/><path class="cls-3" d="M78.21,156.49A35.09,35.09,0,0,1,64.7,153.8c-10.1-4.18-24.78-11-37.42-19.52C8.92,121.86,0,109.24,0,95.71V53.6c0-11,6.22-21.78,18.49-32a93.35,93.35,0,0,1,119.45,0c12.27,10.21,18.49,21,18.49,32V95.71c0,13.53-8.93,26.14-27.28,38.57-12.64,8.55-27.32,15.33-37.42,19.52a35.09,35.09,0,0,1-13.51,2.69" transform="translate(0 0)"/><path class="cls-4" d="M43.32,48H40.54a21,21,0,0,0-7,.91,6.28,6.28,0,0,0-3.58,3,12.2,12.2,0,0,0-1.08,5.66v10.1a2.54,2.54,0,0,1-.41,1.65,1.84,1.84,0,0,1-1.44.47h-2.7V80.33h2.7a1.84,1.84,0,0,1,1.44.47,2.54,2.54,0,0,1,.41,1.65V92.58A12.21,12.21,0,0,0,30,98.22a6.21,6.21,0,0,0,3.58,3,21.37,21.37,0,0,0,7,.89h2.78a2.51,2.51,0,0,0,2.5-2.53V91.82q-3,0-3.92-.77a3.58,3.58,0,0,1-1-2.9V83.39a10,10,0,0,0-1.29-5.62,7.38,7.38,0,0,0-4.49-2.71,7.26,7.26,0,0,0,4.49-2.68A10,10,0,0,0,41,66.75V62a3.56,3.56,0,0,1,1-2.9q1-.77,3.9-.77V50.57A2.51,2.51,0,0,0,43.32,48" transform="translate(0 0)"/><path class="cls-4" d="M101.44,89l-7.76-4.6a4,4,0,0,0-4.92.77A11.52,11.52,0,0,1,80,88.56,9.69,9.69,0,0,1,72,84.87q-3-3.69-3-9.78t3-9.66A9.77,9.77,0,0,1,80,61.76a12,12,0,0,1,8.71,3.31,3.84,3.84,0,0,0,4.65.44l7.79-4.76a1.62,1.62,0,0,0,.48-2.29,23,23,0,0,0-8.53-7.37A29.82,29.82,0,0,0,79.32,48a29,29,0,0,0-14.19,3.38,23.79,23.79,0,0,0-9.55,9.57,29.05,29.05,0,0,0-3.41,14.24,28.3,28.3,0,0,0,3.41,14.05,24.07,24.07,0,0,0,9.48,9.47,28.36,28.36,0,0,0,14,3.38,30.77,30.77,0,0,0,14.4-3.19A21.93,21.93,0,0,0,102,91.25a1.62,1.62,0,0,0-.53-2.26" transform="translate(0 0)"/><path class="cls-4" d="M134,26.46a87.22,87.22,0,0,0-111.59,0C11.65,35.42,6.2,44.55,6.2,53.6V95.71C6.2,118.07,39.29,136.48,67,148a29.12,29.12,0,0,0,22.33,0c27.76-11.5,60.85-29.91,60.85-52.27V53.6c0-9-5.46-18.18-16.22-27.14m10,69.25c0,20.47-39.06,39-57,46.45a23,23,0,0,1-17.64,0c-17.94-7.44-57-26-57-46.45V53.6c0-7.89,5.8-15.49,14-22.29a81.09,81.09,0,0,1,103.72,0c8.16,6.79,14,14.4,14,22.29Z" transform="translate(0 0)"/><path class="cls-4" d="M127.91,69.31a2.54,2.54,0,0,1-.41-1.65V57.56a12.2,12.2,0,0,0-1.08-5.66,6.28,6.28,0,0,0-3.58-3,21,21,0,0,0-7-.91H113.1a2.51,2.51,0,0,0-2.5,2.53v7.72q2.93,0,3.9.77a3.55,3.55,0,0,1,1,2.9v4.79a10,10,0,0,0,1.29,5.63,7.26,7.26,0,0,0,4.49,2.68,7.37,7.37,0,0,0-4.49,2.71,10,10,0,0,0-1.29,5.63v4.76a3.58,3.58,0,0,1-1,2.9q-1,.77-3.92.77v7.72a2.51,2.51,0,0,0,2.5,2.53h2.78a21.38,21.38,0,0,0,7-.89,6.21,6.21,0,0,0,3.58-3,12.21,12.21,0,0,0,1.08-5.64V82.45a2.55,2.55,0,0,1,.41-1.65,1.84,1.84,0,0,1,1.44-.47H132V69.78h-2.7a1.84,1.84,0,0,1-1.44-.47" transform="translate(0 0)"/></g></g></g></svg>