<?xml version="1.0" encoding="UTF-8"?>
<svg width="66px" height="64px" viewBox="0 0 66 64" version="1.1" xmlns="http://www.w3.org/2000/svg" xmlns:xlink="http://www.w3.org/1999/xlink">
    <!-- Generator: sketchtool 55.1 (78136) - https://sketchapp.com -->
    <title>1322764B-7D8B-4162-A5A0-45BF33677C3C</title>
    <desc>Created with sketchtool.</desc>
    <g id="UI" stroke="none" stroke-width="1" fill="none" fill-rule="evenodd">
        <g id="Email-confirmation" transform="translate(-687.000000, -254.000000)">
            <g id="Illustration-envelope" transform="translate(687.000000, 254.000000)">
                <path d="M0.6712,25.1774 L0.6712,59.3704 C0.6712,61.6134 2.4892,63.4304 4.7322,63.4304 L61.7292,63.4304 C63.9712,63.4304 65.7892,61.6134 65.7892,59.3704 L65.7892,25.1774 L0.6712,25.1774 Z" id="Fill-7" fill="#AAAAAA"></path>
                <path d="M35.3314,1.0803 C34.0804,0.1653 32.3804,0.1653 31.1294,1.0803 L2.1294,22.2833 C1.2134,22.9533 0.6714,24.0203 0.6714,25.1563 L0.6714,25.1773 L65.7894,25.1773 L65.7894,25.1563 C65.7894,24.0203 65.2474,22.9533 64.3314,22.2833 L35.3314,1.0803 Z" id="Fill-9" fill="#D8D7DB"></path>
                <path d="M10.2236,5.4806 C9.5206,5.4806 8.9506,6.0506 8.9506,6.7536 L8.9506,45.6616 C8.9506,46.3646 9.5206,46.9346 10.2236,46.9346 L56.0726,46.9346 C56.7756,46.9346 57.3446,46.3646 57.3446,45.6616 L57.3446,6.7536 C57.3446,6.0506 56.7756,5.4806 56.0726,5.4806 L10.2236,5.4806 Z" id="Fill-11" fill="#9ACBFF"></path>
                <polygon id="Fill-13" fill="#007BFF" points="16.24 14.941 50.056 14.941 50.056 13.009 16.24 13.009"></polygon>
                <polygon id="Fill-15" fill="#007BFF" points="16.24 26.662 50.056 26.662 50.056 24.73 16.24 24.73"></polygon>
                <polygon id="Fill-16" fill="#007BFF" points="16.24 32.523 50.056 32.523 50.056 30.591 16.24 30.591"></polygon>
                <polygon id="Fill-17" fill="#007BFF" points="16.24 20.801 50.056 20.801 50.056 18.869 16.24 18.869"></polygon>
                <path d="M4.7318,63.4308 L61.7968,63.4308 C64.0028,63.4308 65.7898,61.6438 65.7898,59.4388 L65.7898,25.1778 L4.7318,63.4308 Z" id="Fill-18" fill="#FEFFFF"></path>
                <path d="M0.6712,25.1774 L0.6712,59.4384 C0.6712,61.6434 2.4582,63.4304 4.6632,63.4304 L61.7292,63.4304 L0.6712,25.1774 Z" id="Fill-19" fill="#F2F0F7"></path>
            </g>
        </g>
    </g>
</svg>