<svg xmlns="http://www.w3.org/2000/svg" xmlns:xlink="http://www.w3.org/1999/xlink" viewBox="0 0 136 102"><defs><style>.a{fill:url(#a);}</style><linearGradient id="a" x1="0.5" x2="0.5" y2="1" gradientUnits="objectBoundingBox"><stop offset="0" stop-color="#9745ff"/><stop offset="1" stop-color="#3e20b3"/></linearGradient></defs><path class="a" d="M123.25,102H12.75A12.764,12.764,0,0,1,0,89.25V12.75A12.765,12.765,0,0,1,12.75,0h110.5A12.765,12.765,0,0,1,136,12.75v76.5A12.764,12.764,0,0,1,123.25,102ZM8.5,34.8V89.25A4.255,4.255,0,0,0,12.75,93.5h110.5a4.255,4.255,0,0,0,4.251-4.25V34.8c-6.513,5.341-16.9,13.658-34.717,27.811-.831.665-1.761,1.451-2.745,2.283a84.43,84.43,0,0,1-10.008,7.6c-4.392,2.7-8.287,4.013-11.908,4.013h-.2c-3.646,0-7.571-1.324-12-4.048a84.017,84.017,0,0,1-10.01-7.6c-.969-.821-1.884-1.595-2.694-2.243C25.371,48.435,14.988,40.118,8.5,34.8ZM68,68h.114c2.249,0,5.022-1.112,8.476-3.4A92.028,92.028,0,0,0,84.812,58.2l.068-.058c.956-.807,1.859-1.569,2.617-2.17,25.707-20.4,34.134-27.263,40-32.221v-11A4.256,4.256,0,0,0,123.25,8.5H12.75A4.256,4.256,0,0,0,8.5,12.75v11c5.876,4.963,14.306,11.827,40,32.221.766.611,1.69,1.394,2.585,2.151C55.739,62.054,62.769,68,67.886,68Z"/></svg>