<svg xmlns="http://www.w3.org/2000/svg" viewBox="0 0 100 100"><defs><style>.a{fill:$text-color-alt;}</style></defs><path class="a" d="M50,100a22.432,22.432,0,0,1-8.638-1.721A140.367,140.367,0,0,1,17.443,85.808C5.706,77.87,0,69.808,0,61.163V34.253c0-7.041,3.976-13.92,11.819-20.446a59.7,59.7,0,0,1,76.363,0C96.024,20.334,100,27.213,100,34.253v26.91c0,8.646-5.705,16.707-17.442,24.645a140.366,140.366,0,0,1-23.92,12.471A22.423,22.423,0,0,1,50,100ZM50,4A55.776,55.776,0,0,0,14.362,16.9C7.486,22.628,4,28.465,4,34.249V61.168c0,14.288,21.136,26.055,38.867,33.41a18.588,18.588,0,0,0,14.265,0C74.864,87.223,96,75.456,96,61.168V34.248c0-5.783-3.486-11.62-10.363-17.348A55.779,55.779,0,0,0,50,4Zm0,88a14.6,14.6,0,0,1-5.629-1.125A132.067,132.067,0,0,1,21.892,79.15C12.674,72.9,8,66.85,8,61.171V34.242c0-4.525,3-9.32,8.906-14.251a51.632,51.632,0,0,1,66.187,0C89,24.923,92,29.717,92,34.242V61.171C92,66.85,87.326,72.9,78.108,79.15A132.079,132.079,0,0,1,55.63,90.876,14.608,14.608,0,0,1,50,92ZM72.629,31A1.636,1.636,0,0,0,71,32.639v5a4.455,4.455,0,0,1,2.547.5,2.3,2.3,0,0,1,.632,1.876v3.1a6.483,6.483,0,0,0,.843,3.643,4.759,4.759,0,0,0,2.93,1.739,4.839,4.839,0,0,0-2.93,1.758,6.483,6.483,0,0,0-.843,3.643v3.083a2.322,2.322,0,0,1-.622,1.876,4.427,4.427,0,0,1-2.544.5H71v5A1.636,1.636,0,0,0,72.629,66h1.818a14.153,14.153,0,0,0,4.54-.58,4.06,4.06,0,0,0,2.336-1.914,7.9,7.9,0,0,0,.708-3.653v-6.56a1.645,1.645,0,0,1,.268-1.071,1.213,1.213,0,0,1,.939-.3H85V45.082H83.238a1.21,1.21,0,0,1-.939-.3,1.64,1.64,0,0,1-.268-1.07V37.166a7.886,7.886,0,0,0-.708-3.662,4.11,4.11,0,0,0-2.336-1.915,13.857,13.857,0,0,0-4.54-.59ZM50.355,31a18.434,18.434,0,0,0-9.071,2.188,15.371,15.371,0,0,0-6.107,6.19A19.076,19.076,0,0,0,33,48.593a18.583,18.583,0,0,0,2.176,9.091,15.566,15.566,0,0,0,6.062,6.129A18.061,18.061,0,0,0,50.2,66a19.569,19.569,0,0,0,9.207-2.063,14.169,14.169,0,0,0,5.426-4.949,1.042,1.042,0,0,0,.134-.807,1.028,1.028,0,0,0-.473-.654l-4.961-2.98a2.4,2.4,0,0,0-1.246-.347,2.622,2.622,0,0,0-1.9.849,7.351,7.351,0,0,1-5.616,2.2A6.194,6.194,0,0,1,45.7,54.861a9.906,9.906,0,0,1-1.905-6.331,9.585,9.585,0,0,1,1.95-6.252,6.245,6.245,0,0,1,5.034-2.373h.07a7.634,7.634,0,0,1,5.5,2.142A2.359,2.359,0,0,0,58,42.709a2.508,2.508,0,0,0,1.321-.378L64.3,39.251a1.054,1.054,0,0,0,.308-1.484A14.81,14.81,0,0,0,59.153,33,18.97,18.97,0,0,0,50.355,31ZM16,45.082v6.835h1.762a1.212,1.212,0,0,1,.938.3,1.645,1.645,0,0,1,.268,1.071v6.56a7.887,7.887,0,0,0,.709,3.653,4.06,4.06,0,0,0,2.336,1.914,14.134,14.134,0,0,0,4.539.58h1.818A1.636,1.636,0,0,0,30,64.361v-5a4.449,4.449,0,0,1-2.556-.5,2.321,2.321,0,0,1-.623-1.876V53.9a6.487,6.487,0,0,0-.842-3.643,4.843,4.843,0,0,0-2.93-1.758,4.766,4.766,0,0,0,2.93-1.739,6.487,6.487,0,0,0,.842-3.643v-3.1a2.3,2.3,0,0,1,.632-1.876,4.423,4.423,0,0,1,2.534-.5H30v-5A1.636,1.636,0,0,0,28.371,31H26.553a13.869,13.869,0,0,0-4.539.59A4.11,4.11,0,0,0,19.678,33.5a7.87,7.87,0,0,0-.709,3.662v6.541a1.64,1.64,0,0,1-.268,1.07,1.209,1.209,0,0,1-.938.3Z"/></svg>