<?xml version="1.0" encoding="UTF-8"?>
<svg width="82px" height="100px" viewBox="0 0 82 100" version="1.1" xmlns="http://www.w3.org/2000/svg" xmlns:xlink="http://www.w3.org/1999/xlink">
    <!-- Generator: Sketch 51.2 (57519) - http://www.bohemiancoding.com/sketch -->
    <title>Logo</title>
    <desc>Created with Sketch.</desc>
    <defs></defs>
    <g id="Log-In-/-Out-/-Sign-Up" stroke="none" stroke-width="1" fill="none" fill-rule="evenodd">
        <g id="Sign-Up---App-Owner-Data" transform="translate(-559.000000, -40.000000)">
            <g id="Logo" transform="translate(559.000000, 40.000000)">
                <path d="M41.0002066,81 C38.5601609,81 36.177139,80.5308832 33.9172558,79.6058876 C28.6251871,77.440256 20.9261299,73.9293266 14.3030896,69.5041573 C4.67844167,63.0742791 0,56.5447033 0,49.5422876 L0,27.7453193 C0,22.0418688 3.26069451,16.469556 9.6911758,11.1835119 C18.4645969,3.9717725 29.5838503,0 41.0002066,0 C52.4165629,0 63.5358163,3.9717725 72.3092374,11.1835119 C78.7397187,16.4699697 82,22.0418688 82,27.7449056 L82,49.5422876 C82,56.5447033 77.3215583,63.0742791 67.6973237,69.5041573 C61.0742833,73.9293266 53.3748129,77.440256 48.0827442,79.6058876 C45.822861,80.5308832 43.4402524,81 41.0002066,81" id="Fill-1" fill="#CCCCCC"></path>
                <path d="M66.3783103,35.8437878 C66.2358816,35.6805289 66.1644621,35.3935763 66.1644621,34.9825135 L66.1644621,29.7203274 C66.1644621,28.4671483 65.9764726,27.4846792 65.5996727,26.7737531 C65.2232833,26.0624105 64.6018509,25.5488944 63.7361963,25.2327884 C62.8705417,24.9166824 61.6642076,24.7588376 60.1159624,24.7588376 L58.6666375,24.7588376 C57.949158,24.7588376 57.3671295,25.3489855 57.3671295,26.0774036 L57.3671295,30.0997379 C58.3850637,30.0997379 59.0623184,30.2342599 59.3984829,30.5028876 C59.7342371,30.7715152 59.9025246,31.2746193 59.9025246,32.0117835 L59.9025246,34.5085628 C59.9025246,35.8042225 60.1266343,36.7812774 60.5744433,37.4397275 C61.0226627,38.0981775 61.8017108,38.5646317 62.9115875,38.838257 C61.8017108,39.1227108 61.0226627,39.5941627 60.5744433,40.2526127 C60.1266343,40.9110627 59.9025246,41.8881176 59.9025246,43.1837774 L59.9025246,45.6647305 C59.9025246,46.4023112 59.7371103,46.9054153 59.4062816,47.1740429 C59.0750426,47.4426706 58.3957356,47.5767761 57.3671295,47.5767761 L57.3671295,51.5991104 C57.3671295,52.3275286 57.949158,52.9180929 58.6666375,52.9180929 L60.1159624,52.9180929 C61.6642076,52.9180929 62.8705417,52.7623305 63.7361963,52.4516387 C64.6018509,52.1409469 65.2232833,51.6270144 65.5996727,50.9110905 C65.9764726,50.1943337 66.1644621,49.2143635 66.1644621,47.9720127 L66.1644621,42.6940005 C66.1644621,42.2829378 66.2358816,41.9959852 66.3783103,41.8327262 C66.5211495,41.6694672 66.7707076,41.5878378 67.1269846,41.5878378 L68.5319801,41.5878378 L68.5319801,36.0886763 L67.1269846,36.0886763 C66.7707076,36.0886763 66.5211495,36.0074633 66.3783103,35.8437878 Z M74.7738052,49.6037694 C74.7738052,60.2730756 54.4360535,69.9349241 45.094044,73.810242 C42.1477811,75.0321853 38.8522189,75.0321853 35.9063665,73.810242 C26.5639465,69.9349241 6.22619484,60.2730756 6.22619484,49.6037694 L6.22619484,27.659183 C6.22619484,23.5473062 9.24675055,19.5849446 13.4945738,16.0457236 C29.1342305,3.0162426 51.86618,3.0162426 67.5054262,16.0457236 C71.7532495,19.5849446 74.7738052,23.5473062 74.7738052,27.659183 L74.7738052,49.6037694 Z M69.5523771,13.5160427 C61.4130077,6.73454871 51.095341,3 40.5002052,3 C29.904659,3 19.5865819,6.73454871 11.4472124,13.5160427 C5.84200675,18.1859986 3,22.9442476 3,27.659183 L3,49.6037694 C3,61.2517964 20.2305895,70.8445097 34.6852558,76.8401117 C36.5409335,77.6101776 38.4971733,78 40.5002052,78 C42.5028267,78 44.4594769,77.6101776 46.3143337,76.8401117 C60.7690001,70.8445097 78,61.2522129 78,49.6037694 L78,27.6587666 C78,22.9442476 75.1579932,18.1859986 69.5523771,13.5160427 Z M52.5951522,46.0995324 L48.5541995,43.6997923 C47.7139933,43.2008529 46.6677375,43.3907664 45.9933561,44.1033585 C44.8740388,45.286153 43.3496002,45.8775502 41.4192193,45.8775502 C39.6957088,45.8775502 38.3165721,45.2361757 37.2822195,43.9534268 C36.2482774,42.6702613 35.7306907,40.9714519 35.7306907,38.855749 C35.7306907,36.7733644 36.2601807,35.0949623 37.3191607,33.8205429 C38.3781407,32.5465399 39.7445532,31.9093302 41.4192193,31.9093302 C43.2256421,31.8964194 44.7369461,32.4711576 45.9535417,33.6343777 C46.6074003,34.2595096 47.606043,34.333226 48.3756506,33.8630235 L52.4338425,31.3824869 C52.8418371,31.1330172 52.9592279,30.5816017 52.6842215,30.1867816 C51.5513592,28.5637709 50.0708395,27.2843538 48.241431,26.3493631 C46.1390684,25.2748526 43.7510275,24.7375973 41.075256,24.7375973 C38.2837355,24.7375973 35.8209913,25.3248298 33.6870235,26.4992948 C31.5522348,27.6737597 29.8943975,29.3355027 28.7122803,31.4845237 C27.5301631,33.6331282 26.939515,36.1070013 26.939515,38.9057263 C26.939515,41.6711332 27.5301631,44.111688 28.7122803,46.2269744 C29.8943975,48.3426772 31.5403315,49.9877611 33.6500824,51.1622261 C35.7594227,52.3366911 38.1934349,52.9239235 40.9521188,52.9239235 C43.8244994,52.9239235 46.3245952,52.3704257 48.4507643,51.2621806 C50.3101361,50.2934552 51.7824467,48.9648938 52.8701587,47.2764963 C53.127105,46.8779278 52.9998632,46.3402561 52.5951522,46.0995324 Z M22.3333625,24.7588376 L20.8840376,24.7588376 C19.3362029,24.7588376 18.1294583,24.9166824 17.2638037,25.2327884 C16.3981491,25.5488944 15.7771271,26.0624105 15.4007377,26.7737531 C15.0235274,27.4846792 14.8355379,28.4671483 14.8355379,29.7203274 L14.8355379,34.9825135 C14.8355379,35.3935763 14.7641184,35.6805289 14.6216897,35.8437878 C14.4788505,36.0074633 14.2297029,36.0886763 13.8734259,36.0886763 L12.4680199,36.0886763 L12.4680199,41.5878378 L13.8734259,41.5878378 C14.2297029,41.5878378 14.4788505,41.6694672 14.6216897,41.8327262 C14.7641184,41.9959852 14.8355379,42.2829378 14.8355379,42.6940005 L14.8355379,47.9720127 C14.8355379,49.2143635 15.0235274,50.1943337 15.4007377,50.9110905 C15.7771271,51.6270144 16.3981491,52.1409469 17.2638037,52.4516387 C18.1294583,52.7623305 19.3362029,52.9180929 20.8840376,52.9180929 L22.3333625,52.9180929 C23.0512524,52.9180929 23.6328705,52.3275286 23.6328705,51.5991104 L23.6328705,47.5767761 C22.6046748,47.5767761 21.9249574,47.4426706 21.5941288,47.1740429 C21.2628897,46.9054153 21.0978859,46.4023112 21.0978859,45.6647305 L21.0978859,43.1837774 C21.0978859,41.8881176 20.8737762,40.9110627 20.4255567,40.2526127 C19.9773373,39.5941627 19.1986997,39.1227108 18.088823,38.838257 C19.1986997,38.5646317 19.9773373,38.0981775 20.4255567,37.4397275 C20.8737762,36.7812774 21.0978859,35.8042225 21.0978859,34.5085628 L21.0978859,32.0117835 C21.0978859,31.2746193 21.2657629,30.7715152 21.6015171,30.5028876 C21.9376816,30.2342599 22.6149363,30.0997379 23.6328705,30.0997379 L23.6328705,26.0774036 C23.6328705,25.3489855 23.0512524,24.7588376 22.3333625,24.7588376 Z" id="Fill-1" fill="#FFFFFF"></path>
                <path d="M67.5804419,95.4228082 L68.8002843,92.007986 L69.9959104,95.4228082 L67.5804419,95.4228082 Z M74.9072946,98.116829 L70.8845237,88.1627483 L68.3976378,88.1627483 C67.520517,88.1627483 66.7287687,88.6914736 66.3876889,89.5048019 L62.0546217,99.8372517 L65.9891469,99.8372517 L66.5867547,98.1870504 L70.9329562,98.1870504 L71.5145567,99.8372517 L73.7568174,99.8372517 C74.6384531,99.8372517 75.2393445,98.9388317 74.9072946,98.116829 Z M47.5659153,93.5041135 C47.3426332,93.7531927 47.0208444,93.8779388 46.6009592,93.8779388 L45.1951853,93.8779388 L45.1951853,91.097587 L46.6009592,91.097587 C47.0155086,91.097587 47.3360661,91.2169633 47.5622213,91.4553027 C47.787966,91.6936422 47.9016592,92.0298785 47.9016592,92.4631854 C47.9016592,92.9080582 47.7891973,93.2546212 47.5659153,93.5041135 Z M50.3048144,89.2561358 C49.4781783,88.5274861 48.3079997,88.1627483 46.7946892,88.1627483 L42.5810615,88.1627483 C41.9013647,88.1627483 41.3497267,88.7174968 41.3497267,89.4019483 L41.3497267,99.8372517 L43.9638505,99.8372517 C44.6439578,99.8372517 45.1951853,99.2825032 45.1951853,98.5980517 L45.1951853,96.8049293 L46.7946892,96.8049293 C48.3079997,96.8049293 49.4781783,96.4133421 50.3048144,95.6301676 C51.1314505,94.8469932 51.5447685,93.7507143 51.5447685,92.3417438 C51.5447685,91.0137345 51.1314505,89.9851984 50.3048144,89.2561358 Z M13.3335759,91.2599222 C13.7862967,91.2599222 14.253383,91.4024302 14.7352454,91.6870331 C14.8912144,91.778734 15.0393851,91.8807614 15.1801677,91.9931156 C15.6788583,92.3896596 16.4008309,92.3099377 16.8100445,91.8204537 L17.6801878,90.7778734 C17.9789917,90.4205707 17.921119,89.8889539 17.5603379,89.5952635 C17.0932515,89.214416 16.5568,88.8926371 15.9509833,88.6299267 C15.0570342,88.2428832 14.1684209,88.0487419 13.2851434,88.0487419 C12.0841815,88.0487419 11.0059426,88.303604 10.0496059,88.8129152 C9.09367964,89.3226395 8.34666985,90.0269182 7.80816609,90.9269905 C7.26966233,91.8266497 7,92.8427937 7,93.9758356 C7,95.1192042 7.2639161,96.1489794 7.79215874,97.0651613 C8.31958048,97.9809301 9.05058292,98.699253 9.98516606,99.219304 C10.9197492,99.739768 11.9713091,100 13.1398459,100 C14.0284592,100 14.927744,99.7901621 15.8381109,99.3700733 C16.4804572,99.0734914 17.0587742,98.7046229 17.5726512,98.2634677 C17.9244025,97.961516 17.9420517,97.4179202 17.6264195,97.0779663 L16.7451942,96.1295652 C16.3523984,95.7074111 15.7043059,95.6099274 15.2335255,95.9403807 C15.0582655,96.0634746 14.8743862,96.1729372 14.6827084,96.2683557 C14.2033087,96.5071082 13.7538715,96.6260714 13.3335759,96.6260714 C12.8812656,96.6260714 12.4704102,96.5095866 12.1018306,96.2762039 C11.7328406,96.0432343 11.4459396,95.7210423 11.241538,95.3088018 C11.036726,94.8969743 10.9345252,94.4364049 10.9345252,93.9266807 C10.9345252,93.1517676 11.1606804,92.5135796 11.6129907,92.0121166 C12.065301,91.5110667 12.639103,91.2599222 13.3335759,91.2599222 Z M22.8017198,95.4554404 L28.2220557,95.4554404 L28.2220557,92.52845 L22.8017198,92.52845 L22.8017198,91.097587 L27.9507516,91.097587 C28.4042932,91.097587 28.7716414,90.7274793 28.7716414,90.2714537 L28.7716414,88.1627483 L19.777151,88.1627483 C19.3240198,88.1627483 18.9562611,88.5324429 18.9562611,88.9888816 L18.9562611,99.8372517 L28.0960491,99.8372517 C28.5495907,99.8372517 28.916939,99.4675571 28.916939,99.0111184 L28.916939,96.9106743 L22.8017198,96.9106743 L22.8017198,95.4554404 Z M58.9081508,93.5041135 C58.6848687,93.7531927 58.3630799,93.8779388 57.9431947,93.8779388 L56.5374208,93.8779388 L56.5374208,91.097587 L57.9431947,91.097587 C58.3573337,91.097587 58.6783016,91.2169633 58.9040463,91.4553027 C59.1306119,91.6936422 59.2434843,92.0298785 59.2434843,92.4631854 C59.2434843,92.9080582 59.1314328,93.2546212 58.9081508,93.5041135 Z M61.6470499,89.2561358 C60.8200033,88.5274861 59.6502352,88.1627483 58.1365143,88.1627483 L53.923297,88.1627483 C53.2431897,88.1627483 52.6919622,88.7174968 52.6919622,89.4019483 L52.6919622,99.8372517 L55.306086,99.8372517 C55.9857828,99.8372517 56.5374208,99.2825032 56.5374208,98.5980517 L56.5374208,96.8049293 L58.1365143,96.8049293 C59.6502352,96.8049293 60.8200033,96.4133421 61.6470499,95.6301676 C62.473686,94.8469932 62.8865936,93.7507143 62.8865936,92.3417438 C62.8865936,91.0137345 62.473686,89.9851984 61.6470499,89.2561358 Z M38.3083296,93.1463977 C37.761617,92.9134281 37.0683755,92.6858284 36.2281947,92.4631854 C35.5817439,92.2954804 35.1093218,92.1422326 34.8101074,92.0042684 C34.5113035,91.865891 34.3619015,91.6746411 34.3619015,91.4309318 C34.3619015,91.1054353 34.5991387,90.9431001 35.0727922,90.9431001 C35.5468561,90.9431001 36.1674488,91.0814774 36.9349809,91.357819 C37.3072544,91.4916526 37.6655729,91.6353998 38.0107571,91.7886476 C38.6120589,92.0559017 39.3155615,91.7783209 39.599179,91.1810265 L40.2915996,89.722488 C40.3831288,89.5295859 40.3166367,89.2937248 40.1315261,89.1888059 C39.5417167,88.8558742 38.8681765,88.5840763 38.1104952,88.3742384 C37.2107999,88.1247461 36.3090523,88 35.4040212,88 C34.4127967,88 33.5418325,88.1557261 32.7907183,88.4675915 C32.0391936,88.7794568 31.4604663,89.2210251 31.0537153,89.7927094 C30.6469644,90.3648067 30.4437941,91.0327355 30.4437941,91.7969089 C30.4437941,92.5829748 30.6445017,93.2112492 31.0455064,93.6829713 C31.4469216,94.1542804 31.9222168,94.5016695 32.4713921,94.7234863 C33.0209779,94.9457162 33.7047792,95.1572063 34.5236168,95.3575436 C35.1967465,95.5260748 35.6855865,95.6789095 35.9897262,95.8168738 C36.2938659,95.9552511 36.4461409,96.1518708 36.4461409,96.4063199 C36.4461409,96.8078207 36.1366655,97.0081581 35.517304,97.0081581 C34.9246216,97.0081581 34.1882833,96.828061 33.3078789,96.4674538 C32.8966131,96.2989226 32.5169515,96.1167602 32.1697151,95.9205535 C31.5618462,95.5772951 30.7930828,95.8296788 30.482376,96.4575402 L29.8318207,97.7748098 C29.7423437,97.9561461 29.7928285,98.1808544 29.9578273,98.296513 C30.6600986,98.7884754 31.4699065,99.1771712 32.3868405,99.4634264 C33.4289602,99.7885099 34.4616397,99.9512581 35.4848789,99.9512581 C36.3894995,99.9512581 37.2124417,99.8157723 37.9528843,99.5448005 C38.693327,99.2738288 39.2802633,98.8591098 39.7136931,98.3006437 C40.147123,97.7425906 40.3642484,97.0461602 40.3642484,96.2113524 C40.3642484,95.3876975 40.158205,94.7292692 39.7461183,94.2356545 C39.334442,93.7424529 38.8550423,93.3793673 38.3083296,93.1463977 Z" id="CESPPA" fill="#CCCCCC"></path>
            </g>
        </g>
    </g>
</svg>