<svg xmlns="http://www.w3.org/2000/svg" xmlns:xlink="http://www.w3.org/1999/xlink" viewBox="0 0 80 80"><defs><style>.a{fill:url(#a);}</style><linearGradient id="a" x1="0.5" x2="0.5" y2="1" gradientUnits="objectBoundingBox"><stop offset="0" stop-color="#9745ff"/><stop offset="1" stop-color="#3e20b3"/></linearGradient></defs><path class="a" d="M40,80a17.986,17.986,0,0,1-6.91-1.377,112.262,112.262,0,0,1-19.136-9.977C4.565,62.3,0,55.847,0,48.93V27.4C0,21.77,3.181,16.266,9.454,11.046a47.758,47.758,0,0,1,61.091,0C76.819,16.266,80,21.769,80,27.4V48.93c0,6.916-4.564,13.365-13.954,19.715A112.151,112.151,0,0,1,46.91,78.623,17.991,17.991,0,0,1,40,80ZM40,3.18a44.784,44.784,0,0,0-28.557,10.3c-5.51,4.575-8.3,9.236-8.3,13.855v21.5c0,11.412,16.937,20.808,31.144,26.681a14.935,14.935,0,0,0,11.43,0c14.208-5.873,31.145-15.27,31.145-26.681v-21.5c0-4.619-2.793-9.281-8.3-13.855A44.787,44.787,0,0,0,40,3.18Zm.165,70.46a11.772,11.772,0,0,1-4.519-.9A106.234,106.234,0,0,1,17.6,63.373C10.2,58.379,6.447,53.547,6.447,49.009V27.494c0-3.617,2.406-7.447,7.15-11.386a41.595,41.595,0,0,1,53.136,0c4.745,3.939,7.151,7.77,7.151,11.386V49.009c0,4.537-3.753,9.37-11.153,14.364a106.259,106.259,0,0,1-18.046,9.369A11.777,11.777,0,0,1,40.165,73.64ZM56.7,46.978h-.006v3.945a1.283,1.283,0,0,0,1.269,1.294H59.38a10.84,10.84,0,0,0,3.537-.458,3.172,3.172,0,0,0,1.821-1.51,6.3,6.3,0,0,0,.552-2.883V42.191a1.308,1.308,0,0,1,.21-.845.939.939,0,0,1,.731-.239H67.6V35.714H66.23a.936.936,0,0,1-.731-.24,1.308,1.308,0,0,1-.21-.845V29.468a6.282,6.282,0,0,0-.552-2.889,3.213,3.213,0,0,0-1.821-1.511A10.7,10.7,0,0,0,59.38,24.6H57.964A1.283,1.283,0,0,0,56.695,25.9V29.84a3.434,3.434,0,0,1,1.985.4,1.83,1.83,0,0,1,.492,1.48v2.449a5.18,5.18,0,0,0,.657,2.875,3.712,3.712,0,0,0,2.283,1.372A3.766,3.766,0,0,0,59.828,39.8a5.176,5.176,0,0,0-.657,2.875V45.1a1.844,1.844,0,0,1-.485,1.48,3.407,3.407,0,0,1-1.979.393ZM40.672,24.6a14.906,14.906,0,0,0-7.262,1.726,12.206,12.206,0,0,0-4.891,4.884,14.85,14.85,0,0,0-1.742,7.27,14.47,14.47,0,0,0,1.742,7.173,12.37,12.37,0,0,0,4.854,4.836,14.6,14.6,0,0,0,7.178,1.726,15.87,15.87,0,0,0,7.371-1.628,11.273,11.273,0,0,0,4.344-3.905A.824.824,0,0,0,52,45.532L48.023,43.18a1.957,1.957,0,0,0-1-.274,2.115,2.115,0,0,0-1.521.67,5.931,5.931,0,0,1-4.5,1.738,4.986,4.986,0,0,1-4.067-1.885,7.74,7.74,0,0,1-1.525-4.994A7.482,7.482,0,0,1,36.98,33.5a5.026,5.026,0,0,1,4.03-1.873h.058a6.157,6.157,0,0,1,4.4,1.69,1.9,1.9,0,0,0,1.322.522,2.024,2.024,0,0,0,1.058-.3l3.99-2.43a.828.828,0,0,0,.374-.534.814.814,0,0,0-.129-.638,11.788,11.788,0,0,0-4.367-3.759A15.349,15.349,0,0,0,40.672,24.6ZM12.562,35.714v5.393h1.373a.939.939,0,0,1,.731.239,1.31,1.31,0,0,1,.209.845v5.176a6.3,6.3,0,0,0,.553,2.883,3.169,3.169,0,0,0,1.82,1.51,10.859,10.859,0,0,0,3.538.458H22.2a1.284,1.284,0,0,0,1.27-1.294V46.979a3.439,3.439,0,0,1-1.992-.394,1.844,1.844,0,0,1-.485-1.48V42.672a5.167,5.167,0,0,0-.657-2.875,3.764,3.764,0,0,0-2.283-1.387,3.707,3.707,0,0,0,2.283-1.372,5.172,5.172,0,0,0,.657-2.875V31.715a1.827,1.827,0,0,1,.492-1.48,3.408,3.408,0,0,1,1.973-.394h.012V25.9A1.283,1.283,0,0,0,22.2,24.6H20.785a10.7,10.7,0,0,0-3.538.465,3.212,3.212,0,0,0-1.82,1.511,6.28,6.28,0,0,0-.553,2.889v5.161a1.31,1.31,0,0,1-.209.845.936.936,0,0,1-.731.24Z"/></svg>