<?xml version="1.0" encoding="UTF-8"?>
<svg width="675px" height="197px" viewBox="0 0 675 197" version="1.1" xmlns="http://www.w3.org/2000/svg" xmlns:xlink="http://www.w3.org/1999/xlink">
    <!-- Generator: Sketch 50.2 (55047) - http://www.bohemiancoding.com/sketch -->
    <title>Logo Group</title>
    <desc>Created with Sketch.</desc>
    <defs></defs>
    <g id="Page-1" stroke="none" stroke-width="1" fill="none" fill-rule="evenodd">
        <g id="Artboard-1-Copy" transform="translate(-54.000000, -188.000000)">
            <g id="Logo-Group" transform="translate(54.000000, 188.000000)">
                <g id="Logo">
                    <path d="M99.5005014,197 C93.5789269,197 87.7957398,195.859062 82.3113892,193.609381 C69.4684418,188.342351 50.7841446,179.803424 34.7111564,169.040975 C11.3537792,153.402876 0,137.522303 0,120.491737 L0,67.4793567 C0,53.608002 7.91314886,40.0555868 23.5188291,27.1994055 C44.8104242,9.65974301 71.7949537,0 99.5005014,0 C127.206049,0 154.190579,9.65974301 175.482174,27.1994055 C191.087854,40.0565929 199,53.608002 199,67.4783506 L199,120.491737 C199,137.522303 187.646221,153.402876 164.289846,169.040975 C148.216858,179.803424 129.531558,188.342351 116.688611,193.609381 C111.20426,195.859062 105.422076,197 99.5005014,197" id="Fill-1" fill="#1E3672"></path>
                    <path d="M163.488121,87.263008 C163.138696,86.8690097 162.96348,86.1764974 162.96348,85.184466 L162.96348,72.4850568 C162.96348,69.4607179 162.502279,67.0896925 161.577864,65.3739907 C160.654455,63.6572839 159.129874,62.4179985 157.006135,61.6551293 C154.882396,60.8922602 151.922856,60.5113282 148.124494,60.5113282 L144.568817,60.5113282 C142.808601,60.5113282 141.380691,61.9355516 141.380691,63.6934674 L141.380691,73.4007008 C143.878023,73.4007008 145.539554,73.7253473 146.364278,74.3736353 C147.187995,75.0219233 147.60086,76.2360813 147.60086,78.0151042 L147.60086,84.0406648 C147.60086,87.1675237 148.150676,89.5254828 149.249301,91.1145423 C150.348933,92.7036017 152.260197,93.8293111 154.983095,94.4896603 C152.260197,95.176142 150.348933,96.3139126 149.249301,97.902972 C148.150676,99.4920314 147.60086,101.849991 147.60086,104.976849 L147.60086,110.964216 C147.60086,112.744244 147.195044,113.958402 146.383411,114.60669 C145.570771,115.254978 143.904205,115.57862 141.380691,115.57862 L141.380691,125.285853 C141.380691,127.043769 142.808601,128.468997 144.568817,128.468997 L148.124494,128.468997 C151.922856,128.468997 154.882396,128.093091 157.006135,127.343288 C159.129874,126.593485 160.654455,125.353195 161.577864,123.625432 C162.502279,121.895659 162.96348,119.530664 162.96348,116.532457 L162.96348,103.794855 C162.96348,102.802823 163.138696,102.110311 163.488121,101.716313 C163.838553,101.322314 164.450803,101.125315 165.324869,101.125315 L168.771791,101.125315 L168.771791,87.8540054 L165.324869,87.8540054 C164.450803,87.8540054 163.838553,87.6580114 163.488121,87.263008 Z M184.085069,120.47043 C184.085069,146.219022 134.189785,169.536283 111.270721,178.888717 C104.042556,181.837674 95.9574438,181.837674 88.7302857,178.888717 C65.8102155,169.536283 15.9149313,146.219022 15.9149313,120.47043 L15.9149313,67.5108284 C15.9149313,57.587499 23.3253613,48.0249997 33.7466876,39.4836797 C72.1159788,8.03919881 127.885028,8.03919881 166.253312,39.4836797 C176.674639,48.0249997 184.085069,57.587499 184.085069,67.5108284 L184.085069,120.47043 Z M171.275165,33.3787164 C151.306579,17.0127109 125.993903,8 100.000503,8 C74.0060967,8 48.6924142,17.0127109 28.7238279,33.3787164 C14.9723899,44.6488766 8,56.1321176 8,67.5108284 L8,120.47043 C8,148.581002 50.2723795,171.731417 85.7344943,186.200803 C90.2870903,188.059229 95.0863985,189 100.000503,189 C104.913601,189 109.713917,188.059229 114.264499,186.200803 C149.726614,171.731417 192,148.582007 192,120.47043 L192,67.5098233 C192,56.1321176 185.02761,44.6488766 171.275165,33.3787164 Z M129.67344,112.013538 L119.759636,106.222165 C117.69833,105.018058 115.131516,105.476383 113.477034,107.196105 C110.730975,110.050583 106.991019,111.477821 102.255151,111.477821 C98.0268056,111.477821 94.6433235,109.929971 92.1057119,106.83427 C89.5691073,103.737564 88.2992946,99.6377706 88.2992946,94.5318744 C88.2992946,89.506386 89.59831,85.4558423 92.1963409,82.3802434 C94.7943718,79.3056496 98.1466373,77.7678502 102.255151,77.7678502 C106.686909,77.7366922 110.394641,79.123727 113.379356,81.9309648 C114.983489,83.4396164 117.433492,83.6175187 119.321596,82.4827634 L129.277694,76.4964016 C130.27864,75.8943481 130.566639,74.5635988 129.891957,73.6107662 C127.112668,69.6939006 123.480459,66.6062405 118.992311,64.3497962 C113.834515,61.7566442 107.975854,60.4600682 101.411295,60.4600682 C94.5627644,60.4600682 88.5208321,61.8772559 83.2854977,64.7116314 C78.0481494,67.5460068 73.9809219,71.5563466 71.0807944,76.7426506 C68.1806669,81.9279495 66.7316101,87.8982297 66.7316101,94.6524861 C66.7316101,101.326335 68.1806669,107.216207 71.0807944,112.321098 C73.9809219,117.426994 78.0189467,121.39713 83.1948687,124.231506 C88.3697838,127.065881 94.3412269,128.483069 101.109198,128.483069 C108.156105,128.483069 114.289673,127.147294 119.505875,124.472729 C124.067534,122.134872 127.679602,118.92861 130.348123,114.853944 C130.978498,113.892066 130.666331,112.594485 129.67344,112.013538 Z M55.4311827,60.5113282 L51.8755055,60.5113282 C48.0781511,60.5113282 45.1176042,60.8922602 42.993865,61.6551293 C40.8701258,62.4179985 39.3465519,63.6572839 38.4231432,65.3739907 C37.4977206,67.0896925 37.0365198,69.4607179 37.0365198,72.4850568 L37.0365198,85.184466 C37.0365198,86.1764974 36.8613037,86.8690097 36.5118786,87.263008 C36.1614466,87.6580114 35.5502044,87.8540054 34.6761382,87.8540054 L31.2282088,87.8540054 L31.2282088,101.125315 L34.6761382,101.125315 C35.5502044,101.125315 36.1614466,101.322314 36.5118786,101.716313 C36.8613037,102.110311 37.0365198,102.802823 37.0365198,103.794855 L37.0365198,116.532457 C37.0365198,119.530664 37.4977206,121.895659 38.4231432,123.625432 C39.3465519,125.353195 40.8701258,126.593485 42.993865,127.343288 C45.1176042,128.093091 48.0781511,128.468997 51.8755055,128.468997 L55.4311827,128.468997 C57.192406,128.468997 58.619309,127.043769 58.619309,125.285853 L58.619309,115.57862 C56.0968023,115.57862 54.4292289,115.254978 53.617596,114.60669 C52.8049561,113.958402 52.4001467,112.744244 52.4001467,110.964216 L52.4001467,104.976849 C52.4001467,101.849991 51.8503308,99.4920314 50.7506991,97.902972 C49.6510675,96.3139126 47.7408099,95.176142 45.0179124,94.4896603 C47.7408099,93.8293111 49.6510675,92.7036017 50.7506991,91.1145423 C51.8503308,89.5254828 52.4001467,87.1675237 52.4001467,84.0406648 L52.4001467,78.0151042 C52.4001467,76.2360813 52.8120051,75.0219233 53.6357218,74.3736353 C54.4604456,73.7253473 56.121977,73.4007008 58.619309,73.4007008 L58.619309,63.6934674 C58.619309,61.9355516 57.192406,60.5113282 55.4311827,60.5113282 Z" id="Fill-1" fill="#FFFFFF"></path>
                </g>
                <path d="M625.899983,106.935507 L633.97247,84.4808494 L641.884701,106.935507 L625.899983,106.935507 Z M674.386508,124.650432 L647.76523,59.1959321 L631.307897,59.1959321 C625.503421,59.1959321 620.26391,62.6726422 618.006765,68.0208001 L589.332055,135.963321 L615.369355,135.963321 L619.324112,125.112182 L648.08574,125.112182 L651.934566,135.963321 L666.773056,135.963321 C672.607411,135.963321 676.583898,130.05563 674.386508,124.650432 Z M493.45091,94.3188525 C491.973308,95.9567089 489.843823,96.7769952 487.065171,96.7769952 L477.762256,96.7769952 L477.762256,78.4943893 L487.065171,78.4943893 C489.808513,78.4943893 491.929849,79.2793652 493.426464,80.8466009 C494.920363,82.4138367 495.672745,84.624807 495.672745,87.4740795 C495.672745,90.3994051 494.928512,92.6782799 493.45091,94.3188525 Z M511.575977,66.3856599 C506.105591,61.5943188 498.361763,59.1959321 488.347208,59.1959321 L460.462907,59.1959321 C455.964913,59.1959321 452.314368,62.8437615 452.314368,67.3444714 L452.314368,135.963321 L469.613716,135.963321 C474.114426,135.963321 477.762256,132.315491 477.762256,127.814781 L477.762256,116.023845 L488.347208,116.023845 C498.361763,116.023845 506.105591,113.448907 511.575977,108.29903 C517.046364,103.149153 519.781557,95.9404118 519.781557,86.6755227 C519.781557,77.9430048 517.046364,71.1797172 511.575977,66.3856599 Z M266.91337,79.5618479 C269.909316,79.5618479 273.000329,80.4989299 276.189124,82.3703778 C277.221272,82.9733697 278.201813,83.6442661 279.133463,84.383067 C282.433621,86.9905995 287.211381,86.4663768 289.919412,83.2477038 L295.677713,76.3920661 C297.655092,74.0425706 297.272111,70.5468473 294.884589,68.6156435 C291.793576,66.1113258 288.243529,63.9954217 284.234448,62.2679314 C278.318609,59.722871 272.438079,58.4462665 266.592861,58.4462665 C258.645319,58.4462665 251.509914,60.1221494 245.181216,63.471199 C238.855233,66.8229649 233.911786,71.4540513 230.348158,77.372607 C226.78453,83.2884465 225,89.9702487 225,97.4207298 C225,104.939115 226.746504,111.710551 230.242227,117.735038 C233.732518,123.756809 238.570034,128.480245 244.754775,131.899916 C250.939517,135.322302 257.898369,137.033495 265.631333,137.033495 C271.511862,137.033495 277.463012,135.653676 283.487499,132.891321 C287.73832,130.941104 291.565417,128.515556 294.966074,125.614676 C297.29384,123.629148 297.410636,120.054656 295.321894,117.81924 L289.490256,111.582891 C286.890872,108.806955 282.602024,108.165937 279.486566,110.338881 C278.326757,111.148302 277.109909,111.86809 275.841453,112.495527 C272.668955,114.065479 269.694738,114.847739 266.91337,114.847739 C263.92014,114.847739 261.201244,114.081776 258.762114,112.547135 C256.320269,111.015209 254.421659,108.896589 253.069002,106.185842 C251.713628,103.477811 251.037299,100.44927 251.037299,97.0975044 C251.037299,92.0019512 252.533914,87.8054535 255.527144,84.5080112 C258.520374,81.2132852 262.317594,79.5618479 266.91337,79.5618479 Z M329.570204,107.150086 L365.440074,107.150086 L365.440074,87.9032359 L329.570204,87.9032359 L329.570204,78.4943893 L363.644679,78.4943893 C366.646058,78.4943893 369.077039,76.0606922 369.077039,73.0620298 L369.077039,59.1959321 L309.554676,59.1959321 C306.556013,59.1959321 304.122316,61.626913 304.122316,64.6282916 L304.122316,135.963321 L364.606207,135.963321 C367.607586,135.963321 370.038567,133.53234 370.038567,130.530961 L370.038567,116.719187 L329.570204,116.719187 L329.570204,107.150086 Z M568.509821,94.3188525 C567.03222,95.9567089 564.902735,96.7769952 562.124083,96.7769952 L552.821167,96.7769952 L552.821167,78.4943893 L562.124083,78.4943893 C564.864708,78.4943893 566.988761,79.2793652 568.48266,80.8466009 C569.981991,82.4138367 570.72894,84.624807 570.72894,87.4740795 C570.72894,90.3994051 569.987423,92.6782799 568.509821,94.3188525 Z M586.634889,66.3856599 C581.161787,61.5943188 573.420674,59.1959321 563.403403,59.1959321 L535.521818,59.1959321 C531.021108,59.1959321 527.373279,62.8437615 527.373279,67.3444714 L527.373279,135.963321 L544.672628,135.963321 C549.170621,135.963321 552.821167,132.315491 552.821167,127.814781 L552.821167,116.023845 L563.403403,116.023845 C573.420674,116.023845 581.161787,113.448907 586.634889,108.29903 C592.105275,103.149153 594.837752,95.9404118 594.837752,86.6755227 C594.837752,77.9430048 592.105275,71.1797172 586.634889,66.3856599 Z M432.187476,91.9666409 C428.569524,90.4347155 423.981897,88.9381004 418.421877,87.4740795 C414.143893,86.3713106 411.017571,85.3636079 409.037476,84.4564038 C407.060097,83.5464836 406.071407,82.2888924 406.071407,80.6863463 C406.071407,78.5459967 407.641359,77.478538 410.775831,77.478538 C413.913018,77.478538 418.019882,78.3884583 423.099138,80.2055825 C425.562713,81.0856248 427.933938,82.0308553 430.218245,83.038558 C434.197449,84.7959263 438.852981,82.9706535 440.729861,79.0430576 L445.312056,69.4522269 C445.917764,68.1837709 445.477743,66.6328323 444.252746,65.9429226 C440.349596,63.7536817 435.892345,61.9664355 430.878277,60.5866161 C424.924411,58.9460436 418.956964,58.1257573 412.967788,58.1257573 C406.408214,58.1257573 400.64448,59.149757 395.673871,61.2004728 C390.700546,63.2511885 386.870733,66.1547846 384.178998,69.9139774 C381.487264,73.6758864 380.142755,78.067949 380.142755,83.0928816 C380.142755,88.2617717 381.470967,92.3930811 384.124675,95.4949584 C386.781099,98.5941195 389.926435,100.878427 393.560683,102.337015 C397.197648,103.79832 401.722803,105.189004 407.141582,106.506351 C411.596117,107.614552 414.831087,108.619539 416.843776,109.526743 C418.856465,110.436663 419.864168,111.729565 419.864168,113.402731 C419.864168,116.042858 417.816169,117.360205 413.717453,117.360205 C409.79529,117.360205 404.922463,116.175951 399.096258,113.804726 C396.374646,112.696525 393.862179,111.498689 391.564291,110.208504 C387.541629,107.951359 382.454224,109.610945 380.398076,113.739538 L376.092931,122.401435 C375.500804,123.593838 375.834894,125.07144 376.926798,125.83197 C381.574182,129.06694 386.933205,131.622865 393.00115,133.505178 C399.897531,135.642811 406.731439,136.712986 413.502875,136.712986 C419.489335,136.712986 424.935276,135.822079 429.835264,134.040265 C434.735252,132.258451 438.619389,129.531407 441.487675,125.859132 C444.355961,122.189573 445.79282,117.610094 445.79282,112.120695 C445.79282,106.704632 444.429298,102.375042 441.702253,99.1292069 C438.977925,95.8860882 435.805427,93.4985662 432.187476,91.9666409 Z" id="CESPPA" fill="#1E3672"></path>
            </g>
        </g>
    </g>
</svg>