<svg xmlns="http://www.w3.org/2000/svg" viewBox="0 0 82 100"><defs><style>.a{fill:#f15555;}.b{fill:#fff;}</style></defs><path class="a" d="M41,81a18.609,18.609,0,0,1-7.083-1.394A115.554,115.554,0,0,1,14.3,69.5C4.678,63.074,0,56.545,0,49.542v-21.8c0-5.7,3.261-11.276,9.691-16.562a49.418,49.418,0,0,1,62.618,0C78.74,16.47,82,22.042,82,27.745v21.8c0,7-4.678,13.532-14.3,19.962a115.556,115.556,0,0,1-19.615,10.1A18.607,18.607,0,0,1,41,81"/><path class="b" d="M37.5,75a15.094,15.094,0,0,1-5.815-1.159C17.231,67.845,0,58.252,0,46.6V24.659c0-4.715,2.842-9.473,8.447-14.144a45.391,45.391,0,0,1,58.1,0C72.158,15.185,75,19.943,75,24.659V46.6C75,58.252,57.769,67.845,43.314,73.84A15.085,15.085,0,0,1,37.5,75Zm0-71.726a42.115,42.115,0,0,0-27.005,9.772c-4.823,4.018-7.268,7.926-7.268,11.614V46.6c0,4.628,3.814,9.557,11.336,14.651A107.936,107.936,0,0,0,32.907,70.81a11.963,11.963,0,0,0,9.187,0,107.919,107.919,0,0,0,18.344-9.555C67.96,56.161,71.774,51.232,71.774,46.6V24.659c0-3.687-2.445-7.594-7.268-11.614A42.115,42.115,0,0,0,37.5,3.273Zm.452,46.651a14.816,14.816,0,0,1-7.3-1.761,12.594,12.594,0,0,1-4.938-4.936,14.828,14.828,0,0,1-1.773-7.321,15.22,15.22,0,0,1,1.773-7.421A12.457,12.457,0,0,1,30.687,23.5a15.136,15.136,0,0,1,7.388-1.761,15.6,15.6,0,0,1,7.166,1.612,12,12,0,0,1,4.443,3.838.843.843,0,0,1-.251,1.2l-4.058,2.48a2.066,2.066,0,0,1-1.076.3,1.937,1.937,0,0,1-1.346-.533,6.255,6.255,0,0,0-4.477-1.725h-.058a5.108,5.108,0,0,0-4.1,1.912,7.659,7.659,0,0,0-1.589,5.036,7.92,7.92,0,0,0,1.552,5.1,5.068,5.068,0,0,0,4.137,1.924A6.017,6.017,0,0,0,42.993,41.1a2.15,2.15,0,0,1,1.547-.682,1.989,1.989,0,0,1,1.014.279L49.6,43.1a.844.844,0,0,1,.274,1.177,11.48,11.48,0,0,1-4.419,3.986A16.089,16.089,0,0,1,37.952,49.924Zm19.164-.005H55.667a1.311,1.311,0,0,1-1.3-1.319V44.577h.013a3.493,3.493,0,0,0,2.027-.4,1.877,1.877,0,0,0,.5-1.509v-2.48a5.25,5.25,0,0,1,.672-2.931,3.849,3.849,0,0,1,2.336-1.415,3.794,3.794,0,0,1-2.336-1.4,5.248,5.248,0,0,1-.672-2.93v-2.5a1.858,1.858,0,0,0-.5-1.508,3.524,3.524,0,0,0-2.031-.4V23.078a1.311,1.311,0,0,1,1.3-1.319h1.449a10.978,10.978,0,0,1,3.621.474A3.283,3.283,0,0,1,62.6,23.774a6.376,6.376,0,0,1,.565,2.947v5.262a1.333,1.333,0,0,0,.213.861.963.963,0,0,0,.749.245h1.4v5.5h-1.4a.966.966,0,0,0-.749.245,1.336,1.336,0,0,0-.213.861v5.279a6.392,6.392,0,0,1-.565,2.939,3.244,3.244,0,0,1-1.863,1.54A11.2,11.2,0,0,1,57.116,49.919Zm-37.782,0h-1.45a11.17,11.17,0,0,1-3.62-.467,3.247,3.247,0,0,1-1.863-1.54,6.394,6.394,0,0,1-.565-2.939V39.694a1.334,1.334,0,0,0-.214-.861.962.962,0,0,0-.748-.245H9.468v-5.5h1.406a.96.96,0,0,0,.748-.245,1.331,1.331,0,0,0,.214-.861V26.72a6.377,6.377,0,0,1,.565-2.947,3.285,3.285,0,0,1,1.863-1.541,11,11,0,0,1,3.62-.474h1.45a1.311,1.311,0,0,1,1.3,1.319V27.1H20.62a3.5,3.5,0,0,0-2.019.4,1.859,1.859,0,0,0-.5,1.508v2.5a5.248,5.248,0,0,1-.672,2.93,3.8,3.8,0,0,1-2.337,1.4,3.858,3.858,0,0,1,2.337,1.415,5.25,5.25,0,0,1,.672,2.931v2.48a1.876,1.876,0,0,0,.5,1.509,3.52,3.52,0,0,0,2.038.4V48.6A1.311,1.311,0,0,1,19.334,49.919Z" transform="translate(3 3)"/><path class="a" d="M6.14,12a6.418,6.418,0,0,1-3.154-.78A5.675,5.675,0,0,1,.792,9.065,6.1,6.1,0,0,1,0,5.976,5.849,5.849,0,0,1,.808,2.927,5.682,5.682,0,0,1,3.049.813,6.825,6.825,0,0,1,6.285.049,6.682,6.682,0,0,1,8.951.63a6.772,6.772,0,0,1,1.609.966.84.84,0,0,1,.308.573.819.819,0,0,1-.188.609L9.81,3.821a1.18,1.18,0,0,1-.907.425,1.153,1.153,0,0,1-.723-.252,3.873,3.873,0,0,0-.445-.306,2.767,2.767,0,0,0-1.4-.428,2.223,2.223,0,0,0-1.72.752,2.761,2.761,0,0,0-.679,1.914,3.1,3.1,0,0,0,.307,1.382,2.369,2.369,0,0,0,.86.968,2.267,2.267,0,0,0,1.231.35,3.055,3.055,0,0,0,1.349-.358,4.239,4.239,0,0,0,.551-.328,1.094,1.094,0,0,1,.633-.2,1.207,1.207,0,0,1,.879.387l.881.949a.844.844,0,0,1,.223.618.8.8,0,0,1-.277.567A7.475,7.475,0,0,1,8.838,11.37,6.453,6.453,0,0,1,6.14,12Zm22.345-.049a10.415,10.415,0,0,1-3.1-.488A8.788,8.788,0,0,1,22.958,10.3a.414.414,0,0,1-.126-.522l.651-1.318a1.242,1.242,0,0,1,1.1-.691,1.189,1.189,0,0,1,.584.154,10.116,10.116,0,0,0,1.138.546,6.106,6.106,0,0,0,2.21.541c.616,0,.929-.2.929-.6a.651.651,0,0,0-.456-.589,9.468,9.468,0,0,0-1.466-.459,15.429,15.429,0,0,1-2.052-.634,3.669,3.669,0,0,1-1.427-1.041,2.828,2.828,0,0,1-.6-1.886,3.385,3.385,0,0,1,.609-2A3.915,3.915,0,0,1,25.79.468,6.8,6.8,0,0,1,28.4,0,10.135,10.135,0,0,1,31.11.374a9.013,9.013,0,0,1,2.021.814.411.411,0,0,1,.16.534L32.6,3.181a1.238,1.238,0,0,1-1.11.71,1.173,1.173,0,0,1-.479-.1c-.337-.151-.7-.3-1.076-.431a5.855,5.855,0,0,0-1.862-.415c-.472,0-.711.164-.711.488A.642.642,0,0,0,27.81,4a9.182,9.182,0,0,0,1.418.459,15.641,15.641,0,0,1,2.08.683,3.834,3.834,0,0,1,1.438,1.09,3,3,0,0,1,.617,1.976,3.32,3.32,0,0,1-.65,2.089,3.861,3.861,0,0,1-1.761,1.245A7.174,7.174,0,0,1,28.485,11.951Zm30.5-.113H55.055L59.387,1.5A2.178,2.178,0,0,1,61.4.163h2.487l4.023,9.954a1.256,1.256,0,0,1-.124,1.174,1.223,1.223,0,0,1-1.027.547H64.515l-.581-1.651H59.587l-.6,1.651ZM61.8,4.008,60.581,7.423H63Zm-13.495,7.83H45.692V1.4A1.237,1.237,0,0,1,46.923.163h4.213a5.163,5.163,0,0,1,3.511,1.093,3.913,3.913,0,0,1,1.239,3.085A4.331,4.331,0,0,1,54.647,7.63,4.931,4.931,0,0,1,51.136,8.8h-1.6V10.6A1.237,1.237,0,0,1,48.306,11.838ZM49.538,3.1v2.78h1.406a1.235,1.235,0,0,0,.965-.373,1.517,1.517,0,0,0,.335-1.041A1.412,1.412,0,0,0,51.9,3.455a1.267,1.267,0,0,0-.96-.357H49.538Zm-12.574,8.74H34.349V1.4A1.237,1.237,0,0,1,35.582.163h4.213A5.159,5.159,0,0,1,43.3,1.256a3.913,3.913,0,0,1,1.24,3.085A4.331,4.331,0,0,1,43.3,7.63,4.926,4.926,0,0,1,39.794,8.8H38.2V10.6A1.237,1.237,0,0,1,36.964,11.838ZM38.2,3.1v2.78H39.6a1.235,1.235,0,0,0,.965-.373A1.51,1.51,0,0,0,40.9,4.463a1.415,1.415,0,0,0-.339-1.008A1.268,1.268,0,0,0,39.6,3.1Zm-17.1,8.74h-9.14V.989a.824.824,0,0,1,.821-.826h8.995V2.272a.824.824,0,0,1-.821.826H15.8V4.529h5.421V7.456H15.8V8.911h6.115v2.1A.824.824,0,0,1,21.1,11.838Z" transform="translate(7 88)"/></svg>