<svg xmlns="http://www.w3.org/2000/svg" xmlns:xlink="http://www.w3.org/1999/xlink" viewBox="0 0 80 100"><defs><style>.a{fill:#3f21b4;}.b{fill:url(#a);}</style><linearGradient id="a" x1="0.5" x2="0.5" y2="1" gradientUnits="objectBoundingBox"><stop offset="0" stop-color="#9745ff"/><stop offset="1" stop-color="#3e20b3"/></linearGradient></defs><path class="a" d="M6.14,12a6.418,6.418,0,0,1-3.154-.78A5.675,5.675,0,0,1,.792,9.065,6.1,6.1,0,0,1,0,5.976,5.849,5.849,0,0,1,.808,2.927,5.682,5.682,0,0,1,3.049.813,6.825,6.825,0,0,1,6.285.049,6.682,6.682,0,0,1,8.951.63a6.772,6.772,0,0,1,1.609.966.84.84,0,0,1,.308.573.819.819,0,0,1-.188.609L9.81,3.821a1.18,1.18,0,0,1-.907.425,1.153,1.153,0,0,1-.723-.252,3.873,3.873,0,0,0-.445-.306,2.767,2.767,0,0,0-1.4-.428,2.223,2.223,0,0,0-1.72.752,2.761,2.761,0,0,0-.679,1.914,3.1,3.1,0,0,0,.307,1.382,2.369,2.369,0,0,0,.86.968,2.267,2.267,0,0,0,1.231.35,3.055,3.055,0,0,0,1.349-.358,4.239,4.239,0,0,0,.551-.328,1.094,1.094,0,0,1,.633-.2,1.207,1.207,0,0,1,.879.387l.881.949a.844.844,0,0,1,.223.618.8.8,0,0,1-.277.567A7.475,7.475,0,0,1,8.838,11.37,6.453,6.453,0,0,1,6.14,12Zm22.345-.049a10.415,10.415,0,0,1-3.1-.488A8.788,8.788,0,0,1,22.958,10.3a.414.414,0,0,1-.126-.522l.651-1.318a1.242,1.242,0,0,1,1.1-.691,1.189,1.189,0,0,1,.584.154,10.116,10.116,0,0,0,1.138.546,6.106,6.106,0,0,0,2.21.541c.616,0,.929-.2.929-.6a.651.651,0,0,0-.456-.589,9.468,9.468,0,0,0-1.466-.459,15.429,15.429,0,0,1-2.052-.634,3.669,3.669,0,0,1-1.427-1.041,2.828,2.828,0,0,1-.6-1.886,3.385,3.385,0,0,1,.609-2A3.915,3.915,0,0,1,25.79.468,6.8,6.8,0,0,1,28.4,0,10.135,10.135,0,0,1,31.11.374a9.013,9.013,0,0,1,2.021.814.411.411,0,0,1,.16.534L32.6,3.181a1.238,1.238,0,0,1-1.11.71,1.173,1.173,0,0,1-.479-.1c-.337-.151-.7-.3-1.076-.431a5.855,5.855,0,0,0-1.862-.415c-.472,0-.711.164-.711.488A.642.642,0,0,0,27.81,4a9.182,9.182,0,0,0,1.418.459,15.641,15.641,0,0,1,2.08.683,3.834,3.834,0,0,1,1.438,1.09,3,3,0,0,1,.617,1.976,3.32,3.32,0,0,1-.65,2.089,3.861,3.861,0,0,1-1.761,1.245A7.174,7.174,0,0,1,28.485,11.951Zm30.5-.113H55.055L59.387,1.5A2.178,2.178,0,0,1,61.4.163h2.487l4.023,9.954a1.256,1.256,0,0,1-.124,1.174,1.223,1.223,0,0,1-1.027.547H64.515l-.581-1.651H59.587l-.6,1.651ZM61.8,4.008,60.581,7.423H63Zm-13.495,7.83H45.692V1.4A1.237,1.237,0,0,1,46.923.163h4.213a5.163,5.163,0,0,1,3.511,1.093,3.913,3.913,0,0,1,1.239,3.085A4.331,4.331,0,0,1,54.647,7.63,4.931,4.931,0,0,1,51.136,8.8h-1.6V10.6A1.237,1.237,0,0,1,48.306,11.838ZM49.538,3.1v2.78h1.406a1.235,1.235,0,0,0,.965-.373,1.517,1.517,0,0,0,.335-1.041A1.412,1.412,0,0,0,51.9,3.455a1.267,1.267,0,0,0-.96-.357H49.538Zm-12.574,8.74H34.349V1.4A1.237,1.237,0,0,1,35.582.163h4.213A5.159,5.159,0,0,1,43.3,1.256a3.913,3.913,0,0,1,1.24,3.085A4.331,4.331,0,0,1,43.3,7.63,4.926,4.926,0,0,1,39.794,8.8H38.2V10.6A1.237,1.237,0,0,1,36.964,11.838ZM38.2,3.1v2.78H39.6a1.235,1.235,0,0,0,.965-.373A1.51,1.51,0,0,0,40.9,4.463a1.415,1.415,0,0,0-.339-1.008A1.268,1.268,0,0,0,39.6,3.1Zm-17.1,8.74h-9.14V.989a.824.824,0,0,1,.821-.826h8.995V2.272a.824.824,0,0,1-.821.826H15.8V4.529h5.421V7.456H15.8V8.911h6.115v2.1A.824.824,0,0,1,21.1,11.838Z" transform="translate(6 88)"/><path class="b" d="M40,80a17.986,17.986,0,0,1-6.91-1.377,112.262,112.262,0,0,1-19.136-9.977C4.565,62.3,0,55.847,0,48.93V27.4C0,21.77,3.181,16.266,9.454,11.046a47.758,47.758,0,0,1,61.091,0C76.819,16.266,80,21.769,80,27.4V48.93c0,6.916-4.564,13.365-13.954,19.715A112.151,112.151,0,0,1,46.91,78.623,17.991,17.991,0,0,1,40,80ZM40,3.18a44.784,44.784,0,0,0-28.557,10.3c-5.51,4.575-8.3,9.236-8.3,13.855v21.5c0,11.412,16.937,20.808,31.144,26.681a14.935,14.935,0,0,0,11.43,0c14.208-5.873,31.145-15.27,31.145-26.681v-21.5c0-4.619-2.793-9.281-8.3-13.855A44.787,44.787,0,0,0,40,3.18Zm.165,70.46a11.772,11.772,0,0,1-4.519-.9A106.234,106.234,0,0,1,17.6,63.373C10.2,58.379,6.447,53.547,6.447,49.009V27.494c0-3.617,2.406-7.447,7.15-11.386a41.595,41.595,0,0,1,53.136,0c4.745,3.939,7.151,7.77,7.151,11.386V49.009c0,4.537-3.753,9.37-11.153,14.364a106.259,106.259,0,0,1-18.046,9.369A11.777,11.777,0,0,1,40.165,73.64ZM56.7,46.978h-.006v3.945a1.283,1.283,0,0,0,1.269,1.294H59.38a10.84,10.84,0,0,0,3.537-.458,3.172,3.172,0,0,0,1.821-1.51,6.3,6.3,0,0,0,.552-2.883V42.191a1.308,1.308,0,0,1,.21-.845.939.939,0,0,1,.731-.239H67.6V35.714H66.23a.936.936,0,0,1-.731-.24,1.308,1.308,0,0,1-.21-.845V29.468a6.282,6.282,0,0,0-.552-2.889,3.213,3.213,0,0,0-1.821-1.511A10.7,10.7,0,0,0,59.38,24.6H57.964A1.283,1.283,0,0,0,56.695,25.9V29.84a3.434,3.434,0,0,1,1.985.4,1.83,1.83,0,0,1,.492,1.48v2.449a5.18,5.18,0,0,0,.657,2.875,3.712,3.712,0,0,0,2.283,1.372A3.766,3.766,0,0,0,59.828,39.8a5.176,5.176,0,0,0-.657,2.875V45.1a1.844,1.844,0,0,1-.485,1.48,3.407,3.407,0,0,1-1.979.393ZM40.672,24.6a14.906,14.906,0,0,0-7.262,1.726,12.206,12.206,0,0,0-4.891,4.884,14.85,14.85,0,0,0-1.742,7.27,14.47,14.47,0,0,0,1.742,7.173,12.37,12.37,0,0,0,4.854,4.836,14.6,14.6,0,0,0,7.178,1.726,15.87,15.87,0,0,0,7.371-1.628,11.273,11.273,0,0,0,4.344-3.905A.824.824,0,0,0,52,45.532L48.023,43.18a1.957,1.957,0,0,0-1-.274,2.115,2.115,0,0,0-1.521.67,5.931,5.931,0,0,1-4.5,1.738,4.986,4.986,0,0,1-4.067-1.885,7.74,7.74,0,0,1-1.525-4.994A7.482,7.482,0,0,1,36.98,33.5a5.026,5.026,0,0,1,4.03-1.873h.058a6.157,6.157,0,0,1,4.4,1.69,1.9,1.9,0,0,0,1.322.522,2.024,2.024,0,0,0,1.058-.3l3.99-2.43a.828.828,0,0,0,.374-.534.814.814,0,0,0-.129-.638,11.788,11.788,0,0,0-4.367-3.759A15.349,15.349,0,0,0,40.672,24.6ZM12.562,35.714v5.393h1.373a.939.939,0,0,1,.731.239,1.31,1.31,0,0,1,.209.845v5.176a6.3,6.3,0,0,0,.553,2.883,3.169,3.169,0,0,0,1.82,1.51,10.859,10.859,0,0,0,3.538.458H22.2a1.284,1.284,0,0,0,1.27-1.294V46.979a3.439,3.439,0,0,1-1.992-.394,1.844,1.844,0,0,1-.485-1.48V42.672a5.167,5.167,0,0,0-.657-2.875,3.764,3.764,0,0,0-2.283-1.387,3.707,3.707,0,0,0,2.283-1.372,5.172,5.172,0,0,0,.657-2.875V31.715a1.827,1.827,0,0,1,.492-1.48,3.408,3.408,0,0,1,1.973-.394h.012V25.9A1.283,1.283,0,0,0,22.2,24.6H20.785a10.7,10.7,0,0,0-3.538.465,3.212,3.212,0,0,0-1.82,1.511,6.28,6.28,0,0,0-.553,2.889v5.161a1.31,1.31,0,0,1-.209.845.936.936,0,0,1-.731.24Z"/></svg>