<?xml version="1.0" encoding="UTF-8"?>
<svg width="81px" height="81px" viewBox="0 0 81 81" version="1.1" xmlns="http://www.w3.org/2000/svg" xmlns:xlink="http://www.w3.org/1999/xlink">
    <!-- Generator: Sketch 50.2 (55047) - http://www.bohemiancoding.com/sketch -->
    <title>Fill 1</title>
    <desc>Created with Sketch.</desc>
    <defs>
        <linearGradient x1="0%" y1="0%" x2="101.999998%" y2="100.999999%" id="linearGradient-1">
            <stop stop-color="#3023AE" offset="0%"></stop>
            <stop stop-color="#C86DD7" offset="100%"></stop>
        </linearGradient>
    </defs>
    <g id="Researcher" stroke="none" stroke-width="1" fill="none" fill-rule="evenodd">
        <g id="Researcher-Dashboard" transform="translate(-309.000000, -140.000000)" stroke="url(#linearGradient-1)" stroke-width="6">
            <g id="Level-Info-Copy" transform="translate(300.000000, 115.000000)">
                <path d="M49.500189,103 C47.2684398,103 45.0888467,102.565633 43.0218803,101.709155 C38.1815736,99.7039407 31.139753,96.4530802 25.0820941,92.3557012 C16.2790625,86.4021103 12,80.3562068 12,73.8724885 L12,53.6901104 C12,48.4091378 14.9823425,43.2495889 20.8638803,38.3551036 C28.8883508,31.6775671 39.0583996,28 49.500189,28 C59.9419783,28 70.1120271,31.6775671 78.1364976,38.3551036 C84.0180354,43.2499719 87,48.4091378 87,53.6897274 L87,73.8724885 C87,80.3562068 82.7209375,86.4021103 73.9182838,92.3557012 C67.860625,96.4530802 60.8184264,99.7039407 55.9781197,101.709155 C53.9111533,102.565633 51.7319381,103 49.500189,103" id="Fill-1"></path>
            </g>
        </g>
    </g>
</svg>