<svg width="20" height="20" viewBox="0 0 20 20" fill="none" xmlns="http://www.w3.org/2000/svg">
<path d="M10.0077 3.61921e-06C4.48453 -0.00464482 0.00465206 4.46907 3.61921e-06 9.99227C-0.00464482 15.5155 4.46907 19.9954 9.99227 20C15.5147 19.9954 19.9915 15.5225 20 10C20 4.47989 15.5279 0.00465206 10.0077 3.61921e-06ZM9.99227 18.3359C5.38856 18.3359 1.65637 14.6037 1.65637 10C1.65637 5.39629 5.38856 1.66411 9.99227 1.66411C14.5944 1.66875 18.3235 5.39785 18.3282 10C18.3282 14.6037 14.596 18.3359 9.99227 18.3359Z" fill="#839098"/>
<path d="M12.6939 9.51234C13.3627 9.13539 13.7241 8.38078 13.5995 7.62379C13.4447 6.45508 12.0515 6.01387 10.9524 5.92102V4.16406H9.86883V5.90555H9.14129V4.16406H8.0577V5.90555H5.875V7.02785H6.6877C7.05149 7.02785 7.22949 7.13621 7.22949 7.43031V12.2523C7.22949 12.6548 7.02824 12.7786 6.81152 12.7786H5.98336V13.9241H8.08863V15.7043H9.17996V13.9241H9.9075V15.7043H10.9679V13.9241H11.2001C13.4292 13.9241 14.1722 12.8328 14.1722 11.3468C14.1544 10.4705 13.5468 9.71668 12.6939 9.51234ZM9.14125 7.0975H9.91524C10.457 7.0975 11.5252 7.19039 11.5252 8.07273C11.5623 8.64859 11.1451 9.15324 10.5731 9.22598H9.14125V7.0975ZM10.3409 12.6702V12.6625H9.14125V10.3405H10.5345C10.8595 10.3405 12.0824 10.4489 12.0824 11.3157C12.0824 12.1826 11.502 12.6702 10.3409 12.6702Z" fill="#839098"/>
</svg>
