<svg width="24" height="16" viewBox="0 0 24 16" fill="none" xmlns="http://www.w3.org/2000/svg">
<path d="M23.2969 0.771484H0.703125C0.314812 0.771484 0 1.0863 0 1.47461V14.5254C0 14.9137 0.314812 15.2285 0.703125 15.2285H23.2969C23.6852 15.2285 24 14.9137 24 14.5254V1.47461C24 1.0863 23.6852 0.771484 23.2969 0.771484ZM22.5938 13.8222H1.40625V2.17774H22.5938V13.8222Z" fill="#839098"/>
<path d="M4.01758 6.94141H10.8905C11.2788 6.94141 11.5936 6.62659 11.5936 6.23828C11.5936 5.84997 11.2788 5.53516 10.8905 5.53516H4.01758C3.62927 5.53516 3.31445 5.84997 3.31445 6.23828C3.31445 6.62659 3.62927 6.94141 4.01758 6.94141Z" fill="#839098"/>
<path d="M4.01758 10.4043H12.7563C13.1446 10.4043 13.4594 10.0895 13.4594 9.70117C13.4594 9.31286 13.1446 8.99805 12.7563 8.99805H4.01758C3.62927 8.99805 3.31445 9.31286 3.31445 9.70117C3.31445 10.0895 3.62927 10.4043 4.01758 10.4043Z" fill="#839098"/>
<path d="M16.2949 11.0692C16.7668 11.3779 17.1215 11.5142 17.5363 11.5697V11.7627C17.5363 12.151 17.8512 12.4659 18.2395 12.4659C18.6278 12.4659 18.9426 12.151 18.9426 11.7627V11.4964C19.8402 11.2156 20.4143 10.4253 20.5454 9.64539C20.7229 8.58972 20.1507 7.63609 19.1217 7.27234C18.5787 7.08044 17.9792 6.8493 17.6487 6.59012C17.5699 6.5283 17.5367 6.36916 17.568 6.20317C17.5845 6.11542 17.6613 5.82231 17.9555 5.73367C18.4813 5.57537 18.8389 5.78317 18.9682 5.87987C19.2793 6.11242 19.7199 6.04872 19.9524 5.73775C20.1849 5.42673 20.1213 4.98611 19.8102 4.75361C19.6844 4.65953 19.3793 4.45923 18.9425 4.34847V4.17578C18.9425 3.78747 18.6277 3.47266 18.2394 3.47266C17.8511 3.47266 17.5363 3.78747 17.5363 4.17578V4.39183C16.843 4.60638 16.3262 5.19911 16.186 5.94273C16.0557 6.63452 16.2836 7.30656 16.7809 7.69661C17.27 8.08028 17.9697 8.35666 18.653 8.5982C19.1806 8.78472 19.1962 9.18826 19.1586 9.41223C19.0955 9.78789 18.7794 10.1938 18.2347 10.1975C17.6615 10.2013 17.4974 10.1755 17.0646 9.89233C16.7397 9.6798 16.3039 9.77087 16.0913 10.0958C15.8788 10.4208 15.9699 10.8566 16.2949 11.0692Z" fill="#839098"/>
</svg>
