<svg width="14" height="22" viewBox="0 0 14 22" fill="none" xmlns="http://www.w3.org/2000/svg">
<path d="M0.767324 10.6217C0.768324 10.6604 0.776924 10.6971 0.793124 10.7325C0.798324 10.7444 0.802324 10.7558 0.809524 10.7667C0.834524 10.8067 0.866325 10.8433 0.911125 10.8693L0.913524 10.87L0.915325 10.8718L6.86653 14.2072C6.87113 14.2098 6.87652 14.2085 6.88153 14.2112C6.92432 14.2322 6.97153 14.2479 7.02373 14.2479C7.07593 14.2479 7.12313 14.2322 7.16633 14.2104C7.17173 14.2083 7.17793 14.2091 7.18313 14.2064L13.0285 10.8704C13.0743 10.8444 13.1063 10.8071 13.1323 10.7664C13.1393 10.7551 13.1437 10.7445 13.1487 10.7325C13.1651 10.6969 13.1737 10.6604 13.1751 10.6217C13.1751 10.6135 13.1807 10.6068 13.1801 10.599C13.1801 10.5953 13.1771 10.5928 13.1763 10.5892C13.1727 10.5454 13.1613 10.5025 13.1363 10.4624L7.29073 1.10204C7.28853 1.09821 7.28473 1.09668 7.28213 1.09305C7.27513 1.08234 7.26652 1.07392 7.25793 1.06435C7.24712 1.0523 7.23613 1.04159 7.22353 1.03087C7.21393 1.02341 7.20533 1.01519 7.19513 1.00907C7.19112 1.00639 7.18913 1.00256 7.18513 1.00027C7.17833 0.996249 7.17093 0.996249 7.16413 0.992996C7.15053 0.98611 7.13693 0.981136 7.12193 0.976162C7.10953 0.971953 7.09713 0.967744 7.08373 0.965257C7.07053 0.962388 7.05773 0.961814 7.04453 0.96124C7.03733 0.960475 7.03093 0.957031 7.02373 0.957031C7.01653 0.957031 7.01092 0.960475 7.00373 0.960857C6.99092 0.962005 6.97893 0.962196 6.96653 0.964683C6.95233 0.96717 6.93933 0.97157 6.92533 0.97597C6.91073 0.980753 6.89713 0.985918 6.88353 0.992805C6.87733 0.996057 6.87033 0.996057 6.86413 0.99931C6.86053 1.00141 6.85833 1.00505 6.85493 1.00715C6.84392 1.01404 6.83453 1.02246 6.82413 1.03107C6.81173 1.0414 6.80052 1.05154 6.78972 1.06359C6.78192 1.07277 6.77332 1.081 6.76693 1.09075C6.76393 1.09458 6.76012 1.09649 6.75752 1.10032L0.806524 10.4608C0.780724 10.501 0.769324 10.5448 0.765324 10.5894C0.764924 10.5932 0.762124 10.5957 0.761724 10.5997C0.761524 10.607 0.766924 10.6139 0.767324 10.6217ZM7.33493 2.3327L12.0883 9.94489L7.33493 7.85929V2.3327ZM6.71272 7.85757L1.86052 9.94872L6.71272 2.31663V7.85757ZM6.71272 8.51068V13.4307L1.74972 10.6495L6.71272 8.51068ZM7.33493 13.4259V8.51374L12.2013 10.6495L7.33493 13.4259Z" fill="#6C6C6C" stroke="#6C6C6C" stroke-width="0.5"/>
<path d="M13.1527 12.5309C13.0541 12.4276 12.8917 12.4072 12.7657 12.4762L7.02288 15.7194L1.28228 12.4762C1.15688 12.4064 0.994479 12.4276 0.894679 12.5309C0.795279 12.635 0.784879 12.79 0.869879 12.9049L6.76888 20.8546C6.77348 20.8607 6.78108 20.8626 6.78568 20.8682C6.79788 20.8823 6.81008 20.8948 6.82428 20.9064C6.83108 20.9118 6.83508 20.92 6.84248 20.9248C6.84828 20.9288 6.85568 20.9271 6.86188 20.9309C6.87188 20.9365 6.88048 20.9445 6.89148 20.9497C6.93108 20.968 6.97488 20.9797 7.02168 20.9797C7.02188 20.9797 7.02188 20.9797 7.02228 20.9797C7.02228 20.9797 7.02228 20.9797 7.02268 20.9797C7.02308 20.9797 7.02308 20.9797 7.02308 20.9797C7.02328 20.9797 7.02328 20.9797 7.02368 20.9797C7.07048 20.9797 7.11408 20.9678 7.15388 20.9497C7.16488 20.9447 7.17348 20.9367 7.18348 20.9309C7.18948 20.9269 7.19688 20.9288 7.20288 20.9248C7.21028 20.9202 7.21428 20.912 7.22108 20.9064C7.23528 20.8946 7.24768 20.8823 7.25948 20.8682C7.26408 20.8626 7.27188 20.8607 7.27628 20.8546L13.1775 12.9049C13.2629 12.79 13.2523 12.635 13.1527 12.5309ZM6.71188 16.2357V19.7485L2.22268 13.699L6.71188 16.2357ZM7.33408 19.7485V16.2357L11.8251 13.699L7.33408 19.7485Z" fill="#6C6C6C" stroke="#6C6C6C" stroke-width="0.5"/>
</svg>
