<?xml version="1.0" encoding="UTF-8"?>
<svg width="675px" height="311px" viewBox="0 0 675 311" version="1.1" xmlns="http://www.w3.org/2000/svg" xmlns:xlink="http://www.w3.org/1999/xlink">
    <!-- Generator: Sketch 52.4 (67378) - http://www.bohemiancoding.com/sketch -->
    <title>Full Santa Logo</title>
    <desc>Created with Sketch.</desc>
    <g id="Page-2" stroke="none" stroke-width="1" fill="none" fill-rule="evenodd">
        <g id="Full-Santa-Logo" transform="translate(0.000000, -38.000000)">
            <path d="M100.000504,349 C94.0491728,349 88.2369245,347.841687 82.7250142,345.557747 C69.8175295,340.210509 51.0393413,331.541547 34.8855843,320.615203 C11.4108333,304.738961 0,288.616551 0,271.326636 L0,217.506961 C0,203.424367 7.95291343,189.66557 23.6370142,176.61361 C45.0356022,158.806846 72.1557324,149 100.000504,149 C127.845275,149 154.965406,158.806846 176.363994,176.61361 C192.048094,189.666592 200,203.424367 200,217.50594 L200,271.326636 C200,288.616551 188.589167,304.738961 165.115424,320.615203 C148.961667,331.541547 130.182471,340.210509 117.274986,345.557747 C111.763076,347.841687 105.951835,349 100.000504,349 Z M163.609821,238.104917 C163.263655,237.70467 163.090073,237.001174 163.090073,235.993408 L163.090073,223.092576 C163.090073,220.020268 162.633172,217.611637 161.717377,215.868722 C160.802579,214.124787 159.292215,212.865846 157.18828,212.090877 C155.084344,211.315908 152.152402,210.928934 148.38946,210.928934 L144.86694,210.928934 C143.123137,210.928934 141.708543,212.375747 141.708543,214.161545 L141.708543,224.022743 C144.182587,224.022743 145.828625,224.352538 146.645658,225.011109 C147.461694,225.669679 147.870709,226.903095 147.870709,228.710334 L147.870709,234.831465 C147.870709,238.007918 148.415398,240.403277 149.503778,242.01754 C150.593155,243.631803 152.486598,244.775367 155.184104,245.44619 C152.486598,246.14356 150.593155,247.299376 149.503778,248.91364 C148.415398,250.527903 147.870709,252.923261 147.870709,256.099714 L147.870709,262.182046 C147.870709,263.990307 147.468677,265.223722 146.664612,265.882292 C145.85955,266.540863 144.208525,266.869637 141.708543,266.869637 L141.708543,276.730835 C141.708543,278.516633 143.123137,279.964467 144.86694,279.964467 L148.38946,279.964467 C152.152402,279.964467 155.084344,279.582598 157.18828,278.820903 C159.292215,278.059208 160.802579,276.799245 161.717377,275.044078 C162.633172,273.28687 163.090073,270.884364 163.090073,267.838604 L163.090073,254.898972 C163.090073,253.891206 163.263655,253.18771 163.609821,252.787463 C163.956986,252.387215 164.563526,252.187092 165.429441,252.187092 L168.844221,252.187092 L168.844221,238.705288 L165.429441,238.705288 C164.563526,238.705288 163.956986,238.506186 163.609821,238.104917 Z M129.645917,263.249785 L119.673453,257.372207 C117.59995,256.150176 115.017948,256.615323 113.353676,258.360644 C110.591369,261.25761 106.829284,262.706094 102.065393,262.706094 C97.8120284,262.706094 94.4085261,261.135203 91.8558994,257.993423 C89.3042857,254.850622 88.0269594,250.689802 88.0269594,245.507904 C88.0269594,240.407611 89.3336611,236.296774 91.9470647,233.175394 C94.5604682,230.055035 97.9325691,228.494345 102.065393,228.494345 C106.523373,228.462723 110.253045,229.870404 113.25542,232.719428 C114.869045,234.250536 117.333545,234.431087 119.232821,233.27944 L129.247829,227.203971 C130.254698,226.592955 130.544401,225.242398 129.865727,224.275382 C127.069993,220.300213 123.416292,217.166593 118.901587,214.876561 C113.713272,212.24481 107.819946,210.928934 101.216544,210.928934 C94.3274904,210.928934 88.2498077,212.367217 82.9834957,215.243782 C77.7151578,218.120348 73.6238645,222.190382 70.7065768,227.453885 C67.7892892,232.716368 66.3316583,238.775517 66.3316583,245.630311 C66.3316583,252.403501 67.7892892,258.381045 70.7065768,263.561923 C73.6238645,268.743821 77.6857824,272.773053 82.8923305,275.649619 C88.0978657,278.526184 94.104642,279.964467 100.912659,279.964467 C108.001263,279.964467 114.171124,278.608809 119.41819,275.894433 C124.006841,273.521776 127.640282,270.267789 130.324592,266.132471 C130.958696,265.156275 130.644683,263.839379 129.645917,263.249785 Z M55.1330602,210.928934 L51.6105397,210.928934 C47.8485956,210.928934 44.9156558,211.315908 42.8117205,212.090877 C40.7077851,212.865846 39.1984185,214.124787 38.2836206,215.868722 C37.3668275,217.611637 36.9099274,220.020268 36.9099274,223.092576 L36.9099274,235.993408 C36.9099274,237.001174 36.7363452,237.70467 36.3901785,238.104917 C36.0430142,238.506186 35.4374719,238.705288 34.5715564,238.705288 L31.1557789,238.705288 L31.1557789,252.187092 L34.5715564,252.187092 C35.4374719,252.187092 36.0430142,252.387215 36.3901785,252.787463 C36.7363452,253.18771 36.9099274,253.891206 36.9099274,254.898972 L36.9099274,267.838604 C36.9099274,270.884364 37.3668275,273.28687 38.2836206,275.044078 C39.1984185,276.799245 40.7077851,278.059208 42.8117205,278.820903 C44.9156558,279.582598 47.8485956,279.964467 51.6105397,279.964467 L55.1330602,279.964467 C56.8778601,279.964467 58.2914573,278.516633 58.2914573,276.730835 L58.2914573,266.869637 C55.7924729,266.869637 54.1404497,266.540863 53.3363852,265.882292 C52.5313232,265.223722 52.1302886,263.990307 52.1302886,262.182046 L52.1302886,256.099714 C52.1302886,252.923261 51.5855998,250.527903 50.4962221,248.91364 C49.4068445,247.299376 47.5144001,246.14356 44.8168936,245.44619 C47.5144001,244.775367 49.4068445,243.631803 50.4962221,242.01754 C51.5855998,240.403277 52.1302886,238.007918 52.1302886,234.831465 L52.1302886,228.710334 C52.1302886,226.903095 52.5383064,225.669679 53.354342,225.011109 C54.1713752,224.352538 55.8174129,224.022743 58.2914573,224.022743 L58.2914573,214.161545 C58.2914573,212.375747 56.8778601,210.928934 55.1330602,210.928934 Z M171.24402,182.887022 C184.990456,194.328809 191.959799,205.986921 191.959799,217.537892 L191.959799,271.305005 C191.959799,299.844677 149.704885,323.346616 114.258266,338.036348 C109.709672,339.923075 104.911454,340.878173 100.000503,340.878173 C95.0885456,340.878173 90.2913345,339.923075 85.7407279,338.036348 C50.2941089,323.346616 8.04020101,299.843657 8.04020101,271.305005 L8.04020101,217.538912 C8.04020101,205.986921 15.0095442,194.328809 28.7549732,182.887022 C48.7148339,166.271788 74.0174551,157.121827 100.000503,157.121827 C125.982545,157.121827 151.28416,166.271788 171.24402,182.887022 Z M184.924623,271.277604 L184.924623,217.57664 C184.924623,207.514398 177.48449,197.818037 167.021391,189.15715 C128.499314,157.27249 72.5067226,157.27249 33.9836341,189.15715 C23.5205356,197.818037 16.080402,207.514398 16.080402,217.57664 L16.080402,271.277604 C16.080402,297.386641 66.1756836,321.030312 89.1876254,330.513667 C96.4437524,333.503905 104.561273,333.503905 111.818411,330.513667 C134.829342,321.030312 184.924623,297.386641 184.924623,271.277604 Z" id="Combined-Shape" fill="#1E3672"></path>
            <path d="M625.899983,258.80975 L633.97247,236.355092 L641.884701,258.80975 L625.899983,258.80975 Z M674.386508,276.524675 L647.76523,211.070175 L631.307897,211.070175 C625.503421,211.070175 620.26391,214.546885 618.006765,219.895043 L589.332055,287.837563 L615.369355,287.837563 L619.324112,276.986425 L648.08574,276.986425 L651.934566,287.837563 L666.773056,287.837563 C672.607411,287.837563 676.583898,281.929872 674.386508,276.524675 Z M493.45091,246.193095 C491.973308,247.830952 489.843823,248.651238 487.065171,248.651238 L477.762256,248.651238 L477.762256,230.368632 L487.065171,230.368632 C489.808513,230.368632 491.929849,231.153608 493.426464,232.720844 C494.920363,234.288079 495.672745,236.49905 495.672745,239.348322 C495.672745,242.273648 494.928512,244.552523 493.45091,246.193095 Z M511.575977,218.259903 C506.105591,213.468562 498.361763,211.070175 488.347208,211.070175 L460.462907,211.070175 C455.964913,211.070175 452.314368,214.718004 452.314368,219.218714 L452.314368,287.837563 L469.613716,287.837563 C474.114426,287.837563 477.762256,284.189734 477.762256,279.689024 L477.762256,267.898088 L488.347208,267.898088 C498.361763,267.898088 506.105591,265.323149 511.575977,260.173272 C517.046364,255.023396 519.781557,247.814655 519.781557,238.549765 C519.781557,229.817247 517.046364,223.05396 511.575977,218.259903 Z M266.91337,231.436091 C269.909316,231.436091 273.000329,232.373173 276.189124,234.244621 C277.221272,234.847612 278.201813,235.518509 279.133463,236.25731 C282.433621,238.864842 287.211381,238.34062 289.919412,235.121947 L295.677713,228.266309 C297.655092,225.916813 297.272111,222.42109 294.884589,220.489886 C291.793576,217.985568 288.243529,215.869664 284.234448,214.142174 C278.318609,211.597114 272.438079,210.320509 266.592861,210.320509 C258.645319,210.320509 251.509914,211.996392 245.181216,215.345442 C238.855233,218.697208 233.911786,223.328294 230.348158,229.24685 C226.78453,235.162689 225,241.844491 225,249.294973 C225,256.813358 226.746504,263.584794 230.242227,269.609281 C233.732518,275.631051 238.570034,280.354488 244.754775,283.774158 C250.939517,287.196545 257.898369,288.907738 265.631333,288.907738 C271.511862,288.907738 277.463012,287.527919 283.487499,284.765564 C287.73832,282.815347 291.565417,280.389798 294.966074,277.488918 C297.29384,275.503391 297.410636,271.928898 295.321894,269.693482 L289.490256,263.457134 C286.890872,260.681198 282.602024,260.04018 279.486566,262.213123 C278.326757,263.022545 277.109909,263.742333 275.841453,264.36977 C272.668955,265.939722 269.694738,266.721982 266.91337,266.721982 C263.92014,266.721982 261.201244,265.956019 258.762114,264.421378 C256.320269,262.889452 254.421659,260.770832 253.069002,258.060085 C251.713628,255.352053 251.037299,252.323513 251.037299,248.971747 C251.037299,243.876194 252.533914,239.679696 255.527144,236.382254 C258.520374,233.087528 262.317594,231.436091 266.91337,231.436091 Z M329.570204,259.024328 L365.440074,259.024328 L365.440074,239.777479 L329.570204,239.777479 L329.570204,230.368632 L363.644679,230.368632 C366.646058,230.368632 369.077039,227.934935 369.077039,224.936272 L369.077039,211.070175 L309.554676,211.070175 C306.556013,211.070175 304.122316,213.501156 304.122316,216.502534 L304.122316,287.837563 L364.606207,287.837563 C367.607586,287.837563 370.038567,285.406582 370.038567,282.405204 L370.038567,268.59343 L329.570204,268.59343 L329.570204,259.024328 Z M568.509821,246.193095 C567.03222,247.830952 564.902735,248.651238 562.124083,248.651238 L552.821167,248.651238 L552.821167,230.368632 L562.124083,230.368632 C564.864708,230.368632 566.988761,231.153608 568.48266,232.720844 C569.981991,234.288079 570.72894,236.49905 570.72894,239.348322 C570.72894,242.273648 569.987423,244.552523 568.509821,246.193095 Z M586.634889,218.259903 C581.161787,213.468562 573.420674,211.070175 563.403403,211.070175 L535.521818,211.070175 C531.021108,211.070175 527.373279,214.718004 527.373279,219.218714 L527.373279,287.837563 L544.672628,287.837563 C549.170621,287.837563 552.821167,284.189734 552.821167,279.689024 L552.821167,267.898088 L563.403403,267.898088 C573.420674,267.898088 581.161787,265.323149 586.634889,260.173272 C592.105275,255.023396 594.837752,247.814655 594.837752,238.549765 C594.837752,229.817247 592.105275,223.05396 586.634889,218.259903 Z M432.187476,243.840884 C428.569524,242.308958 423.981897,240.812343 418.421877,239.348322 C414.143893,238.245553 411.017571,237.237851 409.037476,236.330647 C407.060097,235.420726 406.071407,234.163135 406.071407,232.560589 C406.071407,230.420239 407.641359,229.352781 410.775831,229.352781 C413.913018,229.352781 418.019882,230.262701 423.099138,232.079825 C425.562713,232.959867 427.933938,233.905098 430.218245,234.912801 C434.197449,236.670169 438.852981,234.844896 440.729861,230.9173 L445.312056,221.32647 C445.917764,220.058014 445.477743,218.507075 444.252746,217.817165 C440.349596,215.627924 435.892345,213.840678 430.878277,212.460859 C424.924411,210.820286 418.956964,210 412.967788,210 C406.408214,210 400.64448,211.024 395.673871,213.074715 C390.700546,215.125431 386.870733,218.029027 384.178998,221.78822 C381.487264,225.550129 380.142755,229.942192 380.142755,234.967124 C380.142755,240.136014 381.470967,244.267324 384.124675,247.369201 C386.781099,250.468362 389.926435,252.752669 393.560683,254.211258 C397.197648,255.672563 401.722803,257.063247 407.141582,258.380594 C411.596117,259.488795 414.831087,260.493782 416.843776,261.400986 C418.856465,262.310906 419.864168,263.603807 419.864168,265.276974 C419.864168,267.917101 417.816169,269.234448 413.717453,269.234448 C409.79529,269.234448 404.922463,268.050194 399.096258,265.678969 C396.374646,264.570767 393.862179,263.372932 391.564291,262.082747 C387.541629,259.825601 382.454224,261.485187 380.398076,265.613781 L376.092931,274.275678 C375.500804,275.468081 375.834894,276.945682 376.926798,277.706213 C381.574182,280.941183 386.933205,283.497108 393.00115,285.379421 C399.897531,287.517054 406.731439,288.587229 413.502875,288.587229 C419.489335,288.587229 424.935276,287.696322 429.835264,285.914508 C434.735252,284.132694 438.619389,281.40565 441.487675,277.733375 C444.355961,274.063816 445.79282,269.484337 445.79282,263.994937 C445.79282,258.578875 444.429298,254.249284 441.702253,251.00345 C438.977925,247.760331 435.805427,245.372809 432.187476,243.840884 Z" id="CESPPA" fill="#1E3672"></path>
            <g id="Santa-Hat" transform="translate(161.500000, 130.500000) scale(-1, 1) translate(-161.500000, -130.500000) translate(31.000000, 0.000000)" fill-rule="nonzero">
                <g id="Main-Hat" transform="translate(19.000000, 38.000000)">
                    <path d="M6.36478185,80.3141513 C66.3200957,29.4140885 109.484546,2.965697 135.858132,0.968976743 C155.873259,-0.546350272 183.324925,30.2972878 196.851916,49.9453949 C210.378907,69.5935021 228.920039,104.361264 230.122605,115.085567 C232.556647,136.791988 121.977668,161.129533 68.657275,161.129533 C67.5675138,153.302532 69.9233943,134.941721 75.7249166,106.047099 C61.6855373,97.9892494 43.7438262,96.8009995 21.8997833,102.48235 C0.0557404563,108.1637 -5.12259336,100.7743 6.36478185,80.3141513 Z" id="Light-Red" stroke="#979797" fill="#CF0000"></path>
                    <path d="M20.3628075,98.0426071 C68.657275,94.6244201 67.276088,45.1816642 82.2577125,45.1816642 C102.432609,45.1816642 92.8051156,122.123242 181.112667,118.950674 C192.336897,118.547428 219.128363,121.038764 230.162138,121.038764 C184.717232,153.94106 121.977668,161.129533 68.657275,161.129533 C67.5675138,153.302532 69.9233943,134.941721 75.7249166,106.047099 C61.6855373,97.9892494 43.7438262,96.8009995 21.8997833,102.48235 C15.5228516,102.48235 18.3609994,99.9430199 20.3628075,98.0426071 Z" id="Dark-Red" fill="#BB0000"></path>
                    <path d="M69.0042236,165.021757 L68.4990349,151.35781 C73.424963,156.344051 77.7349686,158.621375 81.4290518,158.189784 C80.7868628,152.247089 79.8487041,141.521921 83.4094404,139.347652 C86.9701766,137.173384 89.575678,141.222844 93.3346243,140.285248 C97.0935706,139.347652 98.8268693,131.874407 103.215161,133.428505 C107.603452,134.982602 106.173512,136.309181 106.173512,139.347652 C109.245621,136.424775 113.753788,128.804744 124.795158,139.347652 C127.133949,137.523224 134.045738,126.976646 136.649967,126.976646 C139.254196,126.976646 136.404712,146.712643 138.826682,141.341496 C141.248652,135.97035 144.992919,125.084329 148.857674,126.030487 C152.722429,126.976646 151.266996,131.786336 152.43008,131.786336 C154.261236,129.558246 167.13315,119.023354 172.77952,123 C176.543767,125.651097 178.566153,125.358845 178.846677,122.123242 C180.632574,119.550987 182.369543,119.05405 184.057582,120.63243 C187.395742,120.17617 196.183334,119.538874 203.823548,124.264773 C208.978185,118.582318 215.263075,117.261244 217.046526,118.946837 C218.426926,111.82649 226.145983,111.053163 230.162138,115 C232.839575,117.631225 232.839575,122.56756 230.162138,129.809005 L158.490509,147.615377 L81.4290518,169.483442 C73.145833,166.508985 69.0042236,165.021757 69.0042236,165.021757 Z" id="Bottm-brim-shadow" fill="#860001"></path>
                    <path d="M6.36478185,80.3141513 C66.3200957,29.4140885 109.484546,2.965697 135.858132,0.968976743 C155.873259,-0.546350272 183.324925,30.2972878 196.851916,49.9453949 C210.378907,69.5935021 228.920039,104.361264 230.122605,115.085567 C232.556647,136.791988 121.977668,161.129533 68.657275,161.129533 C67.5675138,153.302532 69.9233943,134.941721 75.7249166,106.047099 C61.6855373,97.9892494 43.7438262,96.8009995 21.8997833,102.48235 C0.0557404563,108.1637 -5.12259336,100.7743 6.36478185,80.3141513 Z" id="Outline" stroke="#000000" stroke-width="0.25"></path>
                    <path d="M79.6067164,80.0727587 C79.6067164,83.837186 80.5556972,87.3902015 80.5556972,90.3569689 C83.001822,84.2272588 85.5513531,78.6423683 86.3452931,74 C88.2424591,62.9067911 85.4173819,54.8125832 83.2323598,54.4257544 C79.4954974,53.7641932 77.6270663,58.4840492 77.6270663,68.5853226 C78.946833,71.6525987 79.6067164,75.4817441 79.6067164,80.0727587 Z" id="Fold-Dark-Red" fill="#860001"></path>
                    <path d="M75.7667848,106.348965 C77.6270663,94.0410494 84.8990225,82.4567099 86.3452931,74 C88.2424591,62.9067911 85.4173819,54.8125832 83.2323598,54.4257544 C79.4954974,53.7641932 77.6270663,58.4840492 77.6270663,68.5853226" id="Fold-Line" stroke="#000000" stroke-width="0.25"></path>
                </g>
                <g id="Brim" transform="translate(84.000000, 153.000000)">
                    <path d="M3.43854752,46.1295335 C-0.204863358,50.0108392 -1.76291139,64.472966 8.07445729,65.5785747 C9.40875406,65.7285345 9.84146011,62.9601792 11.2184325,62.8910215 L13.3229125,65.0480737 C15.6245395,64.9324757 17.5637195,63.2351882 19.7351245,62.4632752 L23.0790333,64.472966 C26.3207949,63.3205517 28.0166877,59.0916562 31.3710987,58.326801 L34.3015991,53.4351993 C37.3614979,52.7374973 40.3547403,55.9293028 43.472257,55.5675585 C45.2925207,55.3563423 46.2624526,50.6064535 47.5641245,51.8962685 L50.2516777,51.8452894 C51.4979444,53.0802039 50.8789047,55.7434099 52.3736817,56.6620156 C53.9643184,57.6395311 56.1849682,57.1242939 57.9742112,56.5911228 C64.7643729,54.5677429 72.0050268,44.4737996 76.2294999,44.3473824 C83.0775278,44.1424555 89.8902023,45.5665367 96.7406127,45.6632798 C101.404655,45.7291465 100.715792,38.6037115 106.237855,37.2859837 C112.367344,35.8233063 122.939489,40.9579267 129.193574,38.4266406 C131.551819,37.4721619 130.314384,32.8639372 132.488097,31.5420756 C134.49909,30.3191661 137.315201,32.9601076 139.52321,32.1450625 C142.366736,31.0954277 143.658338,27.3085623 146.536019,26.3565477 C148.153819,25.8213356 149.5968,28.503002 151.282649,28.2547217 C154.458389,27.7870205 156.933041,24.9410579 160.090081,24.3603982 C168.193938,22.8698933 168.741134,24.2957987 168.887558,23.716409 C169.000196,23.2707085 171.771458,24.2957987 171.771458,16.5789201 C171.771458,13.3369694 180.624953,23.6797763 174.755327,8.85399689 C168.668904,-6.51938088 156.718293,2.95635497 156.718293,9.0379995 C154.130476,6.05174078 154.130476,6.05174078 149.853642,6.05174078 C144.086419,6.05174078 144.086419,9.64110872 142.194832,9.44264592 C138.311283,9.03518915 133.11755,10.4901945 130.742041,9.21416832 C123.514186,5.33166132 117.749568,9.23850033 114.975191,11.7255527 C112.200814,14.212605 103.963532,8.78347594 98.4380567,9.44264592 C95.8539763,9.75091769 94.9466393,13.7923661 92.420136,14.4162921 C92.030424,14.5125324 89.8504442,17.045081 87.2250495,14.4162921 C84.5996547,11.7875031 81.2062955,13.7835501 78.1005913,16.5789201 C74.7694273,14.4162921 71.609201,15.073633 71.1977057,15.2550572 C66.7351084,17.2225723 64.6096965,23.1653478 59.9536332,24.6168867 C56.9474739,25.554064 57.9742112,19.7985674 51.0203465,21.5453973 C44.0664819,23.2922272 48.2287599,25.1426213 46.3931988,24.7522998 C44.3989773,24.3282401 44.5222683,20.8983908 42.8055463,19.7985674 C41.3212972,18.8476785 39.1215524,18.2701636 37.56426,19.096012 C34.8515069,20.5346132 33.9669251,24.3010718 31.3344575,25.881805 C28.4058838,27.6403428 24.1055772,26.5425982 21.4946992,28.7453953 C3.13815743,44.2328047 21.1315794,39.2582694 9.22307961,41.8573731 L3.43854752,46.1295335 Z" id="White" fill="#FFFFFF"></path>
                    <path d="M3.43854752,46.1295335 C-0.204863358,50.0108392 -1.76291139,64.472966 8.07445729,65.5785747 C9.40875406,65.7285345 9.84146011,62.9601792 11.2184325,62.8910215 L13.3229125,65.0480737 C15.6245395,64.9324757 17.5637195,63.2351882 19.7351245,62.4632752 L23.0790333,64.472966 C26.3207949,63.3205517 28.0166877,59.0916562 31.3710987,58.326801 L34.3015991,53.4351993 C37.3614979,52.7374973 40.3547403,55.9293028 43.472257,55.5675585 C45.2925207,55.3563423 46.2624526,50.6064535 47.5641245,51.8962685 L50.2516777,51.8452894 C51.4979444,53.0802039 50.8789047,55.7434099 52.3736817,56.6620156 C53.9643184,57.6395311 56.1849682,57.1242939 57.9742112,56.5911228 C64.7643729,54.5677429 72.0050268,44.4737996 76.2294999,44.3473824 C83.0775278,44.1424555 89.7181366,44.1424555 88.4323483,41.8573731 C87.9819611,37.8960721 77.6777959,34.9011994 63.5369428,44.8335742 C59.2339414,45.5629941 43.472257,35.6614494 39.5277467,48.1364606 C36.3272393,47.9723853 34.3015991,47.0045555 29.8016964,50.2085145 C29.4951108,48.1885887 26.0014629,46.1295335 20.1688141,49.2046729 C22.6373585,44.0749958 19.7351245,30.4762328 13.3229125,41.8573731 C10.4616016,41.4274266 9.95766121,41.6970461 9.22307961,41.8573731 L3.43854752,46.1295335 Z" id="Grey" fill="#D8D8D8"></path>
                    <path d="M3.43854752,46.1295335 C-0.204863358,50.0108392 -1.76291139,64.472966 8.07445729,65.5785747 C9.40875406,65.7285345 9.84146011,62.9601792 11.2184325,62.8910215 L13.3229125,65.0480737 C15.6245395,64.9324757 17.5637195,63.2351882 19.7351245,62.4632752 L23.0790333,64.472966 C26.3207949,63.3205517 28.0166877,59.0916562 31.3710987,58.326801 L34.3015991,53.4351993 C37.3614979,52.7374973 40.3547403,55.9293028 43.472257,55.5675585 C45.2925207,55.3563423 46.2624526,50.6064535 47.5641245,51.8962685 L50.2516777,51.8452894 C51.4979444,53.0802039 50.8789047,55.7434099 52.3736817,56.6620156 C53.9643184,57.6395311 56.1849682,57.1242939 57.9742112,56.5911228 C64.7643729,54.5677429 72.0050268,44.4737996 76.2294999,44.3473824 C83.0775278,44.1424555 89.8902023,45.5665367 96.7406127,45.6632798 C101.404655,45.7291465 100.715792,38.6037115 106.237855,37.2859837 C112.367344,35.8233063 122.939489,40.9579267 129.193574,38.4266406 C131.551819,37.4721619 130.314384,32.8639372 132.488097,31.5420756 C134.49909,30.3191661 137.315201,32.9601076 139.52321,32.1450625 C142.366736,31.0954277 143.658338,27.3085623 146.536019,26.3565477 C148.153819,25.8213356 149.5968,28.503002 151.282649,28.2547217 C154.458389,27.7870205 156.933041,24.9410579 160.090081,24.3603982 C168.193938,22.8698933 168.741134,24.2957987 168.887558,23.716409 C169.000196,23.2707085 171.771458,24.2957987 171.771458,16.5789201 C171.771458,13.3369694 180.624953,23.6797763 174.755327,8.85399689 C168.668904,-6.51938088 156.718293,2.95635497 156.718293,9.0379995 C154.130476,6.05174078 154.130476,6.05174078 149.853642,6.05174078 C144.086419,6.05174078 144.086419,9.64110872 142.194832,9.44264592 C138.311283,9.03518915 133.11755,10.4901945 130.742041,9.21416832 C123.514186,5.33166132 117.749568,9.23850033 114.975191,11.7255527 C112.200814,14.212605 103.963532,8.78347594 98.4380567,9.44264592 C95.8539763,9.75091769 94.9466393,13.7923661 92.420136,14.4162921 C92.030424,14.5125324 89.8504442,17.045081 87.2250495,14.4162921 C84.5996547,11.7875031 81.2062955,13.7835501 78.1005913,16.5789201 C74.7694273,14.4162921 71.609201,15.073633 71.1977057,15.2550572 C66.7351084,17.2225723 64.6096965,23.1653478 59.9536332,24.6168867 C56.9474739,25.554064 57.9742112,19.7985674 51.0203465,21.5453973 C44.0664819,23.2922272 48.2287599,25.1426213 46.3931988,24.7522998 C44.3989773,24.3282401 44.5222683,20.8983908 42.8055463,19.7985674 C41.3212972,18.8476785 39.1215524,18.2701636 37.56426,19.096012 C34.8515069,20.5346132 33.9669251,24.3010718 31.3344575,25.881805 C28.4058838,27.6403428 24.1055772,26.5425982 21.4946992,28.7453953 C3.13815743,44.2328047 21.1315794,39.2582694 9.22307961,41.8573731 L3.43854752,46.1295335 Z" id="Outline" stroke="#000000" stroke-width="0.25"></path>
                </g>
                <g id="Tip" transform="translate(0.000000, 112.000000)">
                    <path d="M6.89600029,7.92049212 C12.3609827,1.88661034 16.5377326,-0.633256061 19.4262501,0.360892916 C23.7590264,1.85211638 25.5344861,5.04423837 25.5344861,6.10481458 C27.4387333,7.04112216 35.3774647,13.2156911 34.0769371,20.0287748 C38.0241604,21.9538087 39.5452084,24.4775915 38.7846844,27.1807729 C41.3586265,27.7853962 43.4924604,37.3944482 30.2544343,44.9660981 C28.4396605,46.00408 28.2101022,45.1916325 27.1766394,43.552599 C26.2141225,48.7705255 19.6947646,49.4235006 16.8438165,46.0085989 C12.7574123,47.0727902 -6.09526742,37.5569769 3.33107243,22.4531426 C2.11549937,19.1503086 3.55385218,15.9577347 6.24664025,14.5867129 C5.75137331,12.3534928 5.96782665,10.1314192 6.89600029,7.92049212 Z" id="Grey" fill="#D8D8D8"></path>
                    <path d="M6.89600029,7.92049212 C12.3609827,1.88661034 16.5377326,-0.633256061 19.4262501,0.360892916 C23.7590264,1.85211638 25.5344861,5.04423837 25.5344861,6.10481458 C27.4387333,7.04112216 35.3774647,13.2156911 34.0769371,20.0287748 C38.0241604,21.9538087 39.5452084,24.4775915 38.7846844,27.1807729 C41.0157819,27.7048615 42.9162063,34.9943851 34.7613939,41.8581591 C33.5082739,42.9128901 28.039582,40.7105997 25.5344861,41.8277505 C22.7922543,43.3194259 20.6599929,42.7984015 19.4262501,41.0012512 C18.2456237,39.2814737 15.8531227,40.691904 14.5658597,39.4643873 C12.8678049,37.8451452 13.4056917,35.6978193 12.5897626,34.7204891 C8.50335843,35.7846804 6.89600029,27.1807729 9.23586547,23.1793233 C4.96825505,23.1793233 3.55385218,15.9577347 6.24664025,14.5867129 C5.75137331,12.3534928 5.96782665,10.1314192 6.89600029,7.92049212 Z" id="White" fill="#FFFFFF"></path>
                    <path d="M6.89600029,7.92049212 C12.3609827,1.88661034 16.5377326,-0.633256061 19.4262501,0.360892916 C23.7590264,1.85211638 25.5344861,5.04423837 25.5344861,6.10481458 C27.4387333,7.04112216 35.3774647,13.2156911 34.0769371,20.0287748 C38.0241604,21.9538087 39.5452084,24.4775915 38.7846844,27.1807729 C41.3586265,27.7853962 43.4924604,37.3944482 30.2544343,44.9660981 C28.4396605,46.00408 28.2101022,45.1916325 27.1766394,43.552599 C26.2141225,48.7705255 19.6947646,49.4235006 16.8438165,46.0085989 C12.7574123,47.0727902 -6.09526742,37.5569769 3.33107243,22.4531426 C2.11549937,19.1503086 3.55385218,15.9577347 6.24664025,14.5867129 C5.75137331,12.3534928 5.96782665,10.1314192 6.89600029,7.92049212 Z" id="Outline" stroke="#000000" stroke-width="0.25"></path>
                </g>
            </g>
        </g>
    </g>
</svg>