<?xml version="1.0" standalone="no"?>
<!DOCTYPE svg PUBLIC "-//W3C//DTD SVG 20010904//EN"
 "http://www.w3.org/TR/2001/REC-SVG-20010904/DTD/svg10.dtd">
<svg version="1.0" xmlns="http://www.w3.org/2000/svg"
 width="396.000000pt" height="396.000000pt" viewBox="0 0 396.000000 396.000000"
 preserveAspectRatio="xMidYMid meet">
<metadata>
Created by potrace 1.11, written by Peter Selinger 2001-2013
</metadata>
<g transform="translate(0.000000,396.000000) scale(0.100000,-0.100000)"
fill="#000000" stroke="none">
<path d="M1799 3936 c-2 -2 -33 -7 -69 -10 -270 -28 -526 -101 -775 -220 -111
-53 -313 -171 -365 -212 -8 -7 -51 -40 -95 -75 -175 -135 -367 -364 -423 -504
-40 -100 -52 -137 -60 -178 -4 -23 -7 -332 -7 -687 l0 -645 34 -99 c103 -298
355 -554 821 -836 140 -84 508 -270 665 -335 50 -21 104 -44 120 -51 161 -74
428 -80 621 -16 131 44 535 232 724 338 441 246 742 512 879 777 21 40 48 108
62 152 l24 80 0 655 0 655 -24 75 c-66 209 -201 398 -406 568 -44 37 -82 70
-85 73 -3 4 -63 46 -133 93 -285 193 -636 329 -964 377 -39 5 -82 12 -95 15
-26 6 -443 15 -449 10z"/>
</g>
</svg>
