<svg width="276" height="26" viewBox="0 0 276 26" fill="none" xmlns="http://www.w3.org/2000/svg">
<path fill-rule="evenodd" clip-rule="evenodd" d="M184.932 22.8254H188.016V8.93637H184.932V22.8254ZM191.202 22.8254H194.247V16.8917C194.247 15.4628 194.988 14.7287 196.15 14.7287C197.313 14.7287 197.994 15.4628 197.994 16.8917V22.8254H201.039V15.9396C201.039 13.4991 199.696 11.9918 197.393 11.9918C195.851 11.9918 194.95 12.8059 194.249 13.6983V12.191H191.204V22.8254H191.202ZM207.447 23.0247C209.77 23.0247 211.552 21.9534 211.552 19.5912V19.552C211.552 17.607 209.809 16.8934 208.308 16.3978C207.146 16.001 206.124 15.7233 206.124 15.1272V15.0881C206.124 14.6708 206.504 14.354 207.245 14.354C208.026 14.354 209.089 14.7304 210.149 15.3452L211.312 13.2623C210.149 12.4891 208.667 12.0327 207.306 12.0327C205.143 12.0327 203.379 13.2436 203.379 15.4066V15.4457C203.379 17.5099 205.081 18.2031 206.584 18.6408C207.765 18.9985 208.807 19.2165 208.807 19.8705V19.9096C208.807 20.3865 208.406 20.7033 207.524 20.7033C206.522 20.7033 205.301 20.2673 204.139 19.4328L202.837 21.4169C204.262 22.5273 205.944 23.0247 207.447 23.0247ZM213.736 26H216.781V21.4356C217.501 22.2889 218.504 23.023 220.127 23.023C222.672 23.023 225.015 21.078 225.015 17.527V17.4878C225.015 13.9368 222.632 11.9918 220.127 11.9918C218.545 11.9918 217.522 12.7258 216.781 13.7188V12.191H213.736V26ZM219.346 20.4649C217.924 20.4649 216.742 19.2948 216.742 17.5287V17.4895C216.742 15.7233 217.923 14.5533 219.346 14.5533C220.768 14.5533 221.97 15.7233 221.97 17.4895V17.5287C221.97 19.3135 220.768 20.4649 219.346 20.4649ZM232.347 23.0638C234.289 23.0638 235.732 22.3093 236.733 21.0797L234.989 19.552C234.148 20.3252 233.407 20.6437 232.384 20.6437C231.023 20.6437 230.061 19.9301 229.761 18.5608H237.233C237.254 18.2831 237.273 18.0055 237.273 17.7671C237.273 14.7509 235.631 11.9935 232.044 11.9935C228.918 11.9935 226.736 14.4937 226.736 17.5287V17.5678C226.736 20.8208 229.121 23.0638 232.347 23.0638ZM229.723 16.6737C229.963 15.3044 230.784 14.4119 232.046 14.4119C233.328 14.4119 234.13 15.3248 234.308 16.6737H229.723ZM244.606 23.0638C246.75 23.0638 247.95 22.2497 248.992 21.1189L247.209 19.334C246.468 20.0289 245.766 20.4649 244.745 20.4649C243.082 20.4649 242.02 19.1552 242.02 17.5287V17.4895C242.02 15.9226 243.101 14.5925 244.625 14.5925C245.706 14.5925 246.387 15.0489 247.068 15.7625L248.932 13.7784C247.929 12.6679 246.669 11.9935 244.645 11.9935C241.359 11.9935 239.016 14.4937 239.016 17.5287V17.5678C239.016 20.6028 241.38 23.0638 244.606 23.0638ZM254.6 23.0042C255.622 23.0042 256.363 22.7658 257.004 22.3894V19.9692C256.564 20.2077 256.062 20.3456 255.501 20.3456C254.82 20.3456 254.519 20.0084 254.519 19.3135V14.7696H257.044V12.1893H254.519V9.47115H251.474V12.1893H250.192V14.7696H251.474V19.8092C251.476 22.2702 252.738 23.0042 254.6 23.0042ZM259.349 11.0193H262.554V8.34027H259.349V11.0193ZM259.428 22.8254H262.473V12.1893H259.428V22.8254ZM268.603 22.9054H271.368L275.594 12.191H272.428L270.004 19.3152L267.6 12.191H264.375L268.603 22.9054Z" fill="white"/>
<path fill-rule="evenodd" clip-rule="evenodd" d="M165.731 12.7667L169.089 7.12592L169.966 5.65442H172.337L167.418 13.9163L166.773 14.9978L165.731 12.7667Z" fill="white"/>
<path fill-rule="evenodd" clip-rule="evenodd" d="M167.518 16.5902L171.452 9.98374L174.756 4.43324L175.633 2.96173H178.006L169.514 17.2238C169.091 17.9357 168.123 17.8812 167.771 17.1233L167.518 16.5902Z" fill="white"/>
<path fill-rule="evenodd" clip-rule="evenodd" d="M169.112 24.7209L183.831 0H181.458L180.582 1.47151L170.7 18.0685C169.682 19.7785 167.349 19.6439 166.502 17.8284L164.139 12.7667H159L164.581 24.7209C165.585 26.4258 168.102 26.4258 169.112 24.7209Z" fill="white"/>
<path d="M33.8274 10.7145C34.2394 10.7258 34.6406 10.8486 34.9882 11.0698C35.1173 11.1467 35.2412 11.2319 35.3591 11.3251C35.5575 11.4837 35.8104 11.5576 36.0629 11.5308C36.3155 11.504 36.5472 11.3786 36.7079 11.1819L37.4289 10.3195C37.4872 10.2482 37.5309 10.1661 37.5574 10.0779C37.584 9.98967 37.5929 9.89709 37.5836 9.80544C37.5743 9.71379 37.547 9.62487 37.5033 9.54379C37.4596 9.4627 37.4003 9.39103 37.3288 9.33289C36.9246 9.00384 36.4764 8.73274 35.9973 8.52739C35.3031 8.21392 34.5511 8.04884 33.7895 8.04272C32.8569 8.02765 31.9354 8.24647 31.1091 8.67918C30.3391 9.08423 29.6966 9.69508 29.2532 10.4437C28.8021 11.2141 28.5707 12.0934 28.5839 12.9861C28.5691 13.8914 28.7953 14.7843 29.2394 15.5733C29.668 16.3211 30.2932 16.9373 31.047 17.3551C31.7867 17.7597 32.6123 17.9822 33.4552 18.0041C34.2981 18.026 35.134 17.8467 35.8938 17.481C36.4158 17.2425 36.9018 16.9319 37.3375 16.5582C37.4065 16.497 37.4625 16.4225 37.5022 16.3393C37.5419 16.256 37.5645 16.1657 37.5687 16.0735C37.5729 15.9814 37.5585 15.8893 37.5265 15.8028C37.4945 15.7163 37.4455 15.6371 37.3823 15.5699L36.6527 14.7782C36.4983 14.605 36.2863 14.4936 36.0561 14.4647C35.8258 14.4358 35.5929 14.4915 35.4005 14.6212C35.2557 14.7232 35.1035 14.8143 34.9451 14.8938C34.6011 15.0796 34.2183 15.1818 33.8274 15.1922C33.4665 15.1963 33.1122 15.095 32.8081 14.9007C32.4989 14.7045 32.2519 14.4246 32.0957 14.0934C31.921 13.733 31.8335 13.3365 31.8404 12.9361C31.8184 12.3516 32.0194 11.7806 32.4027 11.3389C32.5797 11.1364 32.7991 10.9755 33.0454 10.8676C33.2916 10.7597 33.5587 10.7074 33.8274 10.7145ZM54.5048 12.2875C53.9438 12.0578 53.3674 11.8676 52.7799 11.7183C52.3785 11.6231 51.9857 11.495 51.6053 11.3354C51.3587 11.2199 51.2345 11.0595 51.2345 10.8559C51.2345 10.5851 51.4311 10.4506 51.8226 10.4506C52.3523 10.4789 52.8734 10.5955 53.3646 10.7956C53.674 10.9105 53.9712 11.0301 54.2564 11.1543C54.498 11.2589 54.771 11.2646 55.0168 11.1701C55.2625 11.0756 55.4614 10.8885 55.5707 10.6489L56.1451 9.43121C56.1823 9.35381 56.1893 9.26531 56.1648 9.18301C56.1402 9.10071 56.0858 9.03053 56.0123 8.9862C55.4842 8.69268 54.9224 8.46448 54.3392 8.30662C53.6096 8.10037 52.8551 7.99532 52.0969 7.99442C51.3571 7.97908 50.6218 8.11161 49.9339 8.38423C49.3618 8.60824 48.8652 8.99054 48.5023 9.4864C48.1612 9.97598 47.9842 10.5612 47.9969 11.1578C47.9969 11.8155 48.1631 12.3404 48.4954 12.7325C48.812 13.1124 49.2172 13.4086 49.6752 13.595C50.2282 13.8118 50.7959 13.9888 51.3742 14.1245C51.7866 14.2182 52.1905 14.3462 52.5816 14.5074C52.8334 14.623 52.961 14.7868 52.961 14.999C52.961 15.3336 52.7046 15.5009 52.1917 15.5009C51.6996 15.5009 51.0896 15.3508 50.3617 15.0507C50.038 14.9181 49.7229 14.7654 49.4182 14.5936C49.298 14.5268 49.1654 14.4854 49.0285 14.4719C48.8916 14.4584 48.7534 14.4732 48.6225 14.5152C48.4916 14.5572 48.3706 14.6257 48.2672 14.7163C48.1637 14.8069 48.08 14.9178 48.0211 15.0421L47.483 16.1408C47.4458 16.2138 47.4359 16.2975 47.4548 16.3772C47.4738 16.4568 47.5204 16.5271 47.5864 16.5755C48.2029 17.0025 48.882 17.3313 49.5993 17.55C50.4285 17.8158 51.2934 17.9531 52.1642 17.9571C52.8605 17.964 53.5526 17.8472 54.2081 17.6121C54.7832 17.4143 55.2892 17.055 55.6656 16.5772C56.0371 16.0742 56.2274 15.4601 56.2054 14.8351C56.2054 14.1452 56.033 13.5955 55.688 13.1862C55.3701 12.7974 54.9646 12.4894 54.5048 12.2875ZM41.6685 14.2142H46.1531V11.7718H41.6685V10.5782H45.9323C46.1135 10.5755 46.2863 10.5016 46.4135 10.3725C46.5407 10.2434 46.6119 10.0695 46.6119 9.88829V8.13068H39.1641C38.9829 8.1334 38.81 8.20729 38.6829 8.33638C38.5557 8.46548 38.4845 8.63941 38.4845 8.82062V17.8726H46.0531C46.2342 17.8698 46.4071 17.7959 46.5342 17.6668C46.6614 17.5378 46.7327 17.3638 46.7326 17.1826V15.4285H41.6685V14.2142ZM84.817 16.4358L81.4863 8.13068H79.4269C79.0698 8.13162 78.7211 8.23848 78.4248 8.43776C78.1285 8.63703 77.898 8.91974 77.7624 9.2501L74.1748 17.8743H77.4313L77.9263 16.4944H81.526L82.0072 17.8743H83.8649C84.0357 17.8741 84.2038 17.8317 84.3543 17.7508C84.5047 17.6699 84.6328 17.553 84.727 17.4106C84.8213 17.2681 84.8789 17.1046 84.8946 16.9345C84.9103 16.7644 84.8836 16.5931 84.817 16.4358ZM78.749 14.1935L79.7598 11.3458L80.7498 14.1935H78.749ZM73.8367 9.04312C73.1468 8.43368 72.1774 8.12953 70.9286 8.13068H67.441C67.1692 8.13476 66.91 8.24559 66.7192 8.43923C66.5285 8.63287 66.4216 8.89378 66.4216 9.16558V17.8726H68.5863C68.8581 17.8685 69.1173 17.7576 69.3081 17.564C69.4988 17.3704 69.6057 17.1095 69.6057 16.8376V15.3405H70.9304C72.1837 15.3405 73.1531 15.0139 73.8384 14.3608C74.5238 13.7076 74.8636 12.7929 74.8578 11.6166C74.8578 10.5092 74.5174 9.65141 73.8367 9.04312ZM71.5685 12.5911C71.4662 12.6986 71.3414 12.7823 71.2031 12.8363C71.0648 12.8902 70.9164 12.9131 70.7682 12.9033H69.604V10.5782H70.7682C70.9145 10.5693 71.0611 10.5913 71.1984 10.6427C71.3357 10.6941 71.4606 10.7738 71.5651 10.8766C71.7648 11.1099 71.8656 11.4119 71.8462 11.7183C71.8663 12.0338 71.7672 12.3453 71.5685 12.5911ZM64.4432 9.04312C63.7533 8.43368 62.7845 8.12953 61.5369 8.13068H58.0476C57.7758 8.13476 57.5165 8.24559 57.3258 8.43923C57.1351 8.63287 57.0282 8.89378 57.0282 9.16558V17.8726H59.1929C59.4646 17.8685 59.7239 17.7576 59.9146 17.564C60.1054 17.3704 60.2123 17.1095 60.2122 16.8376V15.3405H61.5369C62.7891 15.3405 63.7579 15.0139 64.4432 14.3608C65.1286 13.7076 65.4736 12.7929 65.4781 11.6166C65.4736 10.5092 65.1286 9.65141 64.4432 9.04312ZM62.1751 12.5911C62.0731 12.6986 61.9486 12.7823 61.8106 12.8363C61.6726 12.8902 61.5244 12.9131 61.3765 12.9033H60.2122V10.5782H61.3765C61.5226 10.5689 61.669 10.5907 61.8061 10.6421C61.9432 10.6935 62.0678 10.7735 62.1716 10.8766C62.3713 11.1099 62.4722 11.4119 62.4528 11.7183C62.4738 12.0339 62.3745 12.3457 62.1751 12.5911Z" fill="white"/>
<path d="M12.9949 26C12.2254 26 11.4634 25.8482 10.7526 25.5533C9.07608 24.8633 6.63544 23.7301 4.54321 22.3106C1.48336 20.246 0 18.1503 0 15.9028V8.90516C0 7.07166 1.0349 5.28646 3.07193 3.58922C5.8585 1.26993 9.36944 0 12.9949 0C16.6204 0 20.1313 1.26993 22.9179 3.58922C24.9566 5.28646 25.9898 7.07511 25.9898 8.90516V15.9028C25.9898 18.1451 24.5065 20.246 21.4569 22.3106C19.3578 23.7301 16.9172 24.8582 15.2389 25.5533C14.5277 25.8489 13.7651 26.0007 12.9949 26Z" fill="black"/>
<path d="M7.19775 7.9806H6.73549C6.34504 7.96567 5.95489 8.01699 5.58158 8.13238C5.32725 8.21337 5.11405 8.38949 4.98651 8.62396C4.85176 8.91768 4.78964 9.2395 4.8054 9.56227V11.2405C4.81495 11.3369 4.79121 11.4337 4.73813 11.5148C4.70621 11.5444 4.66827 11.5669 4.6269 11.5806C4.58553 11.5943 4.5417 11.5989 4.49838 11.5941H4.04992V13.3466H4.49838C4.54155 13.342 4.58519 13.3466 4.62649 13.3599C4.66778 13.3733 4.70582 13.3952 4.73813 13.4242C4.79095 13.506 4.81465 13.6032 4.8054 13.7001V15.3819C4.79025 15.7046 4.85234 16.0263 4.98651 16.3202C5.11439 16.554 5.32755 16.7295 5.58158 16.81C5.95519 16.9239 6.34518 16.9746 6.73549 16.9601H7.19775C7.30861 16.9592 7.41459 16.9144 7.4925 16.8355C7.57041 16.7566 7.61389 16.6501 7.61343 16.5392V15.2559C7.28571 15.2559 7.06838 15.2128 6.96317 15.1283C6.90283 15.0648 6.85731 14.9887 6.82987 14.9055C6.80244 14.8223 6.79377 14.734 6.80448 14.6471V13.8554C6.82573 13.5294 6.75076 13.2043 6.58888 12.9205C6.40424 12.684 6.139 12.5238 5.84375 12.4703C6.13896 12.419 6.40454 12.2598 6.58888 12.0236C6.751 11.7406 6.826 11.416 6.80448 11.0905V10.2936C6.79399 10.2065 6.80293 10.1182 6.83067 10.035C6.85841 9.95177 6.90425 9.87574 6.96489 9.81237C7.07183 9.72613 7.28744 9.68473 7.61343 9.68473V8.40146C7.61389 8.3465 7.60348 8.29199 7.58282 8.24106C7.56215 8.19013 7.53163 8.14378 7.49301 8.10468C7.45439 8.06558 7.40842 8.03449 7.35775 8.01319C7.30708 7.9919 7.25271 7.98082 7.19775 7.9806ZM16.8568 14.7851L15.5684 14.021C15.4383 13.9438 15.2856 13.9138 15.1361 13.9362C14.9865 13.9585 14.8492 14.0317 14.7473 14.1434C14.5575 14.3372 14.3286 14.4883 14.0758 14.5868C13.823 14.6852 13.5521 14.7287 13.2812 14.7144C13.0285 14.7233 12.7772 14.6723 12.5478 14.5656C12.3185 14.4589 12.1177 14.2994 11.9617 14.1003C11.6306 13.6909 11.4656 13.1494 11.4667 12.4755C11.4401 11.8949 11.6225 11.3239 11.9807 10.8662C12.1366 10.6724 12.335 10.517 12.5605 10.4121C12.786 10.3071 13.0326 10.2553 13.2812 10.2608C13.5469 10.2515 13.8118 10.2954 14.0603 10.3899C14.3089 10.4844 14.536 10.6276 14.7284 10.8111C14.8312 10.9066 14.9627 10.9656 15.1024 10.9787C15.2422 10.9918 15.3823 10.9583 15.5011 10.8835L16.7965 10.0935C16.8274 10.0743 16.854 10.049 16.8749 10.0191C16.8957 9.9893 16.9103 9.95554 16.9177 9.9199C16.9251 9.88427 16.9252 9.8475 16.918 9.81182C16.9108 9.77614 16.8965 9.7423 16.8758 9.71233C16.5123 9.19268 16.025 8.77179 15.458 8.4877C14.7478 8.13529 13.9636 7.95787 13.1709 7.97025C12.3504 7.95356 11.5393 8.14714 10.8147 8.53254C10.1424 8.8976 9.59048 9.45008 9.22615 10.1228C8.83898 10.8499 8.64423 11.664 8.66041 12.4876C8.64439 13.306 8.84175 14.1144 9.23305 14.8334C9.59942 15.4961 10.146 16.0415 10.8096 16.4064C11.5248 16.7916 12.3276 16.9853 13.1398 16.9687C13.9683 16.9878 14.7891 16.8062 15.5322 16.4392C16.1057 16.147 16.5918 15.7085 16.9413 15.168C16.9619 15.1374 16.976 15.103 16.9827 15.0668C16.9894 15.0306 16.9886 14.9933 16.9804 14.9574C16.9721 14.9216 16.9566 14.8877 16.9348 14.8581C16.9129 14.8284 16.8852 14.8036 16.8534 14.7851H16.8568ZM22.2676 4.39639C19.6647 2.22972 16.385 1.04333 12.9984 1.04333C9.61169 1.04333 6.33201 2.22972 3.7291 4.39639C1.937 5.88492 1.03491 7.40278 1.03491 8.90511V15.9028C1.03491 19.6163 6.53196 22.6745 11.1442 24.5873C12.3325 25.0795 13.6677 25.0795 14.856 24.5873C19.4682 22.6745 24.9653 19.6163 24.9653 15.9028V8.90511C24.9601 7.40278 24.0528 5.88492 22.2642 4.39639H22.2676ZM23.9338 15.9028C23.9338 19.3041 17.445 22.3847 14.4645 23.6214C13.9998 23.8144 13.5016 23.9138 12.9984 23.9138C12.4952 23.9138 11.997 23.8144 11.5323 23.6214C8.55174 22.3847 2.06291 19.3093 2.06291 15.9028V8.90511C2.06291 7.59423 3.02537 6.33165 4.38109 5.20361C6.80118 3.18993 9.85007 2.08736 12.9984 2.08736C16.1467 2.08736 19.1955 3.18993 21.6156 5.20361C22.9714 6.33165 23.9338 7.59423 23.9338 8.90511V15.9028ZM21.2517 11.5148C21.1986 11.4337 21.1749 11.3369 21.1844 11.2405V9.56227C21.2029 9.2402 21.1437 8.91841 21.0119 8.62396C20.8848 8.38984 20.6723 8.21376 20.4186 8.13238C20.0447 8.01713 19.654 7.96581 19.263 7.9806H18.8007C18.7458 7.98082 18.6914 7.9919 18.6407 8.01319C18.59 8.03449 18.5441 8.06558 18.5054 8.10468C18.4668 8.14378 18.4363 8.19013 18.4156 8.24106C18.395 8.29199 18.3846 8.3465 18.385 8.40146V9.68473C18.711 9.68473 18.9266 9.72613 19.0336 9.81237C19.0942 9.87574 19.1401 9.95177 19.1678 10.035C19.1955 10.1182 19.2045 10.2065 19.194 10.2936V11.0905C19.1725 11.416 19.2475 11.7406 19.4096 12.0236C19.5939 12.2598 19.8595 12.419 20.1547 12.4703C19.8596 12.5242 19.5945 12.6844 19.4096 12.9205C19.2477 13.2043 19.1727 13.5294 19.194 13.8554V14.6471C19.2047 14.734 19.196 14.8223 19.1686 14.9055C19.1411 14.9887 19.0956 15.0648 19.0353 15.1283C18.9301 15.2128 18.7145 15.2559 18.385 15.2559V16.5392C18.3846 16.6501 18.428 16.7566 18.506 16.8355C18.5839 16.9144 18.6898 16.9592 18.8007 16.9601H19.263C19.6538 16.9744 20.0444 16.9237 20.4186 16.81C20.6725 16.73 20.8853 16.5543 21.0119 16.3202C21.1432 16.0255 21.2023 15.7039 21.1844 15.3819V13.7001C21.1752 13.6032 21.1989 13.506 21.2517 13.4242C21.284 13.3952 21.3221 13.3733 21.3633 13.3599C21.4046 13.3466 21.4483 13.342 21.4915 13.3466H21.9399V11.5941H21.4915C21.4481 11.5989 21.4043 11.5943 21.3629 11.5806C21.3216 11.5669 21.2836 11.5444 21.2517 11.5148Z" fill="white"/>
<path opacity="0.6" d="M136.82 2H122.458L132.251 13.9759L122.458 25.9517H136.82L146.614 13.9759L136.82 2Z" fill="#CDD4E0"/>
<path opacity="0.5" d="M118.572 2H113.886L123.68 13.9759L113.886 25.9517H118.572L128.366 13.9759L118.572 2Z" fill="#CDD4E0"/>
<path opacity="0.3" d="M110.096 2H105.409L115.203 13.9759L105.409 25.9517H110.096L119.89 13.9759L110.096 2Z" fill="#CDD4E0"/>
<path opacity="0.15" d="M101.687 2H97L106.794 13.9759L97 25.9517H101.687L111.481 13.9759L101.687 2Z" fill="#CDD4E0"/>
</svg>
