<svg width="116" height="26" viewBox="0 0 116 26" fill="none" xmlns="http://www.w3.org/2000/svg">
<g clip-path="url(#clip0)">
<path fill-rule="evenodd" clip-rule="evenodd" d="M25.7994 22.7885H28.8683V8.92192H25.7994V22.7885ZM32.038 22.7885H35.0675V16.8644C35.0675 15.4378 35.8048 14.7049 36.9612 14.7049C38.1176 14.7049 38.795 15.4378 38.795 16.8644V22.7885H41.8244V15.9139C41.8244 13.4772 40.4885 11.9724 38.198 11.9724C36.6635 11.9724 35.7672 12.7852 35.0692 13.6762V12.1713H32.0397V22.7885H32.038ZM48.1999 22.9875C50.5109 22.9875 52.2848 21.9179 52.2848 19.5595V19.5204C52.2848 17.5786 50.5503 16.8661 49.0569 16.3713C47.9005 15.9751 46.8844 15.6979 46.8844 15.1028V15.0637C46.8844 14.6471 47.2625 14.3308 47.9998 14.3308C48.7764 14.3308 49.8335 14.7066 50.889 15.3205L52.0454 13.2409C50.889 12.4689 49.4144 12.0132 48.0596 12.0132C45.9077 12.0132 44.1526 13.2222 44.1526 15.3817V15.4208C44.1526 17.4816 45.8461 18.1737 47.3412 18.6107C48.5164 18.9678 49.553 19.1854 49.553 19.8384V19.8775C49.553 20.3536 49.1544 20.6699 48.2769 20.6699C47.2796 20.6699 46.0651 20.2346 44.9087 19.4014L43.6137 21.3823C45.0318 22.491 46.7048 22.9875 48.1999 22.9875ZM54.4573 25.9581H57.4868V21.401C58.2036 22.2529 59.2008 22.9858 60.8157 22.9858C63.3474 22.9858 65.6789 21.0439 65.6789 17.4986V17.4595C65.6789 13.9142 63.308 11.9724 60.8157 11.9724C59.2419 11.9724 58.2241 12.7053 57.4868 13.6966V12.1713H54.4573V25.9581ZM60.039 20.4318C58.6244 20.4318 57.4475 19.2636 57.4475 17.5003V17.4612C57.4475 15.6979 58.6227 14.5298 60.039 14.5298C61.4537 14.5298 62.6494 15.6979 62.6494 17.4612V17.5003C62.6494 19.2823 61.4537 20.4318 60.039 20.4318ZM72.973 23.0266C74.906 23.0266 76.3412 22.2733 77.3367 21.0456L75.6022 19.5204C74.7657 20.2924 74.0284 20.6103 73.0106 20.6103C71.6558 20.6103 70.6996 19.8979 70.4002 18.5308H77.8345C77.8551 18.2536 77.8739 17.9765 77.8739 17.7384C77.8739 14.727 76.2402 11.9741 72.6719 11.9741C69.562 11.9741 67.3912 14.4703 67.3912 17.5003V17.5395C67.3912 20.7872 69.7639 23.0266 72.973 23.0266ZM70.3626 16.6468C70.6021 15.2796 71.418 14.3886 72.6736 14.3886C73.9497 14.3886 74.7469 15.3001 74.9248 16.6468H70.3626ZM85.1696 23.0266C87.3028 23.0266 88.4968 22.2138 89.5334 21.0848L87.7595 19.3028C87.0222 19.9965 86.3243 20.4318 85.3082 20.4318C83.654 20.4318 82.5969 19.1242 82.5969 17.5003V17.4612C82.5969 15.8969 83.6728 14.5689 85.1884 14.5689C86.2644 14.5689 86.9418 15.0246 87.6192 15.7371L89.4735 13.7561C88.4762 12.6475 87.2224 11.9741 85.209 11.9741C81.94 11.9741 79.6084 14.4703 79.6084 17.5003V17.5395C79.6084 20.5695 81.9605 23.0266 85.1696 23.0266ZM95.1134 22.9671C96.1295 22.9671 96.8668 22.729 97.5049 22.3532V19.937C97.0669 20.175 96.5674 20.3128 96.0098 20.3128C95.3324 20.3128 95.033 19.9761 95.033 19.2823V14.7457H97.5442V12.1696H95.033V9.45584H92.0035V12.1696H90.7274V14.7457H92.0035V19.7772C92.0052 22.2342 93.2608 22.9671 95.1134 22.9671ZM99.8381 11.0015H103.027V8.32678H99.8381V11.0015ZM99.9168 22.7885H102.946V12.1696H99.9168V22.7885ZM109.045 22.8685H111.795L116 12.1713H112.851L110.439 19.284L108.047 12.1713H104.838L109.045 22.8685Z" fill="#000044"/>
<path fill-rule="evenodd" clip-rule="evenodd" d="M6.69702 12.7461L10.0378 7.11439L10.9103 5.64526H13.2692L8.37513 13.8938L7.73365 14.9736L6.69702 12.7461Z" fill="#00DBF9"/>
<path fill-rule="evenodd" clip-rule="evenodd" d="M8.47443 16.5634L12.3883 9.96765L15.6761 4.4261L16.5485 2.95697H18.9092L10.4604 17.196C10.0396 17.9067 9.07656 17.8523 8.72589 17.0957L8.47443 16.5634Z" fill="#00BBF9"/>
<path fill-rule="evenodd" clip-rule="evenodd" d="M10.0601 24.6811L24.7047 0H22.344L21.4716 1.46913L11.6407 18.0394C10.628 19.7465 8.30673 19.6122 7.4634 17.7996L5.11302 12.7461H0L5.55265 24.6811C6.55164 26.3831 9.05598 26.3831 10.0601 24.6811Z" fill="#0095FF"/>
</g>
<defs>
<clipPath id="clip0">
<rect width="116" height="25.958" fill="white"/>
</clipPath>
</defs>
</svg>
