<svg xmlns="http://www.w3.org/2000/svg" viewBox="0 0 195.31 238.04"><defs><style>.cls-1{fill:#fff;}</style></defs><title>logo-white-v</title><g id="Layer_2" data-name="Layer 2"><g id="Layer_1-2" data-name="Layer 1"><path class="cls-1" d="M52.08,227.06h13V220h-13v-3.45H64.43a2,2,0,0,0,2-2v-5.09H44.83a2,2,0,0,0-2,2v26.2H64.78a2,2,0,0,0,2-2v-5.08H52.08Zm37.19-5.58a37,37,0,0,0-5-1.64,22.84,22.84,0,0,1-3.4-1.11,1.55,1.55,0,0,1-1.08-1.39c0-.78.57-1.18,1.71-1.18a13.87,13.87,0,0,1,4.46,1c.9.32,1.76.67,2.58,1a2.92,2.92,0,0,0,3.81-1.47L94,213.22a1,1,0,0,0-.38-1.29,21.18,21.18,0,0,0-4.85-2,24.08,24.08,0,0,0-6.49-.9A16,16,0,0,0,76,210.19a9.27,9.27,0,0,0-4.17,3.2,8.2,8.2,0,0,0-1.46,4.84,6.84,6.84,0,0,0,1.44,4.55,8.64,8.64,0,0,0,3.42,2.51,35.56,35.56,0,0,0,4.92,1.53,23,23,0,0,1,3.52,1.11,1.57,1.57,0,0,1,1.09,1.43c0,1-.74,1.45-2.23,1.45a14.3,14.3,0,0,1-5.29-1.31,21.65,21.65,0,0,1-2.73-1.32,2.92,2.92,0,0,0-4,1.3l-1.56,3.18a1,1,0,0,0,.3,1.26,20.91,20.91,0,0,0,5.83,2.82,24.51,24.51,0,0,0,7.43,1.18,17,17,0,0,0,5.91-1,9.24,9.24,0,0,0,4.23-3,8,8,0,0,0,1.56-5,7.27,7.27,0,0,0-1.48-4.77A9.18,9.18,0,0,0,89.27,221.48Zm-59.89-4.55a6.57,6.57,0,0,1,3.36,1,9.71,9.71,0,0,1,1.07.74,2.78,2.78,0,0,0,3.9-.42l2.09-2.51a2,2,0,0,0-.29-2.86,16.18,16.18,0,0,0-3.85-2.33,15.87,15.87,0,0,0-6.4-1.41A16.18,16.18,0,0,0,21.5,211a13.6,13.6,0,0,0-5.37,5.1,14.18,14.18,0,0,0-1.94,7.37,14.71,14.71,0,0,0,1.9,7.46,13.69,13.69,0,0,0,5.26,5.2,15.28,15.28,0,0,0,14,.36,17.2,17.2,0,0,0,4.16-2.67,2,2,0,0,0,.13-2.86l-2.11-2.29a2.78,2.78,0,0,0-3.63-.46,9.8,9.8,0,0,1-1.32.79,7.19,7.19,0,0,1-3.23.87,5.35,5.35,0,0,1-3-.85,5.69,5.69,0,0,1-2.06-2.33,7.48,7.48,0,0,1-.73-3.34,6.68,6.68,0,0,1,1.62-4.62A5.31,5.31,0,0,1,29.38,216.93ZM118,212.09q-3-2.64-8.41-2.64H99.51a3,3,0,0,0-3,3v25.2h6.27a3,3,0,0,0,3-3v-4.33h3.84q5.44,0,8.41-2.84t3-7.94A9.42,9.42,0,0,0,118,212.09Zm-6.56,10.26a3,3,0,0,1-2.32.9h-3.37v-6.71h3.37a3,3,0,0,1,2.31.86,3.44,3.44,0,0,1,.81,2.44A3.67,3.67,0,0,1,111.47,222.35ZM177,233.49l-9.65-24h-6a5.24,5.24,0,0,0-4.82,3.24l-10.39,24.95h9.43l1.44-4H167.5l1.39,4h5.38A3,3,0,0,0,177,233.49ZM159.46,227l2.93-8.24,2.86,8.24Zm-14.23-14.89q-3-2.64-8.42-2.64h-10.1a3,3,0,0,0-2.95,3v25.2H130a3,3,0,0,0,2.95-3v-4.33h3.83q5.44,0,8.42-2.84c2-1.89,3-4.54,3-7.94A9.45,9.45,0,0,0,145.23,212.09Zm-6.57,10.26a2.92,2.92,0,0,1-2.31.9H133v-6.71h3.37a3.06,3.06,0,0,1,2.31.86,3.44,3.44,0,0,1,.81,2.44A3.62,3.62,0,0,1,138.66,222.35Z"/><path d="M97.66,195.32A43.85,43.85,0,0,1,80.79,192c-12.61-5.23-30.95-13.69-46.72-24.36C11.14,152.09,0,136.35,0,119.46V66.9C0,53.15,7.77,39.71,23.08,27a116.59,116.59,0,0,1,149.15,0c15.32,12.74,23.08,26.18,23.08,39.93v52.56c0,16.89-11.14,32.63-34.06,48.14-15.78,10.67-34.12,19.13-46.72,24.36A43.85,43.85,0,0,1,97.66,195.32Z"/><path class="cls-1" d="M54.1,60H50.62a26.19,26.19,0,0,0-8.68,1.13,7.85,7.85,0,0,0-4.47,3.69,15.28,15.28,0,0,0-1.35,7.06v12.6a3.13,3.13,0,0,1-.52,2.07,2.29,2.29,0,0,1-1.79.58H30.44v13.17h3.37a2.29,2.29,0,0,1,1.79.59,3.11,3.11,0,0,1,.52,2.06v12.64a15.27,15.27,0,0,0,1.35,7,7.7,7.7,0,0,0,4.47,3.69,26.5,26.5,0,0,0,8.68,1.12H54.1a3.13,3.13,0,0,0,3.11-3.16v-9.63c-2.46,0-4.09-.32-4.89-1s-1.19-1.84-1.19-3.61v-5.94c0-3.11-.53-5.45-1.61-7s-2.94-2.71-5.6-3.39c2.66-.66,4.53-1.77,5.6-3.35s1.61-3.92,1.61-7v-6c0-1.77.41-3,1.21-3.62s2.43-1,4.87-1V63.11A3.13,3.13,0,0,0,54.1,60Zm72.56,51.11L117,105.32a5,5,0,0,0-6.14,1q-4,4.24-11,4.25a12.11,12.11,0,0,1-9.92-4.61q-3.72-4.61-3.72-12.21T90,81.66a12.21,12.21,0,0,1,9.83-4.58,15,15,0,0,1,10.87,4.13,4.79,4.79,0,0,0,5.81.55l9.73-5.94a2,2,0,0,0,.6-2.86,28.66,28.66,0,0,0-10.65-9.2A37.3,37.3,0,0,0,99,59.9a36.22,36.22,0,0,0-17.72,4.22A29.81,29.81,0,0,0,69.39,76.06a36.33,36.33,0,0,0-4.25,17.78,35.39,35.39,0,0,0,4.25,17.54A30.18,30.18,0,0,0,81.23,123.2a35.48,35.48,0,0,0,17.51,4.22,38.48,38.48,0,0,0,18-4,27.44,27.44,0,0,0,10.6-9.55A2,2,0,0,0,126.66,111.07Zm40.66-78A108.93,108.93,0,0,0,28,33C14.55,44.21,7.74,55.61,7.74,66.9v52.56c0,27.9,41.31,50.88,76,65.24a36.37,36.37,0,0,0,27.89,0c34.66-14.36,76-37.34,76-65.24V66.9C187.58,55.61,180.76,44.21,167.32,33Zm12.52,86.43c0,25.56-48.77,48.7-71.17,58a28.71,28.71,0,0,1-22,0c-22.4-9.28-71.17-32.42-71.17-58V66.9c0-9.85,7.25-19.34,17.43-27.81a101.27,101.27,0,0,1,129.51,0c10.19,8.47,17.43,18,17.43,27.81ZM159.71,86.51a3.19,3.19,0,0,1-.51-2.07V71.84a15.14,15.14,0,0,0-1.36-7.06,7.85,7.85,0,0,0-4.47-3.69A26.15,26.15,0,0,0,144.69,60h-3.47a3.14,3.14,0,0,0-3.12,3.15v9.64c2.44,0,4.07.32,4.87,1s1.21,1.85,1.21,3.62v6q0,4.65,1.61,7c1.08,1.58,3,2.69,5.61,3.35q-4,1-5.61,3.39t-1.61,7V110c0,1.77-.39,3-1.19,3.61s-2.42,1-4.89,1v9.63a3.14,3.14,0,0,0,3.12,3.16h3.47a26.46,26.46,0,0,0,8.68-1.12,7.7,7.7,0,0,0,4.47-3.69,15.13,15.13,0,0,0,1.36-7V102.91a3.18,3.18,0,0,1,.51-2.06,2.3,2.3,0,0,1,1.8-.59h3.36V87.09h-3.36A2.3,2.3,0,0,1,159.71,86.51Z"/></g></g></svg>