<svg xmlns="http://www.w3.org/2000/svg" viewBox="0 0 238.97 291.24"><defs><style>.cls-1{fill:#0b0e55;}.cls-2{fill:#fff;}</style></defs><title>logo-blue-v</title><g id="Layer_2" data-name="Layer 2"><g id="Layer_1-2" data-name="Layer 1"><path class="cls-1" d="M36,265.41a8.18,8.18,0,0,1,4.11,1.26,13.15,13.15,0,0,1,1.3.91,3.42,3.42,0,0,0,4.78-.51L48.7,264a2.49,2.49,0,0,0-.35-3.5,20.3,20.3,0,0,0-4.73-2.85,19.5,19.5,0,0,0-7.82-1.72,19.83,19.83,0,0,0-9.49,2.26,16.71,16.71,0,0,0-6.58,6.25,17.3,17.3,0,0,0-2.37,9,18.05,18.05,0,0,0,2.33,9.13,16.65,16.65,0,0,0,6.43,6.36,18.76,18.76,0,0,0,17.17.45,21.73,21.73,0,0,0,5.09-3.27,2.46,2.46,0,0,0,.16-3.51L46,279.8a3.4,3.4,0,0,0-4.43-.56,11.57,11.57,0,0,1-1.62,1A8.77,8.77,0,0,1,36,281.27a6.59,6.59,0,0,1-3.62-1,7,7,0,0,1-2.52-2.86,9.13,9.13,0,0,1-.9-4.09,8.12,8.12,0,0,1,2-5.65A6.5,6.5,0,0,1,36,265.41m27.77,12.4H79.63v-8.65H63.72v-4.23H78.83a2.42,2.42,0,0,0,2.41-2.44v-6.23H54.85a2.43,2.43,0,0,0-2.41,2.44v32.06H79.26a2.43,2.43,0,0,0,2.41-2.44v-6.21h-18Zm45.5-6.82a46.2,46.2,0,0,0-6.1-2A26.46,26.46,0,0,1,99,267.61a1.88,1.88,0,0,1-1.32-1.69c0-1,.7-1.44,2.09-1.44a17.1,17.1,0,0,1,5.46,1.22c1.09.4,2.14.82,3.15,1.27a3.57,3.57,0,0,0,4.67-1.79l2-4.31a1.21,1.21,0,0,0-.47-1.57,26,26,0,0,0-5.93-2.41,29.31,29.31,0,0,0-7.94-1.11A19.81,19.81,0,0,0,93,257.16a11.43,11.43,0,0,0-5.09,3.92A10,10,0,0,0,86.15,267a8.32,8.32,0,0,0,1.76,5.57,10.72,10.72,0,0,0,4.18,3.08,45.59,45.59,0,0,0,6,1.87,27.64,27.64,0,0,1,4.31,1.36,1.92,1.92,0,0,1,1.34,1.74c0,1.19-.91,1.78-2.73,1.78a17.84,17.84,0,0,1-6.48-1.6,31.48,31.48,0,0,1-3.34-1.61,3.56,3.56,0,0,0-4.95,1.58l-1.91,3.89a1.22,1.22,0,0,0,.37,1.54,25.13,25.13,0,0,0,7.13,3.45,30.13,30.13,0,0,0,9.08,1.44,20.79,20.79,0,0,0,7.24-1.2,11.2,11.2,0,0,0,5.17-3.67,9.83,9.83,0,0,0,1.91-6.18,8.82,8.82,0,0,0-1.81-5.83,11.22,11.22,0,0,0-4.22-3.22m35.19-11.5q-3.63-3.23-10.29-3.23H121.75a3.64,3.64,0,0,0-3.61,3.66v30.84h7.67a3.63,3.63,0,0,0,3.61-3.66v-5.3h4.7q6.66,0,10.29-3.47t3.64-9.72q0-5.88-3.64-9.12m-8,12.55a3.59,3.59,0,0,1-2.83,1.11h-4.13v-8.22h4.13a3.71,3.71,0,0,1,2.82,1.06,4.2,4.2,0,0,1,1,3,4.47,4.47,0,0,1-1,3.07m80.22,13.63-11.81-29.41H197.5a6.39,6.39,0,0,0-5.9,4l-12.71,30.53h11.54l1.76-4.88h12.75l1.7,4.88h6.58a3.7,3.7,0,0,0,3.38-5.09m-21.5-8,3.58-10.09,3.51,10.09Zm-17.41-18.22q-3.63-3.23-10.3-3.23H155a3.64,3.64,0,0,0-3.61,3.66v30.84h7.67a3.64,3.64,0,0,0,3.61-3.66v-5.3h4.69q6.66,0,10.3-3.47t3.64-9.72q0-5.88-3.64-9.12m-8,12.55a3.6,3.6,0,0,1-2.84,1.11H162.7v-8.22h4.12a3.69,3.69,0,0,1,2.82,1.06,4.16,4.16,0,0,1,1,3,4.47,4.47,0,0,1-1,3.07"/><path class="cls-1" d="M119.48,239a53.65,53.65,0,0,1-20.64-4.11c-15.42-6.39-37.86-16.75-57.16-29.8-28-19-41.68-38.24-41.68-58.9V81.86C0,65,9.5,48.59,28.24,33a142.65,142.65,0,0,1,182.49,0C229.47,48.59,239,65,239,81.86v64.3c0,20.66-13.64,39.93-41.68,58.9-19.31,13.05-41.74,23.41-57.17,29.8A53.61,53.61,0,0,1,119.48,239"/><path class="cls-2" d="M66.19,73.36H61.93a32,32,0,0,0-10.62,1.39,9.56,9.56,0,0,0-5.46,4.51q-1.66,3.12-1.66,8.64v15.42a3.86,3.86,0,0,1-.63,2.52,2.8,2.8,0,0,1-2.19.72H37.24v16.11h4.13a2.8,2.8,0,0,1,2.19.72,3.88,3.88,0,0,1,.63,2.53v15.46A18.66,18.66,0,0,0,45.85,150a9.48,9.48,0,0,0,5.46,4.51,32.65,32.65,0,0,0,10.62,1.37h4.26A3.84,3.84,0,0,0,70,152V140.22q-4.53,0-6-1.18c-1-.78-1.46-2.26-1.46-4.42v-7.27q0-5.7-2-8.59c-1.32-1.93-3.6-3.31-6.86-4.14,3.26-.81,5.54-2.17,6.86-4.1s2-4.8,2-8.59V94.61c0-2.16.49-3.63,1.48-4.42S67,89,70,89V77.22a3.84,3.84,0,0,0-3.81-3.86M155,135.9l-11.86-7A6.06,6.06,0,0,0,135.6,130q-4.92,5.21-13.42,5.2A14.82,14.82,0,0,1,110,129.61q-4.55-5.64-4.55-14.94t4.66-14.76a15,15,0,0,1,12-5.6,18.29,18.29,0,0,1,13.3,5.06,5.89,5.89,0,0,0,7.11.67l11.91-7.27a2.48,2.48,0,0,0,.73-3.51A35.11,35.11,0,0,0,142.2,78a45.6,45.6,0,0,0-21-4.73,44.22,44.22,0,0,0-21.68,5.17A36.32,36.32,0,0,0,84.9,93.07a44.27,44.27,0,0,0-5.2,21.74,43.19,43.19,0,0,0,5.2,21.46,36.77,36.77,0,0,0,14.49,14.46,43.36,43.36,0,0,0,21.42,5.16q12.65,0,22-4.87a33.54,33.54,0,0,0,13-11.68,2.46,2.46,0,0,0-.81-3.44m49.75-95.49a133.27,133.27,0,0,0-170.47,0C17.8,54.1,9.47,68,9.47,81.86v64.31c0,34.13,50.55,62.24,93,79.81a44.5,44.5,0,0,0,34.12,0c42.41-17.57,93-45.68,93-79.81V81.86c0-13.82-8.34-27.76-24.78-41.45M220,146.17c0,31.26-59.67,59.57-87.08,70.93a35.16,35.16,0,0,1-26.95,0c-27.41-11.36-87.08-39.67-87.08-70.93V81.86c0-12,8.86-23.66,21.33-34a123.91,123.91,0,0,1,158.45,0c12.46,10.37,21.33,22,21.33,34Zm-24.63-40.33a3.86,3.86,0,0,1-.63-2.52V87.9q0-5.52-1.66-8.64a9.58,9.58,0,0,0-5.47-4.51A32,32,0,0,0,177,73.36h-4.25A3.84,3.84,0,0,0,169,77.22V89c3,0,5,.39,6,1.18s1.48,2.26,1.48,4.42v7.32c0,3.79.66,6.66,2,8.59s3.6,3.29,6.85,4.1c-3.25.83-5.54,2.21-6.85,4.14s-2,4.79-2,8.59v7.27c0,2.16-.49,3.64-1.46,4.42s-3,1.18-6,1.18V152a3.84,3.84,0,0,0,3.81,3.87H177a32.57,32.57,0,0,0,10.62-1.37,9.5,9.5,0,0,0,5.47-4.51,18.66,18.66,0,0,0,1.66-8.62V125.92a3.88,3.88,0,0,1,.63-2.53,2.8,2.8,0,0,1,2.19-.72h4.13V106.56H197.6a2.8,2.8,0,0,1-2.19-.72"/></g></g></svg>