<svg width="156" height="35" viewBox="0 0 156 35" fill="none" xmlns="http://www.w3.org/2000/svg">
<path fill-rule="evenodd" clip-rule="evenodd" d="M34.6958 30.7265H38.8229V12.0297H34.6958V30.7265ZM43.0856 30.7265H47.1598V22.7388C47.1598 20.8152 48.1513 19.8271 49.7064 19.8271C51.2615 19.8271 52.1725 20.8152 52.1725 22.7388V30.7265H56.2467V21.4572C56.2467 18.1718 54.45 16.1427 51.3697 16.1427C49.3061 16.1427 48.1007 17.2386 47.1621 18.44V16.411H43.0879V30.7265H43.0856ZM64.8206 30.9947C67.9285 30.9947 70.3141 29.5526 70.3141 26.3727V26.3199C70.3141 23.7017 67.9814 22.7411 65.9731 22.0739C64.418 21.5397 63.0515 21.166 63.0515 20.3636V20.3108C63.0515 19.7491 63.5599 19.3227 64.5514 19.3227C65.5958 19.3227 67.0175 19.8294 68.4369 20.657L69.992 17.8531C68.4369 16.8122 66.4539 16.1978 64.6319 16.1978C61.7379 16.1978 59.3776 17.8279 59.3776 20.7396V20.7923C59.3776 23.571 61.6551 24.5041 63.6657 25.0933C65.2461 25.5748 66.6402 25.8683 66.6402 26.7487V26.8014C66.6402 27.4433 66.1042 27.8698 64.9241 27.8698C63.5829 27.8698 61.9496 27.2829 60.3944 26.1594L58.653 28.8304C60.5601 30.3252 62.8099 30.9947 64.8206 30.9947ZM73.2357 35H77.3098V28.8556C78.2738 30.0043 79.6149 30.9924 81.7866 30.9924C85.1913 30.9924 88.3268 28.3742 88.3268 23.5939V23.5412C88.3268 18.761 85.1384 16.1427 81.7866 16.1427C79.6701 16.1427 78.3014 17.1309 77.3098 18.4675V16.411H73.2357V35ZM80.7422 27.5488C78.8397 27.5488 77.2569 25.9737 77.2569 23.5962V23.5435C77.2569 21.166 78.8374 19.5909 80.7422 19.5909C82.6447 19.5909 84.2527 21.166 84.2527 23.5435V23.5962C84.2527 25.999 82.6447 27.5488 80.7422 27.5488ZM98.1361 31.0474C100.736 31.0474 102.666 30.0318 104.005 28.3765L101.672 26.3199C100.547 27.3608 99.5555 27.7895 98.1867 27.7895C96.3647 27.7895 95.0787 26.8289 94.6762 24.9856H104.674C104.702 24.6119 104.727 24.2382 104.727 23.9172C104.727 19.8569 102.53 16.145 97.7312 16.145C93.5489 16.145 90.6296 19.5107 90.6296 23.5962V23.649C90.6296 28.028 93.8204 31.0474 98.1361 31.0474ZM94.6255 22.4453C94.9476 20.602 96.0449 19.4006 97.7335 19.4006C99.4496 19.4006 100.522 20.6295 100.761 22.4453H94.6255ZM114.538 31.0474C117.407 31.0474 119.013 29.9515 120.407 28.4292L118.021 26.0265C117.03 26.9619 116.091 27.5488 114.725 27.5488C112.5 27.5488 111.079 25.7857 111.079 23.5962V23.5435C111.079 21.4342 112.526 19.6437 114.564 19.6437C116.011 19.6437 116.922 20.2581 117.833 21.2187L120.326 18.5478C118.985 17.0529 117.299 16.145 114.591 16.145C110.195 16.145 107.06 19.5107 107.06 23.5962V23.649C107.06 27.7345 110.223 31.0474 114.538 31.0474ZM127.911 30.9672C129.278 30.9672 130.269 30.6462 131.127 30.1395V26.8816C130.538 27.2026 129.867 27.3883 129.117 27.3883C128.206 27.3883 127.803 26.9344 127.803 25.999V19.8821H131.18V16.4087H127.803V12.7496H123.729V16.4087H122.013V19.8821H123.729V26.6661C123.731 29.979 125.42 30.9672 127.911 30.9672ZM134.265 14.8336H138.553V11.2272H134.265V14.8336ZM134.371 30.7265H138.445V16.4087H134.371V30.7265ZM146.646 30.8342H150.345L156 16.411H151.765L148.521 26.0012L145.305 16.411H140.989L146.646 30.8342Z" fill="white"/>
<path fill-rule="evenodd" clip-rule="evenodd" d="M9.00635 17.1859L13.4992 9.59255L14.6724 7.61168H17.8448L11.2631 18.7335L10.4004 20.1893L9.00635 17.1859Z" fill="white"/>
<path fill-rule="evenodd" clip-rule="evenodd" d="M11.3966 22.333L16.6601 13.4397L21.0816 5.96783L22.2549 3.98696H25.4295L14.0675 23.1858C13.5015 24.1442 12.2064 24.0708 11.7348 23.0506L11.3966 22.333Z" fill="white"/>
<path fill-rule="evenodd" clip-rule="evenodd" d="M13.5291 33.2782L33.2235 0H30.0488L28.8756 1.98087L15.6548 24.323C14.2929 26.6249 11.1711 26.4437 10.037 23.9997L6.87613 17.1859H0L7.46735 33.2782C8.81083 35.5732 12.1787 35.5732 13.5291 33.2782Z" fill="white"/>
</svg>
