<svg xmlns="http://www.w3.org/2000/svg" viewBox="0 0 150.68 150.74"><defs><style>.cls-1{fill:#fff;}</style></defs><title>logo-white-icon</title><g id="Layer_2" data-name="Layer 2"><g id="Layer_1-2" data-name="Layer 1"><g id="Layer_1-2-2" data-name="Layer 1-2"><path d="M75.34,150.74a33.92,33.92,0,0,1-13-2.59c-9.72-4-23.87-10.57-36-18.8C8.6,117.38,0,105.23,0,92.2V51.63C0,41,6,30.65,17.81,20.81a89.92,89.92,0,0,1,115.06,0c11.82,9.84,17.81,20.21,17.81,30.82V92.2c0,13-8.6,25.18-26.28,37.15-12.17,8.23-26.32,14.77-36.05,18.8A33.93,33.93,0,0,1,75.34,150.74Z"/><path class="cls-1" d="M41.73,46.27H39.05a19.94,19.94,0,0,0-6.69.88A6,6,0,0,0,28.91,50a11.71,11.71,0,0,0-1.05,5.44v9.73a2.42,2.42,0,0,1-.39,1.59,1.77,1.77,0,0,1-1.39.46h-2.6V77.38h2.6a1.81,1.81,0,0,1,1.39.45,2.51,2.51,0,0,1,.39,1.6v9.75a11.71,11.71,0,0,0,1.05,5.44,6,6,0,0,0,3.45,2.84,20.49,20.49,0,0,0,6.69.87h2.68a2.42,2.42,0,0,0,2.41-2.44V88.45c-1.9,0-3.16-.25-3.77-.74a3.43,3.43,0,0,1-.92-2.79V80.33a9.67,9.67,0,0,0-1.25-5.42,7.09,7.09,0,0,0-4.32-2.61,7,7,0,0,0,4.32-2.59,9.64,9.64,0,0,0,1.25-5.41V59.68a3.46,3.46,0,0,1,.93-2.79c.62-.5,1.87-.74,3.76-.74V48.71a2.42,2.42,0,0,0-2.4-2.44Zm56,39.45-7.47-4.43A3.81,3.81,0,0,0,85.5,82,11.08,11.08,0,0,1,77,85.31a9.32,9.32,0,0,1-7.65-3.56q-2.88-3.56-2.87-9.42a14.09,14.09,0,0,1,3-9.33A9.39,9.39,0,0,1,77,59.49a11.56,11.56,0,0,1,8.39,3.19,3.69,3.69,0,0,0,4.48.42l7.51-4.58a1.56,1.56,0,0,0,.5-2.15l0-.06a22.18,22.18,0,0,0-8.22-7.1,28.88,28.88,0,0,0-13.26-3A27.77,27.77,0,0,0,62.7,49.47a22.9,22.9,0,0,0-9.21,9.22A28.07,28.07,0,0,0,50.21,72.4,27.36,27.36,0,0,0,53.53,86a23.24,23.24,0,0,0,9.14,9.12,27.32,27.32,0,0,0,13.51,3.26,29.77,29.77,0,0,0,13.87-3.07,21.17,21.17,0,0,0,8.17-7.37,1.57,1.57,0,0,0-.42-2.17l-.09,0ZM129.1,25.49a84,84,0,0,0-107.48,0C11.23,34.12,6,42.92,6,51.63V92.2c0,21.53,31.87,39.26,58.61,50.35a28.15,28.15,0,0,0,21.52,0c26.74-11.09,58.61-28.82,58.61-50.35V51.63c0-8.71-5.29-17.51-15.66-26.14Zm9.66,66.71c0,19.72-37.62,37.58-54.9,44.75a22.16,22.16,0,0,1-17,0C49.58,129.78,12,112,12,92.2V51.63C12,44,17.54,36.71,25.4,30.17a78.11,78.11,0,0,1,99.92,0c7.86,6.54,13.44,13.86,13.44,21.46ZM123.21,66.76a2.42,2.42,0,0,1-.39-1.59V55.44a11.69,11.69,0,0,0-1-5.44,6,6,0,0,0-3.44-2.85,20,20,0,0,0-6.7-.88H109a2.41,2.41,0,0,0-2.41,2.43h0v7.44c1.89,0,3.14.24,3.76.74a3.46,3.46,0,0,1,.93,2.79V64.3a9.64,9.64,0,0,0,1.25,5.41,7,7,0,0,0,4.32,2.59,7.09,7.09,0,0,0-4.32,2.61,9.67,9.67,0,0,0-1.25,5.42v4.59a3.43,3.43,0,0,1-.92,2.79c-.61.49-1.86.74-3.77.74v7.44A2.42,2.42,0,0,0,109,98.33h2.68a20.52,20.52,0,0,0,6.7-.87,5.91,5.91,0,0,0,3.44-2.84,11.82,11.82,0,0,0,1-5.44V79.43a2.51,2.51,0,0,1,.39-1.6,1.81,1.81,0,0,1,1.39-.45h2.6V67.22h-2.6A1.77,1.77,0,0,1,123.21,66.76Z"/></g></g></g></svg>