<svg xmlns="http://www.w3.org/2000/svg" viewBox="0 0 552.53 169.22"><defs><style>.cls-1{fill:#800d07;}.cls-2{fill:#fff;}</style></defs><title>logo-red-h</title><g id="Layer_2" data-name="Layer 2"><g id="Layer_1-2" data-name="Layer 1"><path class="cls-1" d="M354.77,80a83.35,83.35,0,0,0-11.21-3.71,50.09,50.09,0,0,1-7.64-2.49c-1.61-.76-2.42-1.79-2.42-3.12,0-1.76,1.28-2.65,3.83-2.65a31.19,31.19,0,0,1,10,2.25q3,1.09,5.8,2.34a6.54,6.54,0,0,0,8.56-3.29l3.73-7.92a2.25,2.25,0,0,0-.86-2.9,48.48,48.48,0,0,0-10.9-4.43,54,54,0,0,0-14.58-2A36.38,36.38,0,0,0,325,54.57a21,21,0,0,0-9.36,7.2,18.38,18.38,0,0,0-3.29,10.88q0,6.41,3.25,10.24a19.6,19.6,0,0,0,7.68,5.65A80.1,80.1,0,0,0,334.37,92a51.25,51.25,0,0,1,7.91,2.5c1.63.75,2.46,1.82,2.46,3.2q0,3.27-5,3.27c-3.2,0-7.16-1-11.91-2.94a52.16,52.16,0,0,1-6.13-3,6.56,6.56,0,0,0-9.1,2.92l-3.5,7.15a2.25,2.25,0,0,0,.67,2.83,47.17,47.17,0,0,0,13.1,6.34,55.57,55.57,0,0,0,16.69,2.65,38.31,38.31,0,0,0,13.31-2.21,20.7,20.7,0,0,0,9.49-6.75,18.1,18.1,0,0,0,3.5-11.35q0-6.7-3.33-10.73A20.43,20.43,0,0,0,354.77,80M271.19,92.51h29.22V76.62H271.19V68.85H299a4.45,4.45,0,0,0,4.42-4.48V52.92H254.89a4.45,4.45,0,0,0-4.42,4.48v58.91h49.26a4.46,4.46,0,0,0,4.43-4.49v-11.4h-33Zm-51-22.78a14.84,14.84,0,0,1,7.55,2.32,22.24,22.24,0,0,1,2.4,1.66,6.27,6.27,0,0,0,8.78-.93l4.69-5.66a4.57,4.57,0,0,0-.64-6.43,37.12,37.12,0,0,0-8.68-5.24A35.71,35.71,0,0,0,219.9,52.3a36.2,36.2,0,0,0-17.43,4.15,30.53,30.53,0,0,0-12.09,11.48A31.78,31.78,0,0,0,186,84.48a33.16,33.16,0,0,0,4.27,16.78A30.53,30.53,0,0,0,202.12,113a34.46,34.46,0,0,0,31.54.82,39.67,39.67,0,0,0,9.35-6,4.51,4.51,0,0,0,.29-6.43l-4.75-5.15a6.22,6.22,0,0,0-8.14-1,23.57,23.57,0,0,1-3,1.78,16.4,16.4,0,0,1-7.27,1.94,12.05,12.05,0,0,1-6.64-1.9,12.68,12.68,0,0,1-4.64-5.25,16.79,16.79,0,0,1-1.66-7.5,15,15,0,0,1,3.66-10.4,11.93,11.93,0,0,1,9.28-4.09M552,107l-21.68-54H517a11.77,11.77,0,0,0-10.84,7.28l-23.35,56.11H504l3.23-9h23.42l3.14,9h12.08A6.78,6.78,0,0,0,552,107M512.54,92.34l6.58-18.54,6.44,18.54Zm-32-33.49q-6.69-5.93-18.92-5.93H438.93a6.68,6.68,0,0,0-6.63,6.72v56.67h14.08a6.68,6.68,0,0,0,6.64-6.73V99.84h8.62q12.24,0,18.92-6.38t6.68-17.85q0-10.81-6.68-16.76M465.8,81.92a6.6,6.6,0,0,1-5.2,2H453V68.85h7.58a6.79,6.79,0,0,1,5.18,1.94,7.7,7.7,0,0,1,1.83,5.48,8.23,8.23,0,0,1-1.81,5.65M419.43,58.85q-6.69-5.93-18.92-5.93H377.8a6.68,6.68,0,0,0-6.63,6.72v56.67h14.08a6.68,6.68,0,0,0,6.64-6.73V99.84h8.62q12.24,0,18.92-6.38t6.68-17.85q0-10.81-6.68-16.76M404.67,81.92a6.62,6.62,0,0,1-5.2,2h-7.58V68.85h7.58a6.79,6.79,0,0,1,5.18,1.94,7.7,7.7,0,0,1,1.83,5.48,8.23,8.23,0,0,1-1.81,5.65"/><path class="cls-1" d="M84.58,169.22A38,38,0,0,1,70,166.31c-10.92-4.52-26.8-11.86-40.46-21.1C9.65,131.77,0,118.13,0,103.5V58c0-11.92,6.73-23.56,20-34.6a100.93,100.93,0,0,1,129.17,0c13.27,11,20,22.68,20,34.59V103.5c0,14.63-9.65,28.27-29.5,41.71-13.66,9.24-29.55,16.58-40.46,21.1a38,38,0,0,1-14.61,2.91"/><path class="cls-2" d="M46.85,52h-3a22.69,22.69,0,0,0-7.52,1,6.81,6.81,0,0,0-3.87,3.2,13.19,13.19,0,0,0-1.17,6.11V73.16A2.72,2.72,0,0,1,30.83,75a2,2,0,0,1-1.55.51H26.36V86.87h2.92a2,2,0,0,1,1.55.51,2.72,2.72,0,0,1,.45,1.79v11a13.26,13.26,0,0,0,1.17,6.1,6.76,6.76,0,0,0,3.87,3.19,23,23,0,0,0,7.52,1h3a2.72,2.72,0,0,0,2.7-2.74V99.3q-3.21,0-4.23-.84a3.87,3.87,0,0,1-1-3.13V90.18a10.85,10.85,0,0,0-1.39-6.08A8,8,0,0,0,38,81.16a7.8,7.8,0,0,0,4.85-2.9,10.83,10.83,0,0,0,1.39-6.08V67c0-1.53.35-2.58,1-3.13S47.44,63,49.55,63V54.68A2.71,2.71,0,0,0,46.85,52M109.7,96.23l-8.4-5a4.28,4.28,0,0,0-5.31.84q-3.49,3.68-9.5,3.68a10.47,10.47,0,0,1-8.59-4q-3.23-4-3.23-10.58T78,70.75a10.59,10.59,0,0,1,8.52-4,13,13,0,0,1,9.41,3.58,4.16,4.16,0,0,0,5,.48l8.43-5.15a1.75,1.75,0,0,0,.52-2.48,24.82,24.82,0,0,0-9.22-8A32.29,32.29,0,0,0,85.77,51.9a31.27,31.27,0,0,0-15.34,3.66A25.64,25.64,0,0,0,60.1,65.9a31.38,31.38,0,0,0-3.68,15.4A30.57,30.57,0,0,0,60.1,96.5a26,26,0,0,0,10.25,10.24,30.76,30.76,0,0,0,15.17,3.65A33.41,33.41,0,0,0,101.09,107a23.72,23.72,0,0,0,9.18-8.28,1.75,1.75,0,0,0-.57-2.44m35.21-67.62a94.33,94.33,0,0,0-120.67,0C12.6,38.31,6.7,48.18,6.7,58V103.5c0,24.18,35.78,44.08,65.8,56.52a31.46,31.46,0,0,0,24.15,0c30-12.44,65.8-32.34,65.8-56.52V58c0-9.78-5.9-19.65-17.54-29.35m10.84,74.89c0,22.14-42.23,42.19-61.63,50.24a24.93,24.93,0,0,1-19.08,0c-19.4-8.05-61.64-28.1-61.64-50.24V58c0-8.53,6.27-16.75,15.09-24.09a87.69,87.69,0,0,1,112.17,0c8.82,7.34,15.09,15.56,15.09,24.09ZM138.32,75a2.72,2.72,0,0,1-.44-1.79V62.24a13.18,13.18,0,0,0-1.18-6.11,6.75,6.75,0,0,0-3.87-3.2,22.61,22.61,0,0,0-7.52-1h-3a2.71,2.71,0,0,0-2.69,2.73V63c2.11,0,3.52.28,4.21.84s1.05,1.6,1.05,3.13v5.18a10.82,10.82,0,0,0,1.4,6.08,7.8,7.8,0,0,0,4.85,2.9,8,8,0,0,0-4.85,2.94,10.84,10.84,0,0,0-1.4,6.08v5.15a3.87,3.87,0,0,1-1,3.13q-1,.84-4.23.84v8.34a2.71,2.71,0,0,0,2.69,2.74h3a22.91,22.91,0,0,0,7.52-1,6.7,6.7,0,0,0,3.87-3.19,13.25,13.25,0,0,0,1.18-6.1v-11a2.72,2.72,0,0,1,.44-1.79,2,2,0,0,1,1.55-.51h2.92V75.46h-2.92a2,2,0,0,1-1.55-.51"/></g></g></svg>