<svg xmlns="http://www.w3.org/2000/svg" viewBox="0 0 218.65 266.48"><defs><style>.cls-1{fill:#4a017d;}.cls-2{fill:#fff;}</style></defs><title>logo-purple-v</title><g id="Layer_2" data-name="Layer 2"><g id="Layer_1-2" data-name="Layer 1"><path class="cls-1" d="M58.31,254.19H72.86v-7.91H58.31v-3.87H72.13a2.21,2.21,0,0,0,2.2-2.23v-5.7H50.19A2.22,2.22,0,0,0,48,236.71V266H72.52a2.21,2.21,0,0,0,2.2-2.23v-5.68H58.31ZM32.89,242.85A7.41,7.41,0,0,1,36.65,244a11.12,11.12,0,0,1,1.2.83,3.12,3.12,0,0,0,4.37-.46l2.34-2.82a2.27,2.27,0,0,0-.32-3.2,18.54,18.54,0,0,0-4.32-2.61,17.75,17.75,0,0,0-7.16-1.57,18.08,18.08,0,0,0-8.69,2.07,15.16,15.16,0,0,0-6,5.71,15.77,15.77,0,0,0-2.17,8.24A16.6,16.6,0,0,0,18,258.55a15.32,15.32,0,0,0,5.89,5.82,17,17,0,0,0,8.47,2.11,17.16,17.16,0,0,0,7.24-1.7,19.85,19.85,0,0,0,4.66-3,2.26,2.26,0,0,0,.14-3.21L42.05,256a3.11,3.11,0,0,0-4.06-.51,11.54,11.54,0,0,1-1.48.88,8.06,8.06,0,0,1-3.62,1,6.06,6.06,0,0,1-3.31-.95,6.37,6.37,0,0,1-2.31-2.61,8.35,8.35,0,0,1-.82-3.74,7.47,7.47,0,0,1,1.82-5.17,5.94,5.94,0,0,1,4.62-2m67,5.1a42.21,42.21,0,0,0-5.58-1.85,23.53,23.53,0,0,1-3.81-1.24,1.72,1.72,0,0,1-1.2-1.55c0-.88.64-1.31,1.91-1.31a15.47,15.47,0,0,1,5,1.12c1,.36,2,.75,2.88,1.16a3.27,3.27,0,0,0,4.27-1.64l1.86-3.94a1.12,1.12,0,0,0-.43-1.45,24,24,0,0,0-5.43-2.2,26.61,26.61,0,0,0-7.26-1,18.17,18.17,0,0,0-7,1.26,10.4,10.4,0,0,0-4.66,3.59,9.14,9.14,0,0,0-1.64,5.41,7.61,7.61,0,0,0,1.62,5.1,9.66,9.66,0,0,0,3.83,2.81,39.05,39.05,0,0,0,5.5,1.72,25,25,0,0,1,3.94,1.24,1.76,1.76,0,0,1,1.23,1.6c0,1.08-.84,1.62-2.5,1.62a16.31,16.31,0,0,1-5.93-1.46,27.93,27.93,0,0,1-3.05-1.48,3.26,3.26,0,0,0-4.53,1.45l-1.75,3.56a1.12,1.12,0,0,0,.34,1.41A23.24,23.24,0,0,0,84,265a27.6,27.6,0,0,0,8.31,1.32,19.13,19.13,0,0,0,6.63-1.1,10.3,10.3,0,0,0,4.73-3.36,9,9,0,0,0,1.74-5.65,8.07,8.07,0,0,0-1.66-5.34,10.12,10.12,0,0,0-3.86-3m98.25,13.44-10.79-26.91h-6.68a5.86,5.86,0,0,0-5.4,3.63L163.68,266h10.56l1.61-4.46h11.66l1.57,4.46h6a3.37,3.37,0,0,0,3.08-4.65m-19.67-7.28,3.28-9.24,3.21,9.24Zm-46.37-16.68q-3.33-3-9.42-3H111.4a3.33,3.33,0,0,0-3.3,3.35V266h7a3.33,3.33,0,0,0,3.3-3.35v-4.85h4.3q6.09,0,9.42-3.17t3.33-8.89q0-5.39-3.33-8.35m-7.35,11.49a3.31,3.31,0,0,1-2.59,1h-3.78v-7.52h3.78a3.4,3.4,0,0,1,2.58,1,3.85,3.85,0,0,1,.91,2.72,4.08,4.08,0,0,1-.9,2.82m37.8-11.49q-3.33-3-9.43-3H141.85a3.33,3.33,0,0,0-3.3,3.35V266h7a3.33,3.33,0,0,0,3.31-3.35v-4.85h4.29q6.1,0,9.43-3.17t3.33-8.89q0-5.39-3.33-8.35m-7.36,11.49a3.29,3.29,0,0,1-2.59,1h-3.77v-7.52h3.77a3.37,3.37,0,0,1,2.58,1,3.81,3.81,0,0,1,.92,2.72,4.08,4.08,0,0,1-.91,2.82"/><path class="cls-1" d="M109.33,218.66a49.24,49.24,0,0,1-18.89-3.76c-14.11-5.85-34.64-15.33-52.3-27.27C12.48,170.27,0,152.64,0,133.74V74.9C0,59.5,8.69,44.46,25.84,30.19a130.53,130.53,0,0,1,167,0C210,44.46,218.65,59.5,218.65,74.9v58.84c0,18.9-12.47,36.53-38.13,53.89-17.67,11.94-38.2,21.42-52.31,27.27a49.19,49.19,0,0,1-18.88,3.76"/><path class="cls-2" d="M60.56,67.12H56.67A29.32,29.32,0,0,0,47,68.39a8.82,8.82,0,0,0-5,4.13,17.08,17.08,0,0,0-1.52,7.91v14.1a3.54,3.54,0,0,1-.57,2.31,2.55,2.55,0,0,1-2,.66H34.08v14.75h3.77a2.59,2.59,0,0,1,2,.65,3.58,3.58,0,0,1,.57,2.31v14.15A17.06,17.06,0,0,0,42,137.24a8.73,8.73,0,0,0,5,4.14,29.94,29.94,0,0,0,9.72,1.25h3.89a3.52,3.52,0,0,0,3.49-3.54V128.3q-4.14,0-5.48-1.08c-.88-.72-1.33-2.06-1.33-4v-6.65q0-5.22-1.8-7.86c-1.2-1.77-3.3-3-6.27-3.8,3-.73,5.07-2,6.27-3.75s1.8-4.38,1.8-7.86V86.57c0-2,.45-3.33,1.36-4s2.72-1.08,5.45-1.08V70.66a3.51,3.51,0,0,0-3.49-3.54m81.23,57.22L131,117.91a5.54,5.54,0,0,0-6.88,1.08q-4.5,4.76-12.27,4.76a13.56,13.56,0,0,1-11.11-5.16q-4.17-5.16-4.17-13.67t4.27-13.5a13.65,13.65,0,0,1,11-5.13A16.79,16.79,0,0,1,124,90.92a5.36,5.36,0,0,0,6.5.61l10.89-6.65a2.25,2.25,0,0,0,.67-3.2,31.92,31.92,0,0,0-11.92-10.29,41.61,41.61,0,0,0-19.24-4.33A40.5,40.5,0,0,0,91,71.79,33.3,33.3,0,0,0,77.68,85.15a40.65,40.65,0,0,0-4.76,19.9,39.61,39.61,0,0,0,4.76,19.64,33.74,33.74,0,0,0,13.26,13.23,39.65,39.65,0,0,0,19.6,4.72q11.56,0,20.13-4.45a30.66,30.66,0,0,0,11.86-10.69,2.26,2.26,0,0,0-.74-3.16M187.32,37a122,122,0,0,0-156,0C16.29,49.5,8.66,62.26,8.66,74.9v58.84c0,31.23,46.26,56.95,85.06,73a40.73,40.73,0,0,0,31.22,0c38.8-16.08,85.05-41.8,85.05-73V74.9c0-12.64-7.63-25.4-22.67-37.93m14,96.77c0,28.61-54.59,54.51-79.67,64.91a32.22,32.22,0,0,1-24.66,0c-25.08-10.4-79.68-36.3-79.68-64.91V74.9c0-11,8.11-21.65,19.51-31.14a113.38,113.38,0,0,1,145,0c11.4,9.49,19.51,20.11,19.51,31.14ZM178.8,96.84a3.48,3.48,0,0,1-.58-2.31V80.43a17,17,0,0,0-1.52-7.91,8.79,8.79,0,0,0-5-4.13A29.3,29.3,0,0,0,162,67.12h-3.9a3.51,3.51,0,0,0-3.48,3.54V81.44q4.09,0,5.45,1.08t1.35,4v6.69q0,5.22,1.81,7.86t6.27,3.75c-3,.77-5.07,2-6.27,3.8s-1.81,4.38-1.81,7.86v6.65c0,2-.44,3.32-1.33,4s-2.71,1.08-5.47,1.08v10.79a3.51,3.51,0,0,0,3.48,3.54H162a29.92,29.92,0,0,0,9.71-1.25,8.7,8.7,0,0,0,5-4.14,16.93,16.93,0,0,0,1.52-7.88V115.21a3.51,3.51,0,0,1,.58-2.31,2.58,2.58,0,0,1,2-.65h3.78V97.5H180.8a2.54,2.54,0,0,1-2-.66"/></g></g></svg>