<svg xmlns="http://www.w3.org/2000/svg" viewBox="0 0 561.53 171.98"><defs><style>.cls-1{fill:#4a017d;}.cls-2{fill:#fff;}</style></defs><title>logo-purple-h</title><g id="Layer_2" data-name="Layer 2"><g id="Layer_1-2" data-name="Layer 1"><path class="cls-1" d="M275.61,94H305.3V77.87H275.61V70h28.21a4.52,4.52,0,0,0,4.49-4.56V53.78H259.05a4.53,4.53,0,0,0-4.5,4.56V118.2h50.06a4.53,4.53,0,0,0,4.5-4.56V102.05h-33.5Zm84.94-12.74a84.59,84.59,0,0,0-11.39-3.77A50.74,50.74,0,0,1,341.39,75c-1.64-.77-2.46-1.82-2.46-3.17q0-2.69,3.9-2.69A31.63,31.63,0,0,1,353,71.41q3.06,1.11,5.89,2.38a6.66,6.66,0,0,0,8.7-3.35l3.79-8a2.27,2.27,0,0,0-.87-3,48.86,48.86,0,0,0-11.07-4.5,55.15,55.15,0,0,0-14.83-2.06,36.84,36.84,0,0,0-14.31,2.58,21.41,21.41,0,0,0-9.52,7.31,18.74,18.74,0,0,0-3.34,11.06q0,6.51,3.3,10.41A20,20,0,0,0,328.58,90a81.81,81.81,0,0,0,11.24,3.5,51.33,51.33,0,0,1,8,2.54c1.67.76,2.5,1.85,2.5,3.25,0,2.22-1.7,3.32-5.09,3.32s-7.28-1-12.1-3a55.56,55.56,0,0,1-6.23-3,6.67,6.67,0,0,0-9.25,3l-3.56,7.27a2.31,2.31,0,0,0,.69,2.88,47.92,47.92,0,0,0,13.3,6.44,56.52,56.52,0,0,0,17,2.69,38.93,38.93,0,0,0,13.52-2.24,21,21,0,0,0,9.65-6.87,18.34,18.34,0,0,0,3.56-11.53q0-6.81-3.38-10.9a21,21,0,0,0-7.88-6M223.75,70.87a15,15,0,0,1,7.68,2.36,22.48,22.48,0,0,1,2.44,1.68,6.37,6.37,0,0,0,8.92-1l4.77-5.75a4.63,4.63,0,0,0-.66-6.53,37.15,37.15,0,0,0-8.81-5.32,36.23,36.23,0,0,0-14.6-3.21,36.92,36.92,0,0,0-17.73,4.22A31,31,0,0,0,193.49,69a32.34,32.34,0,0,0-4.43,16.83,33.69,33.69,0,0,0,4.34,17,31,31,0,0,0,12,11.89,35,35,0,0,0,32.06.83,40.4,40.4,0,0,0,9.5-6.1,4.59,4.59,0,0,0,.3-6.54l-4.83-5.24a6.34,6.34,0,0,0-8.28-1,23.65,23.65,0,0,1-3,1.81,16.63,16.63,0,0,1-7.39,2A12.28,12.28,0,0,1,217,98.55a12.89,12.89,0,0,1-4.71-5.34,17,17,0,0,1-1.68-7.62A15.24,15.24,0,0,1,214.33,75a12.11,12.11,0,0,1,9.42-4.15M561,108.71,539,53.78H525.37a12,12,0,0,0-11,7.4l-23.73,57h21.55l3.28-9.1h23.8l3.19,9.1h12.28a6.88,6.88,0,0,0,6.3-9.49M520.89,93.84,527.57,75l6.55,18.84Zm-94.63-34q-6.79-6-19.23-6H384a6.79,6.79,0,0,0-6.74,6.84V118.2h14.32a6.79,6.79,0,0,0,6.74-6.83v-9.9H407q12.44,0,19.23-6.48t6.79-18.15q0-11-6.79-17m-15,23.44A6.7,6.7,0,0,1,406,85.32h-7.7V70H406a6.88,6.88,0,0,1,5.27,2,7.78,7.78,0,0,1,1.86,5.56,8.35,8.35,0,0,1-1.84,5.74m77.13-23.44q-6.79-6-19.23-6H446.08a6.79,6.79,0,0,0-6.74,6.84V118.2h14.32a6.79,6.79,0,0,0,6.74-6.83v-9.9h8.76q12.43,0,19.23-6.48t6.79-18.15q0-11-6.79-17m-15,23.44a6.71,6.71,0,0,1-5.29,2.07h-7.7V70h7.7a6.85,6.85,0,0,1,5.26,2,7.78,7.78,0,0,1,1.86,5.56,8.35,8.35,0,0,1-1.83,5.74"/><path class="cls-1" d="M86,172a38.62,38.62,0,0,1-14.85-3C60,164.42,43.87,157,30,147.57,9.81,133.92,0,120.06,0,105.19V58.91C0,46.8,6.84,35,20.32,23.75a102.57,102.57,0,0,1,131.27,0c13.48,11.22,20.32,23,20.32,35.16v46.28c0,14.87-9.81,28.73-30,42.38C128,157,111.9,164.42,100.8,169A38.61,38.61,0,0,1,86,172"/><path class="cls-2" d="M47.61,52.79H44.55a23.06,23.06,0,0,0-7.64,1A7,7,0,0,0,33,57a13.48,13.48,0,0,0-1.19,6.22V74.35a2.8,2.8,0,0,1-.45,1.82,2,2,0,0,1-1.58.52h-3V88.28h3a2,2,0,0,1,1.58.52,2.81,2.81,0,0,1,.45,1.82v11.13A13.54,13.54,0,0,0,33,108a6.88,6.88,0,0,0,3.93,3.25,23.68,23.68,0,0,0,7.64,1h3.06a2.77,2.77,0,0,0,2.75-2.78v-8.48c-2.17,0-3.61-.29-4.31-.86s-1-1.62-1-3.18V91.65a11.07,11.07,0,0,0-1.42-6.18,8.11,8.11,0,0,0-4.93-3,8,8,0,0,0,4.93-2.95A11.09,11.09,0,0,0,45,73.35V68.09c0-1.56.35-2.62,1.06-3.18s2.14-.85,4.29-.85V55.57a2.77,2.77,0,0,0-2.75-2.78m63.87,45L103,92.74a4.35,4.35,0,0,0-5.4.85Q94,97.32,87.9,97.33a10.66,10.66,0,0,1-8.74-4.06q-3.27-4-3.27-10.75T79.24,71.9a10.77,10.77,0,0,1,8.66-4,13.18,13.18,0,0,1,9.56,3.64,4.23,4.23,0,0,0,5.12.48l8.56-5.23a1.78,1.78,0,0,0,.53-2.52,25.16,25.16,0,0,0-9.38-8.09,32.68,32.68,0,0,0-15.12-3.4,31.89,31.89,0,0,0-15.59,3.71A26.07,26.07,0,0,0,61.08,67a31.87,31.87,0,0,0-3.75,15.65,31.05,31.05,0,0,0,3.75,15.44A26.48,26.48,0,0,0,71.5,108.48a31.24,31.24,0,0,0,15.41,3.71,33.93,33.93,0,0,0,15.83-3.5,24.15,24.15,0,0,0,9.32-8.41,1.76,1.76,0,0,0-.58-2.48m35.79-68.72a95.84,95.84,0,0,0-122.63,0C12.81,38.93,6.81,49,6.81,58.91v46.28c0,24.57,36.37,44.8,66.87,57.44a32,32,0,0,0,24.55,0c30.5-12.64,66.87-32.87,66.87-57.44V58.91c0-9.94-6-20-17.83-29.83m11,76.11c0,22.5-42.92,42.88-62.64,51.05a25.26,25.26,0,0,1-19.39,0c-19.72-8.17-62.64-28.55-62.64-51.05V58.91c0-8.67,6.37-17,15.34-24.49a89.11,89.11,0,0,1,114,0c9,7.46,15.34,15.82,15.34,24.49Zm-17.72-29a2.8,2.8,0,0,1-.45-1.82V63.26A13.48,13.48,0,0,0,138.93,57,7,7,0,0,0,135,53.79a23.06,23.06,0,0,0-7.64-1H124.3a2.77,2.77,0,0,0-2.75,2.78v8.49c2.15,0,3.58.28,4.29.85s1.06,1.62,1.06,3.18v5.26a11.09,11.09,0,0,0,1.42,6.19,8,8,0,0,0,4.94,2.95,8.11,8.11,0,0,0-4.94,3,11.07,11.07,0,0,0-1.42,6.18v5.23c0,1.56-.34,2.62-1,3.18s-2.13.86-4.31.86v8.48a2.77,2.77,0,0,0,2.75,2.78h3.06a23.68,23.68,0,0,0,7.64-1,6.88,6.88,0,0,0,3.93-3.25,13.54,13.54,0,0,0,1.19-6.2V90.62a2.81,2.81,0,0,1,.45-1.82,2,2,0,0,1,1.58-.52h3V76.69h-3a2,2,0,0,1-1.58-.52"/></g></g></svg>