<svg xmlns="http://www.w3.org/2000/svg" viewBox="0 0 227.25 276.95"><defs><style>.cls-1{fill:#800d07;}.cls-2{fill:#fff;}</style></defs><title>logo-red-v</title><g id="Layer_2" data-name="Layer 2"><g id="Layer_1-2" data-name="Layer 1"><path class="cls-1" d="M60.6,264.19H75.72V256H60.6v-4H75a2.31,2.31,0,0,0,2.3-2.32V243.7H52.16A2.3,2.3,0,0,0,49.87,246V276.5h25.5a2.31,2.31,0,0,0,2.29-2.32v-5.91H60.6Zm43.26-6.49a41.77,41.77,0,0,0-5.8-1.92,25.06,25.06,0,0,1-4-1.29,1.8,1.8,0,0,1-1.25-1.61c0-.92.66-1.37,2-1.37a16.26,16.26,0,0,1,5.2,1.16c1,.38,2,.78,3,1.21a3.39,3.39,0,0,0,4.43-1.7l1.94-4.1a1.16,1.16,0,0,0-.45-1.5,24.9,24.9,0,0,0-5.64-2.29,28,28,0,0,0-7.55-1,18.86,18.86,0,0,0-7.29,1.31,10.92,10.92,0,0,0-4.85,3.73,9.52,9.52,0,0,0-1.7,5.63,8,8,0,0,0,1.68,5.3,10.14,10.14,0,0,0,4,2.92,42.43,42.43,0,0,0,5.72,1.78,25.49,25.49,0,0,1,4.09,1.29,1.83,1.83,0,0,1,1.28,1.66c0,1.13-.87,1.69-2.59,1.69A17,17,0,0,1,89.91,267a25.26,25.26,0,0,1-3.17-1.54A3.4,3.4,0,0,0,82,267l-1.82,3.7a1.18,1.18,0,0,0,.35,1.47,24.54,24.54,0,0,0,6.78,3.28A28.85,28.85,0,0,0,96,276.82a19.82,19.82,0,0,0,6.88-1.14,10.74,10.74,0,0,0,4.91-3.5,9.32,9.32,0,0,0,1.82-5.87,8.43,8.43,0,0,0-1.73-5.55,10.51,10.51,0,0,0-4-3.06m-69.68-5.3a7.61,7.61,0,0,1,3.91,1.2,10.66,10.66,0,0,1,1.25.86,3.25,3.25,0,0,0,4.54-.49L46.31,251a2.36,2.36,0,0,0-.33-3.32A19.43,19.43,0,0,0,41.49,245a18.51,18.51,0,0,0-7.44-1.64,18.82,18.82,0,0,0-9,2.15,15.76,15.76,0,0,0-6.25,5.94A16.4,16.4,0,0,0,16.51,260a17.21,17.21,0,0,0,2.21,8.68,15.82,15.82,0,0,0,6.12,6.05,17.87,17.87,0,0,0,16.33.42,20.51,20.51,0,0,0,4.84-3.1,2.34,2.34,0,0,0,.15-3.33l-2.46-2.67a3.23,3.23,0,0,0-4.22-.53,13.2,13.2,0,0,1-1.53.92,8.5,8.5,0,0,1-3.77,1,6.19,6.19,0,0,1-3.43-1,6.55,6.55,0,0,1-2.4-2.72,8.51,8.51,0,0,1-.86-3.88,7.77,7.77,0,0,1,1.89-5.38,6.17,6.17,0,0,1,4.8-2.11M206,271.66l-11.23-28h-6.94a6.1,6.1,0,0,0-5.61,3.77l-12.09,29h11l1.67-4.64h12.13l1.62,4.64h6.25a3.52,3.52,0,0,0,3.22-4.84m-20.45-7.57,3.41-9.59,3.33,9.59Zm-48.2-17.32q-3.45-3.08-9.79-3.07H115.78a3.45,3.45,0,0,0-3.43,3.48V276.5h7.29a3.46,3.46,0,0,0,3.44-3.48v-5h4.46q6.33,0,9.79-3.3t3.46-9.24q0-5.59-3.46-8.67m-7.64,11.93a3.41,3.41,0,0,1-2.69,1.05h-3.92v-7.81H127a3.51,3.51,0,0,1,2.68,1,4,4,0,0,1,.95,2.83,4.25,4.25,0,0,1-.94,2.92M169,246.77q-3.47-3.08-9.8-3.07H147.43a3.45,3.45,0,0,0-3.44,3.48V276.5h7.3a3.46,3.46,0,0,0,3.43-3.48v-5h4.46q6.34,0,9.8-3.3t3.46-9.24q0-5.59-3.46-8.67m-7.64,11.93a3.43,3.43,0,0,1-2.7,1.05h-3.92v-7.81h3.92a3.52,3.52,0,0,1,2.69,1,4,4,0,0,1,.94,2.83,4.25,4.25,0,0,1-.93,2.92"/><path class="cls-1" d="M113.62,227.25A50.89,50.89,0,0,1,94,223.34C79.33,217.27,58,207.42,39.64,195,13,177,0,158.64,0,139V77.84c0-16,9-31.63,26.86-46.46a135.64,135.64,0,0,1,173.53,0c17.82,14.83,26.86,30.46,26.86,46.46V139c0,19.64-13,38-39.64,56-18.36,12.42-39.69,22.27-54.36,28.34a50.9,50.9,0,0,1-19.63,3.91"/><path class="cls-2" d="M62.94,69.76h-4a30.56,30.56,0,0,0-10.1,1.32,9.11,9.11,0,0,0-5.2,4.29A17.76,17.76,0,0,0,42,83.59V98.25a3.72,3.72,0,0,1-.59,2.4,2.67,2.67,0,0,1-2.09.68H35.42v15.33h3.92a2.7,2.7,0,0,1,2.09.68,3.76,3.76,0,0,1,.59,2.4v14.71a17.77,17.77,0,0,0,1.58,8.19,9,9,0,0,0,5.2,4.29,30.91,30.91,0,0,0,10.1,1.3h4a3.65,3.65,0,0,0,3.63-3.67V133.35q-4.3,0-5.69-1.13c-.93-.74-1.39-2.15-1.39-4.2v-6.91q0-5.43-1.87-8.17c-1.25-1.84-3.43-3.15-6.52-3.94,3.09-.77,5.27-2.07,6.52-3.9s1.87-4.56,1.87-8.17V90q0-3.07,1.41-4.2t5.67-1.13V73.43a3.65,3.65,0,0,0-3.63-3.67m84.43,59.47-11.27-6.69a5.76,5.76,0,0,0-7.15,1.13q-4.68,4.93-12.76,4.94a14.08,14.08,0,0,1-11.54-5.36q-4.34-5.37-4.33-14.21t4.43-14a14.19,14.19,0,0,1,11.44-5.32,17.39,17.39,0,0,1,12.65,4.8,5.57,5.57,0,0,0,6.76.64l11.32-6.91a2.34,2.34,0,0,0,.7-3.33,33.29,33.29,0,0,0-12.4-10.7,43.35,43.35,0,0,0-20-4.49,42.1,42.1,0,0,0-20.61,4.91A34.44,34.44,0,0,0,80.74,88.5a42.17,42.17,0,0,0-4.95,20.68,41.1,41.1,0,0,0,4.95,20.41,35,35,0,0,0,13.77,13.75,41.28,41.28,0,0,0,20.38,4.91q12,0,20.92-4.63a31.93,31.93,0,0,0,12.33-11.11,2.35,2.35,0,0,0-.77-3.28m47.31-90.8a126.73,126.73,0,0,0-162.11,0C16.93,51.44,9,64.7,9,77.84V139c0,32.46,48.07,59.19,88.4,75.9a42.37,42.37,0,0,0,32.45,0c40.32-16.71,88.4-43.44,88.4-75.9V77.84c0-13.14-7.93-26.4-23.57-39.41M209.25,139c0,29.73-56.75,56.65-82.81,67.45a33.39,33.39,0,0,1-25.63,0C74.74,195.65,18,168.73,18,139V77.84c0-11.46,8.43-22.5,20.28-32.36a117.85,117.85,0,0,1,150.69,0c11.85,9.86,20.28,20.9,20.28,32.36Zm-23.43-38.35a3.72,3.72,0,0,1-.59-2.4V83.59a17.76,17.76,0,0,0-1.58-8.22,9.11,9.11,0,0,0-5.2-4.29,30.56,30.56,0,0,0-10.1-1.32h-4a3.65,3.65,0,0,0-3.63,3.67V84.64q4.26,0,5.67,1.13t1.41,4.2v7q0,5.41,1.87,8.17c1.25,1.83,3.43,3.13,6.52,3.9-3.09.79-5.27,2.1-6.52,3.94s-1.87,4.55-1.87,8.17V128c0,2-.46,3.46-1.39,4.2s-2.82,1.13-5.69,1.13v11.21a3.65,3.65,0,0,0,3.63,3.67h4a30.91,30.91,0,0,0,10.1-1.3,9,9,0,0,0,5.2-4.29,17.77,17.77,0,0,0,1.58-8.19V119.74a3.76,3.76,0,0,1,.59-2.4,2.7,2.7,0,0,1,2.09-.68h3.92V101.33h-3.92a2.67,2.67,0,0,1-2.09-.68"/></g></g></svg>